<svg width="72" height="72" viewBox="0 0 72 72" fill="none" xmlns="http://www.w3.org/2000/svg">
<circle cx="35.5903" cy="35.5356" r="35.5356" fill="#6D597A"/>
<g clip-path="url(#clip0_1548_12015)">
<path d="M55.1126 44.0565C54.5908 45.1145 54.1372 46.2999 53.0477 47.3635C51.9721 48.4134 52.1044 48.6225 49.741 49.333C47.433 50.0255 44.9112 49.6023 42.6694 50.5933C37.9217 52.6958 37.6316 58.9697 34.2924 62.3996C30.8059 65.9818 23.9521 65.7699 21.6004 60.9876C19.4629 56.6404 21.5837 50.8972 23.3538 46.7882C25.3288 42.2032 26.7127 37.6103 26.3223 32.5315C25.7172 24.6476 25.2279 13.28 33.3419 8.73173C37.2104 6.5626 42.0118 8.60298 45.2893 10.9196C51.0003 14.9558 53.4601 17.1497 55.9652 23.731C58.1535 29.479 58.26 34.087 56.464 40.5201C56.464 40.5201 55.6344 42.9985 55.1126 44.0565Z" fill="#043A4E"/>
<path d="M29.326 38.2905C31.8191 34.8713 30.5604 27.9231 25.7304 27.1039C23.2569 26.6854 20.8783 28.6235 19.9525 30.8156C18.1661 35.0434 22.6432 38.9143 26.4753 39.5765C27.6751 39.7838 28.6362 39.2375 29.3271 38.2904L29.326 38.2905Z" fill="#FF9D48"/>
<mask id="path-4-outside-1_1548_12015" maskUnits="userSpaceOnUse" x="9.63118" y="6.7268" width="50.6678" height="61.6274" fill="black">
<rect fill="white" x="9.63118" y="6.7268" width="50.6678" height="61.6274"/>
<path d="M41.7907 30.3363C41.6633 29.9541 41.6171 29.5704 41.6156 29.1816C41.6162 28.9877 41.6387 28.7946 41.6731 28.6031C41.7075 28.4129 41.7602 28.225 41.8355 28.0456C41.9784 27.686 42.2002 27.36 42.4659 27.0807C42.733 26.8025 43.0481 26.5734 43.3835 26.3864C43.7188 26.1995 44.0743 26.0522 44.4368 25.9276L44.7123 25.8426C44.8026 25.8118 44.9015 25.7906 44.9929 25.7726C45.1794 25.7351 45.3675 25.7 45.5559 25.6701C45.9328 25.6089 46.312 25.5604 46.6945 25.5362C47.0772 25.5146 47.4637 25.5068 47.852 25.5674C48.0457 25.6004 48.2408 25.65 48.4248 25.7522C48.4698 25.7807 48.5159 25.8079 48.5564 25.8446L48.6178 25.9002C48.6378 25.923 48.6578 25.9459 48.6758 25.9767C48.6938 26.0062 48.7085 26.0438 48.7123 26.0887C48.716 26.1336 48.7045 26.1811 48.6831 26.2177C48.64 26.2898 48.5848 26.3241 48.5356 26.3528C48.335 26.4535 48.1424 26.48 47.9473 26.5079C47.7531 26.5319 47.5604 26.5415 47.3672 26.546C46.982 26.5536 46.5984 26.534 46.2159 26.4961C45.8346 26.4569 45.452 26.4036 45.0781 26.3134C44.7041 26.2232 44.3322 26.1121 43.9742 25.9508C43.7957 25.8688 43.6213 25.7735 43.4613 25.6499C43.3813 25.5881 43.3046 25.5196 43.2372 25.4386C43.2042 25.3987 43.171 25.3563 43.1439 25.3107L43.1335 25.2935L43.1276 25.285C43.0874 25.2211 43.1469 25.1296 43.1396 25.1509C43.1455 25.1439 43.1538 25.1355 43.1598 25.1298L43.1707 25.1212C43.1779 25.1154 43.1852 25.1096 43.1901 25.1066C43.2145 25.0891 43.2354 25.077 43.2562 25.0636C43.5934 24.8675 43.9302 24.6985 44.2706 24.5254C44.6176 24.3543 44.9652 24.2051 45.3238 24.0653C45.6827 23.9281 46.051 23.8107 46.432 23.7376C46.6214 23.7037 46.8134 23.6695 47.0189 23.673C47.2205 23.6769 47.4371 23.7208 47.6155 23.8493C47.7939 23.9766 47.9092 24.1672 47.9755 24.3581C48.0118 24.4532 48.0354 24.5508 48.0552 24.6486C48.0668 24.6941 48.074 24.7659 48.0626 24.8302C48.0503 24.8984 48.0107 24.965 47.9615 25.0092C47.8592 25.0978 47.7462 25.1202 47.6443 25.1364C47.5411 25.1515 47.4405 25.1522 47.3421 25.1488C47.144 25.1407 46.952 25.1129 46.7621 25.0796C46.0066 24.9321 45.2757 24.7089 44.5582 24.4458C44.2001 24.3142 43.8463 24.1719 43.4947 24.0255C43.1443 23.8778 42.7911 23.7277 42.4519 23.5441C42.1162 23.3564 41.7792 23.1532 41.5088 22.8515C41.3775 22.701 41.2564 22.5173 41.2337 22.2917C41.2218 22.1803 41.2406 22.0651 41.2861 21.9618C41.3318 21.8597 41.4019 21.7725 41.4811 21.7013C41.5603 21.6288 41.6525 21.5745 41.7536 21.5338C41.8577 21.498 41.9464 21.4776 42.0412 21.4542C42.2284 21.4089 42.4149 21.3713 42.6029 21.3362C42.9791 21.2673 43.3562 21.2087 43.7359 21.1667C44.4949 21.0774 45.2628 21.0482 46.0283 21.0979C46.7927 21.1504 47.5614 21.2852 48.2807 21.5856L48.2845 21.5853C48.3408 21.6103 48.3668 21.674 48.3431 21.7303C48.3366 21.745 48.3273 21.7574 48.3166 21.7686C48.2292 21.8496 48.1501 21.9066 48.0605 21.9619C47.9735 22.017 47.8834 22.0658 47.7915 22.1097C47.6079 22.1974 47.4191 22.27 47.225 22.325C46.8384 22.4387 46.4408 22.499 46.0431 22.5271C45.6458 22.5589 45.2458 22.5433 44.8514 22.5181C44.4594 22.4901 44.0682 22.4568 43.677 22.4236C42.8958 22.3558 42.1175 22.2903 41.339 22.2855C40.5601 22.2756 39.7827 22.3302 39.0101 22.4271C38.6231 22.4749 38.2385 22.5354 37.8545 22.6037C37.665 22.6363 37.4654 22.6724 37.2648 22.6969C37.064 22.7175 36.8599 22.7307 36.655 22.7181C36.4494 22.7133 36.2434 22.6724 36.0425 22.6155C35.8424 22.5521 35.6484 22.4546 35.4789 22.3253C35.1308 22.0663 34.923 21.6637 34.8213 21.2652C34.7192 20.8615 34.7144 20.4485 34.7517 20.0448C34.7942 19.642 34.8811 19.2458 35.0233 18.8631C35.0972 18.667 35.1872 18.4928 35.2679 18.3155L35.5175 17.7817L36.0143 16.7156C36.3419 16.0034 36.6615 15.288 36.9586 14.5655C37.2673 13.8588 37.4184 13.0877 37.7106 12.3371C37.8562 11.9645 38.0314 11.5893 38.2998 11.2659L38.4008 11.1463C38.4377 11.1083 38.4773 11.0727 38.5142 11.0361C38.5865 10.959 38.6771 10.901 38.762 10.8358C38.8486 10.7755 38.9428 10.7289 39.0324 10.6749C39.1268 10.6309 39.2241 10.5904 39.3215 10.5513C39.7176 10.4122 40.1391 10.3757 40.5468 10.4063C40.9558 10.4367 41.352 10.5303 41.7329 10.6561C42.4973 10.9101 43.2002 11.292 43.8726 11.7101C44.5427 12.1322 45.1806 12.6022 45.7949 13.0974C46.4078 13.5915 47.0003 14.1196 47.5783 14.6437C48.1761 15.1881 48.6588 15.8236 49.0876 16.492C49.943 17.8354 50.4812 19.3512 50.8127 20.8947C51.131 22.4342 51.406 23.9811 51.8398 25.4825C52.0572 26.2318 52.3213 26.9682 52.6549 27.6717C52.9873 28.3765 53.3866 29.0474 53.8323 29.6872C53.9462 29.8457 54.0552 30.0071 54.174 30.1626L54.5302 30.6277C54.7688 30.9192 55.0611 31.1906 55.3325 31.4729C55.6076 31.7549 55.8805 32.0409 56.1333 32.348C56.2597 32.5015 56.3814 32.6606 56.491 32.8297C56.6006 32.9989 56.6996 33.1806 56.7583 33.3889C56.7863 33.4925 56.7985 33.6077 56.7787 33.7257C56.7562 33.8426 56.7076 33.9409 56.6518 34.0296C56.5403 34.2082 56.4019 34.3593 56.2575 34.4993C55.9659 34.7781 55.6409 35.012 55.3008 35.2187C54.9592 35.4243 54.5997 35.6003 54.2181 35.7278C54.0257 35.7878 53.8302 35.8416 53.626 35.869C53.423 35.895 53.2066 35.8989 52.9945 35.8313C52.8873 35.8002 52.7868 35.7401 52.6957 35.6689C52.6561 35.627 52.6116 35.5881 52.5792 35.5404C52.5494 35.4925 52.5107 35.4466 52.4908 35.394C52.4413 35.2948 52.407 35.1788 52.4034 35.0576C52.3985 34.9378 52.4324 34.8174 52.4843 34.7136C52.7018 34.2897 53.2317 34.1137 53.6723 34.2759C53.892 34.357 54.0686 34.5244 54.1846 34.7086C54.3046 34.8936 54.3794 35.0941 54.4322 35.2939C54.4877 35.4947 54.5163 35.6977 54.5292 35.8995C54.5376 35.9996 54.5422 36.1013 54.5417 36.2034C54.5464 36.3064 54.5378 36.404 54.533 36.5013C54.513 36.8945 54.489 37.2867 54.4766 37.6792L54.4548 38.2677C54.4519 38.4656 54.4346 38.6596 54.475 38.8345C54.4988 38.9191 54.5256 39.0073 54.5792 39.0623C54.6305 39.12 54.6945 39.1457 54.7642 39.1295C54.8326 39.1147 54.9045 39.0635 54.9554 38.9934C55.0119 38.9279 55.0512 38.8432 55.0855 38.759C55.1157 38.6725 55.1404 38.5825 55.1546 38.4896C55.1727 38.3976 55.177 38.3094 55.1572 38.2271C55.1388 38.1459 55.0969 38.0771 55.031 38.0296C54.9663 37.9807 54.8815 37.9542 54.794 37.9422C54.6154 37.9196 54.4286 37.9546 54.2462 38.0112C54.0651 38.0676 53.8885 38.147 53.7193 38.2374C53.3811 38.4207 53.0585 38.653 52.7018 38.8314C52.5235 38.9213 52.3376 38.9975 52.1463 39.0548C51.9575 39.112 51.7669 39.1628 51.5732 39.2074C51.1883 39.2964 50.6444 39.2531 50.2497 39.286L50.2995 39.2369C50.7886 39.6393 51.4467 40.0565 51.989 40.3859C52.2607 40.5493 52.5393 40.7017 52.8276 40.8314C53.1155 40.9573 53.4152 41.0692 53.7214 41.1056C53.8738 41.1226 54.0304 41.1276 54.1741 41.0872C54.3193 41.0492 54.4442 40.969 54.5405 40.855C54.6369 40.7423 54.6975 40.6029 54.6984 40.4581C54.6966 40.3135 54.6394 40.1697 54.5556 40.0462C54.3838 39.797 54.1155 39.6127 53.8294 39.5086C53.6844 39.4574 53.5324 39.4288 53.3831 39.4335C53.2337 39.4369 53.0864 39.4815 52.9698 39.5688C52.8519 39.6549 52.7697 39.7832 52.7195 39.9244C52.6681 40.0656 52.6475 40.2211 52.6462 40.375C52.6423 40.529 52.6591 40.684 52.6913 40.8376C52.7208 40.9902 52.7683 41.1413 52.8206 41.2894C53.0391 41.881 53.3737 42.4268 53.6885 42.9819C53.8459 43.2595 54.0047 43.5395 54.1426 43.8304C54.2804 44.1212 54.4037 44.4236 54.4719 44.7448C54.5423 45.0632 54.5454 45.4093 54.4456 45.7277C54.3495 46.0458 54.1787 46.3327 53.9767 46.5873C53.5676 47.097 53.0408 47.4937 52.4743 47.8033C51.9065 48.1118 51.2916 48.335 50.6565 48.4552C50.0226 48.5753 49.3582 48.5921 48.723 48.4642C48.0878 48.3519 47.4675 48.1711 46.8675 47.9396C45.6661 47.4753 44.5526 46.8266 43.4678 46.1523L41.8472 45.1325C41.3054 44.7953 40.7613 44.4609 40.224 44.1142C39.1506 43.4209 38.0962 42.6768 37.1791 41.7702C37.065 41.6556 36.9499 41.5438 36.8431 41.4235C36.7338 41.3047 36.6246 41.1872 36.5238 41.0613L36.3689 40.8752C36.3184 40.8122 36.2727 40.7437 36.2234 40.6781C36.1222 40.5482 36.0469 40.4034 35.9616 40.2632C35.8122 39.9733 35.6774 39.6719 35.6017 39.3526C35.5512 39.1966 35.5361 39.0312 35.5034 38.8711C35.4936 38.7078 35.4671 38.5447 35.4778 38.3797C35.4758 37.7222 35.6903 37.0608 36.09 36.5325C36.2011 36.4095 36.2982 36.2748 36.4276 36.171C36.4901 36.1166 36.5485 36.0588 36.614 36.0081L36.8164 35.8672L36.9176 35.7967L37.0249 35.7373L37.2395 35.6186L37.4636 35.5198C37.5381 35.4852 37.6129 35.4544 37.691 35.431L37.9231 35.3522L38.1607 35.2923C38.3182 35.2469 38.4808 35.232 38.6409 35.2018C38.9646 35.1683 39.2906 35.1476 39.6137 35.1697C40.2626 35.1982 40.8993 35.344 41.5112 35.5487C42.1223 35.7587 42.7085 36.0405 43.2515 36.3931C43.7932 36.7458 44.2883 37.1735 44.7159 37.6585C45.574 38.6321 46.1671 39.801 46.627 40.9966C47.0759 42.1995 47.4702 43.4134 47.8409 44.6384C48.209 45.8635 48.5395 47.1009 48.8243 48.3485C48.8364 48.4005 48.806 48.4534 48.7543 48.4681L48.753 48.4682C48.3602 48.585 47.969 48.7365 47.5892 48.9013C47.2095 49.0674 46.8366 49.2536 46.483 49.4692C46.1292 49.6822 45.7864 49.9189 45.4844 50.1974L45.3691 50.3C45.3307 50.3342 45.2979 50.3745 45.2623 50.411C45.1937 50.4865 45.1198 50.5586 45.054 50.6364L44.8691 50.8793C44.8363 50.9182 44.8102 50.9617 44.7855 51.0064L44.7088 51.1382L44.6321 51.2699L44.5664 51.4111C44.524 51.5051 44.4763 51.5982 44.4378 51.6944L44.3199 51.9821L44.2127 52.274C44.0764 52.6666 43.9681 53.0684 43.8651 53.4737C43.7622 53.879 43.661 54.2892 43.5296 54.693C43.3994 55.0967 43.2362 55.4915 43.0419 55.8682C42.9482 56.0595 42.8355 56.2395 42.7308 56.4227C42.6218 56.601 42.5141 56.7793 42.4106 56.9611C42.202 57.3222 42.0055 57.6888 41.8411 58.0682C41.6766 58.4476 41.5442 58.8398 41.4579 59.2437C41.3691 59.6477 41.3171 60.0604 41.2796 60.4757C41.2406 60.8898 41.2241 61.3099 41.1805 61.7309C41.1394 62.1503 41.0828 62.5698 41.0053 62.9859C40.8488 63.8156 40.6158 64.6413 40.2144 65.3971C40.1876 65.4471 40.1272 65.4651 40.0772 65.4383C40.0489 65.4238 40.0312 65.3969 40.025 65.369L40.0247 65.3651C39.9629 65.0434 39.8724 64.7163 39.7773 64.3961C39.6807 64.0746 39.5729 63.7567 39.4588 63.4407C39.2292 62.8086 38.9708 62.1867 38.6925 61.5743C38.1262 60.3553 37.5048 59.141 37.0966 57.8378C36.8976 57.1864 36.7568 56.5043 36.7752 55.8128C36.7826 55.4697 36.8209 55.1241 36.8999 54.7881C36.9778 54.4534 37.0824 54.1306 37.1676 53.807C37.2543 53.4844 37.3213 53.1597 37.3289 52.8335C37.3351 52.506 37.2934 52.1762 37.2337 51.8478C37.1132 51.1924 36.9279 50.5192 36.9815 49.817L37.04 49.3121C37.0649 49.1472 37.0601 48.9809 37.0708 48.8159C37.0737 48.6503 37.0638 48.4845 37.0563 48.3184L37.0292 48.0713L37.0163 47.947L36.9945 47.8248C36.8842 47.1686 36.6648 46.5344 36.3892 45.923C36.116 45.3101 35.7992 44.7151 35.4909 44.1129C35.3379 43.8104 35.1825 43.5107 35.0404 43.1995C34.8996 42.8895 34.7713 42.5734 34.6567 42.2522C34.201 40.9671 33.942 39.6269 33.7626 38.2826C33.6791 37.6073 33.6345 36.934 33.5492 36.268C33.4652 35.6031 33.3339 34.9422 33.0889 34.3256C32.5643 33.0967 31.8668 31.9301 31.0492 30.8691C30.2268 29.8136 29.2682 28.8419 28.1244 28.1558C27.5478 27.8176 26.9476 27.5072 26.3245 27.2763C26.012 27.1654 25.6917 27.0694 25.3686 27.0331C25.0466 26.9928 24.7154 27.014 24.4336 27.1474C24.1477 27.2772 23.9435 27.5359 23.8103 27.8261C23.6828 28.1223 23.6144 28.4472 23.5812 28.7755C23.5507 29.105 23.5475 29.4373 23.5776 29.7669C23.6077 30.0964 23.6774 30.4214 23.7748 30.7376C23.9659 31.3728 24.295 31.9604 24.6929 32.4918C25.0959 33.0215 25.5799 33.4863 26.09 33.9243C26.599 34.3638 27.1285 34.786 27.6289 35.2468C27.8792 35.4779 28.1212 35.7186 28.3477 35.9737C28.5767 36.2284 28.7818 36.5059 28.9764 36.7804C29.1722 37.0548 29.3654 37.3293 29.5858 37.5732C29.8048 37.8159 30.0587 38.0286 30.3549 38.1292C30.6502 38.235 30.9779 38.1883 31.2768 38.0754C31.5791 37.9559 31.8591 37.7852 32.0334 37.5239C32.3944 37.0105 32.2246 36.2132 31.7247 35.8518C31.6012 35.7639 31.4575 35.7113 31.3119 35.7144C31.1688 35.7161 31.0213 35.7723 30.9209 35.8686C30.8181 35.9663 30.7539 36.1086 30.7202 36.2613C30.6852 36.4141 30.6743 36.5778 30.675 36.7406C30.6888 37.3997 30.8384 38.063 30.9722 38.7224C31.041 39.0526 31.1113 39.384 31.1715 39.7187C31.23 40.064 31.2185 40.4358 31.0902 40.7695C30.97 41.1065 30.763 41.3938 30.5543 41.6606C30.3445 41.9288 30.1191 42.1815 29.9394 42.4549C29.758 42.7246 29.6273 43.0288 29.5337 43.3455C29.4416 43.6633 29.3813 43.9926 29.3264 44.3241C29.2164 44.9845 29.1399 45.6757 28.8553 46.3158C28.7151 46.6299 28.5244 46.9417 28.2586 47.1745C27.9985 47.412 27.695 47.595 27.3773 47.7301C26.7394 48.003 26.0578 48.1232 25.3821 48.19C24.7037 48.2557 24.0242 48.2621 23.348 48.2462L22.3351 48.2158C21.9946 48.2016 21.649 48.1736 21.314 48.1021C20.9779 48.0332 20.6468 47.9459 20.326 47.8293C20.0032 47.718 19.6887 47.5827 19.382 47.4339C18.7687 47.135 18.1865 46.7766 17.6392 46.3727C17.0907 45.9701 16.5735 45.5249 16.0932 45.043C15.6118 44.5625 15.166 44.0454 14.7664 43.4935C14.3643 42.9431 14.0132 42.3548 13.7278 41.7339C13.5894 41.4211 13.4647 41.102 13.3674 40.7716C13.2729 40.4436 13.1936 40.1117 13.1295 39.7772C13.0679 39.4412 13.0215 39.1027 12.9906 38.7629C12.9635 38.4227 12.9517 38.0813 12.958 37.7397C12.9682 37.3977 12.9952 37.0569 13.0418 36.7184C13.0922 36.3795 13.1622 36.0442 13.252 35.7137C13.4462 35.0566 13.693 34.4274 13.9345 33.7961C14.4231 32.5394 14.9071 31.2741 15.0524 29.9388C15.2144 28.6035 15.2474 27.2531 15.1931 25.9074C15.1665 25.2338 15.1194 24.562 15.0556 23.8903L14.9533 22.8819C14.9185 22.5424 14.9093 22.2008 14.9092 21.8597C14.9232 21.1776 15.0014 20.4914 15.1928 19.832L15.2664 19.5855C15.2932 19.5044 15.3239 19.4244 15.3532 19.3431C15.408 19.1796 15.4829 19.026 15.551 18.8679C15.702 18.5594 15.8663 18.2562 16.0716 17.9794C16.266 17.6957 16.4988 17.4398 16.7404 17.1961C16.9826 16.96 17.2276 16.7264 17.4741 16.4952C17.9671 16.0328 18.4714 15.5811 18.9772 15.1331C19.4816 14.684 19.9892 14.241 20.4768 13.7765C20.7222 13.5467 20.9577 13.3074 21.1917 13.0656C21.4242 12.8213 21.6395 12.5721 21.871 12.3163C22.3348 11.8124 22.8697 11.3736 23.4615 11.027C24.0518 10.6792 24.6938 10.4253 25.3525 10.2476C25.4068 10.2327 25.4624 10.2655 25.4772 10.3186C25.492 10.3729 25.4593 10.4286 25.4063 10.4434C24.761 10.6123 24.1349 10.8558 23.5576 11.1895C22.9802 11.522 22.4556 11.9457 21.9996 12.4347C21.7749 12.6796 21.5503 12.9413 21.3177 13.1843C21.0812 13.4275 20.8433 13.6684 20.5968 13.8996C20.1054 14.3657 19.5967 14.81 19.0908 15.258C18.5849 15.7047 18.0818 16.1537 17.5899 16.6147C17.1025 17.0818 16.587 17.5228 16.2084 18.0726C16.0102 18.3411 15.849 18.6362 15.7011 18.9354C15.6353 19.0895 15.5613 19.2391 15.5088 19.3986C15.4806 19.4772 15.4496 19.5547 15.424 19.6344L15.3525 19.8755C15.165 20.5191 15.0869 21.1911 15.072 21.8616C15.0571 22.5334 15.1567 23.2009 15.2208 23.8752C15.2873 24.548 15.3347 25.2237 15.3642 25.9008C15.4216 27.2527 15.3919 28.6119 15.2322 29.96C15.1597 30.6366 15.0012 31.3037 14.8037 31.952C14.6051 32.6017 14.3638 33.2356 14.1249 33.8667C13.8886 34.4976 13.6434 35.1306 13.4633 35.771C13.3792 36.0933 13.3162 36.4202 13.2702 36.7497C13.2281 37.0801 13.2056 37.4128 13.1998 37.7453C13.1966 38.0777 13.2128 38.411 13.2417 38.7419C13.2746 39.0738 13.3241 39.403 13.3874 39.7285C13.4521 40.0552 13.5383 40.3775 13.6344 40.6938C13.7329 41.0073 13.8578 41.3134 13.9963 41.6119C14.5757 42.8014 15.4221 43.8522 16.3851 44.7525C16.8667 45.2045 17.3801 45.6191 17.9197 45.9926C18.4581 46.3676 19.026 46.6936 19.6147 46.9597C20.2 47.2312 20.8097 47.44 21.4257 47.554L21.6562 47.5954L21.8869 47.6227C21.964 47.6343 22.0403 47.637 22.1181 47.6408C22.1971 47.6446 22.2674 47.6516 22.3552 47.652L23.3626 47.679C24.0272 47.6959 24.6862 47.6912 25.3315 47.6309C25.9743 47.5707 26.6085 47.4557 27.1617 47.2196C27.4385 47.1034 27.6865 46.9522 27.8904 46.7672C28.1012 46.5868 28.2375 46.3648 28.3645 46.0932C28.6114 45.5583 28.6968 44.9116 28.812 44.2366C28.8702 43.8983 28.9352 43.5492 29.0413 43.1967C29.1474 42.8454 29.301 42.4902 29.5221 42.1706C29.737 41.8555 29.9655 41.609 30.1699 41.3529C30.3734 41.1008 30.5492 40.8574 30.6415 40.6029C30.7431 40.3515 30.7554 40.0817 30.7136 39.7983C30.6609 39.4758 30.5932 39.1443 30.5294 38.8136C30.4643 38.4818 30.3989 38.1462 30.3457 37.8031C30.2938 37.4598 30.2479 37.1109 30.248 36.7414C30.2493 36.5565 30.2616 36.3642 30.3106 36.1624C30.3319 36.0625 30.371 35.9584 30.4204 35.8548C30.475 35.752 30.5413 35.6496 30.636 35.5629C30.7283 35.4776 30.8397 35.4063 30.9539 35.3671C31.0663 35.3228 31.1871 35.3011 31.3083 35.3C31.4305 35.2962 31.5501 35.3224 31.6615 35.3583C31.7707 35.3983 31.8719 35.4519 31.9612 35.5168C32.3148 35.7793 32.5127 36.1555 32.5897 36.5523C32.6678 36.9476 32.5887 37.3909 32.3501 37.7313C32.2326 37.9013 32.0832 38.043 31.9195 38.1536C31.8391 38.2107 31.7527 38.2579 31.6684 38.2986L31.4119 38.4104C31.323 38.4424 31.2282 38.4658 31.1362 38.4929C31.0442 38.5187 30.9412 38.5221 30.8444 38.5367C30.7457 38.5449 30.6428 38.5328 30.5431 38.5295C30.4446 38.508 30.3439 38.4919 30.2494 38.4584C29.8666 38.3237 29.5762 38.0611 29.3399 37.7953C29.1031 37.5257 28.909 37.2408 28.7168 36.9636C28.5258 36.6849 28.3361 36.4217 28.1192 36.1736C27.9048 35.9241 27.6734 35.6876 27.4311 35.4584C26.9476 35.0001 26.422 34.5775 25.9109 34.1279C25.3988 33.6823 24.9016 33.1979 24.4875 32.6433C24.0773 32.0884 23.7392 31.4706 23.5428 30.8035C23.4441 30.4706 23.3742 30.1289 23.344 29.7825C23.3151 29.4361 23.321 29.0893 23.3555 28.7453C23.3939 28.4023 23.467 28.0563 23.6112 27.729C23.6881 27.5676 23.7822 27.4124 23.9037 27.2756C24.0239 27.139 24.1771 27.0267 24.3423 26.9496C24.6764 26.7937 25.0463 26.7732 25.3935 26.8049C25.7444 26.835 26.0828 26.9166 26.416 27.0128C26.7492 27.109 27.073 27.2319 27.39 27.3656C27.7096 27.4991 28.0147 27.6455 28.317 27.8192C28.6218 27.9928 28.9118 28.1895 29.1829 28.4072C29.3196 28.5146 29.4563 28.6221 29.5848 28.7393C29.7155 28.8524 29.8465 28.9681 29.9689 29.0896C30.4683 29.5687 30.9245 30.0874 31.343 30.6326C31.7614 31.1778 32.1446 31.7492 32.4908 32.3405C32.8397 32.9342 33.1447 33.5418 33.4104 34.1889C33.6655 34.8486 33.7929 35.5395 33.8714 36.2178C33.9515 36.8985 33.9886 37.5737 34.0633 38.2368C34.2258 39.5644 34.4658 40.8933 34.8991 42.157C35.008 42.4722 35.1295 42.7838 35.2646 43.0878C35.3984 43.3919 35.5539 43.6929 35.7029 43.9944C36.006 44.5957 36.322 45.196 36.5962 45.8217C36.8726 46.4434 37.0964 47.0992 37.2062 47.78L37.2285 47.9073L37.2417 48.0354L37.2683 48.2916C37.2749 48.4629 37.2841 48.6353 37.2804 48.8075C37.2689 48.979 37.2718 49.1519 37.246 49.322L37.1859 49.8232C37.1323 50.4789 37.3096 51.1347 37.4324 51.8015C37.4926 52.1363 37.5368 52.4801 37.5298 52.8283C37.5203 53.178 37.4494 53.5185 37.3594 53.8478C37.2708 54.1769 37.1673 54.4983 37.0911 54.8212C37.0134 55.1429 36.9777 55.4728 36.9695 55.8069C36.9516 56.4725 37.0853 57.1319 37.2795 57.7721C37.4787 58.4118 37.7335 59.0366 38.0068 59.6521C38.279 60.2689 38.5809 60.8717 38.8609 61.4891C39.1409 62.1066 39.3996 62.7324 39.6297 63.3708C39.7441 63.6895 39.8535 64.0111 39.9503 64.3364C40.0473 64.6629 40.1364 64.9876 40.2008 65.3272L40.0648 65.3049C40.4553 64.5733 40.687 63.7632 40.8419 62.9453C40.9187 62.5357 40.9757 62.1214 41.0171 61.7057C41.0599 61.2913 41.0778 60.8724 41.1163 60.4519C41.1535 60.0327 41.2063 59.6135 41.2955 59.1991C41.3835 58.7847 41.5188 58.3806 41.6876 57.9918C41.8551 57.6031 42.055 57.2311 42.2646 56.866C42.4726 56.4985 42.7041 56.1497 42.89 55.7801C43.0799 55.4115 43.2374 55.0262 43.3656 54.6305C43.4939 54.2347 43.5928 53.8285 43.6956 53.4219C43.8973 52.6079 44.1426 51.7902 44.5511 51.0415L44.6323 50.9017C44.658 50.8543 44.6864 50.808 44.7203 50.7664L44.9144 50.5099C44.9824 50.4279 45.0587 50.3531 45.1308 50.2734C45.1676 50.2355 45.2028 50.1937 45.2425 50.1581L45.3613 50.0513C45.6739 49.7616 46.0252 49.5191 46.3876 49.3002C46.7485 49.0788 47.1275 48.8895 47.5147 48.7202C47.9018 48.5509 48.2943 48.3992 48.7035 48.2772L48.639 48.386C48.3533 47.1436 48.022 45.9114 47.6529 44.6902C47.2815 43.4718 46.8893 42.2525 46.4228 41.0705C45.9443 39.8984 45.3266 38.7755 44.4813 37.8628C43.6398 36.9486 42.5733 36.2766 41.4035 35.8652C40.82 35.662 40.2142 35.5149 39.6001 35.4706C39.2931 35.4406 38.9859 35.4547 38.6794 35.4777C38.5279 35.502 38.3739 35.5122 38.225 35.5518L38.0008 35.6028L37.7808 35.6716C37.7063 35.692 37.6351 35.72 37.5641 35.7504L37.3508 35.838L37.1467 35.9442L37.044 35.9967L36.9487 36.0603L36.7579 36.186C36.6971 36.2312 36.6409 36.2837 36.583 36.3324C36.4604 36.4254 36.3689 36.5493 36.2646 36.6601C36.218 36.7208 36.1769 36.785 36.1332 36.8481L36.0675 36.9427L36.014 37.0441C35.9798 37.1128 35.9415 37.1793 35.9099 37.2492L35.8286 37.4653C35.7369 37.7585 35.6773 38.0645 35.6814 38.3756C35.6698 38.5303 35.6956 38.6845 35.7059 38.8387C35.7379 38.9911 35.7535 39.1461 35.802 39.2945C35.875 39.5972 36.0058 39.8809 36.1488 40.1558C36.2307 40.2872 36.303 40.4259 36.3995 40.547C36.446 40.6091 36.4887 40.6727 36.5389 40.7331L36.6921 40.9141C36.7914 41.0363 36.9003 41.1513 37.0067 41.2664C37.112 41.3843 37.2257 41.4936 37.3382 41.6044C38.2442 42.4875 39.2999 43.2004 40.3755 43.8729C40.9145 44.209 41.4629 44.5328 42.0116 44.8616L43.6481 45.8543C44.7318 46.5157 45.8321 47.1448 46.9993 47.5861C47.5827 47.8049 48.1762 47.9892 48.7853 48.0972C49.384 48.2217 49.9881 48.2087 50.5894 48.1003C51.1883 47.9934 51.7754 47.7932 52.3169 47.509C52.857 47.2248 53.3591 46.856 53.7413 46.3951C53.9299 46.1661 54.0866 45.9101 54.1724 45.6394C54.2622 45.3709 54.2654 45.0851 54.2076 44.794C54.1523 44.5027 54.0405 44.2149 53.9099 43.9338C53.7792 43.6514 53.6284 43.3746 53.4735 43.0968C53.1664 42.5397 52.8322 41.9836 52.6096 41.3587C52.5023 41.0472 52.4165 40.7146 52.4261 40.3662C52.4285 40.1942 52.4513 40.0191 52.5144 39.8472C52.575 39.6767 52.6821 39.5075 52.8404 39.3935C52.9972 39.2784 53.1899 39.2222 53.3717 39.22C53.5545 39.215 53.7304 39.2507 53.894 39.3094C54.2202 39.4295 54.5157 39.6309 54.7212 39.9277C54.8213 40.0757 54.8959 40.2581 54.898 40.4543C54.8978 40.6521 54.8118 40.8427 54.6917 40.9807C54.5745 41.1222 54.4004 41.2324 54.2222 41.277C54.043 41.3256 53.8644 41.3185 53.695 41.2991C53.3547 41.2564 53.044 41.1364 52.7453 41.005C52.4476 40.8709 52.1634 40.7125 51.8875 40.5456C51.3367 40.2078 50.8163 39.8326 50.3149 39.421C50.2609 39.3777 50.1287 39.2532 50.1732 39.1991C50.1954 39.1714 50.3113 39.1599 50.3446 39.1571L50.4031 39.1522C50.7875 39.1201 51.1519 39.1069 51.5291 39.0198C51.7178 38.9769 51.9046 38.9264 52.0896 38.8709C52.2722 38.8169 52.4456 38.7456 52.6153 38.6603C52.9571 38.4897 53.2737 38.263 53.6277 38.068C53.8056 37.973 53.9909 37.8891 54.1871 37.8287C54.3808 37.7686 54.594 37.725 54.8144 37.7531C54.9239 37.7672 55.0391 37.8015 55.1381 37.8747C55.2383 37.9464 55.31 38.0632 55.3352 38.1799C55.363 38.2965 55.3547 38.4135 55.3348 38.5146C55.3189 38.618 55.2925 38.7197 55.2557 38.8197C55.2162 38.9186 55.1691 39.0182 55.0964 39.1056C55.0289 39.194 54.9312 39.2758 54.7996 39.3061C54.7682 39.3165 54.7334 39.3168 54.6983 39.3146C54.6815 39.3134 54.6633 39.3124 54.6463 39.3099L54.5972 39.2933L54.5491 39.2741C54.5355 39.2649 54.5218 39.2557 54.508 39.2452C54.4818 39.2254 54.4531 39.2059 54.4368 39.1801C54.3501 39.0853 54.3203 38.9753 54.2896 38.8707C54.2787 38.8173 54.2731 38.7648 54.2648 38.7125C54.2604 38.6599 54.2613 38.6082 54.2594 38.5553C54.2585 38.452 54.2635 38.3573 54.2656 38.2589L54.2785 37.6712L54.3041 36.4946C54.3062 36.3962 54.3109 36.2976 54.303 36.204C54.3002 36.1086 54.2936 36.0135 54.2818 35.9189C54.2633 35.7279 54.2295 35.5395 54.177 35.3591C54.1258 35.1786 54.0544 35.0037 53.9528 34.8533C53.8513 34.7041 53.7195 34.5781 53.5629 34.5111C53.4065 34.4454 53.2277 34.437 53.0674 34.4956C52.9068 34.5504 52.7683 34.6679 52.6954 34.8149C52.6199 34.962 52.625 35.1308 52.6999 35.2861C52.7336 35.3647 52.7855 35.4301 52.8433 35.4886C52.9082 35.54 52.9778 35.5859 53.06 35.6113C53.2234 35.6675 53.4109 35.6725 53.595 35.6519C53.7804 35.6313 53.9663 35.586 54.1473 35.5283C54.5101 35.4075 54.8599 35.2388 55.1917 35.0405C55.5222 34.841 55.8387 34.6143 56.1161 34.3508C56.2535 34.2192 56.3835 34.0766 56.4815 33.9211C56.5305 33.8433 56.5688 33.7613 56.5853 33.6811C56.5994 33.6024 56.5933 33.5138 56.5693 33.4279C56.5212 33.2536 56.4321 33.0827 56.3284 32.9221C56.2246 32.7615 56.1071 32.606 55.9849 32.456C55.7392 32.156 55.4702 31.871 55.1977 31.5901C54.9263 31.3066 54.6397 31.0424 54.3839 30.7291L54.0259 30.2589C53.9057 30.1023 53.7965 29.9383 53.6812 29.7786C53.2299 29.1328 52.8184 28.4552 52.4788 27.7419C52.3906 27.5658 52.3121 27.3837 52.235 27.2015C52.1528 27.021 52.087 26.8353 52.0124 26.6529C51.9775 26.5602 51.9365 26.4706 51.9004 26.378C51.8643 26.2854 51.8283 26.1941 51.7884 26.1031C51.7074 25.9212 51.6364 25.7359 51.5642 25.5507C51.4894 25.3657 51.4247 25.1786 51.3675 24.9883C51.3092 24.7993 51.2583 24.6072 51.2164 24.4143C51.1248 24.0291 51.05 23.6426 50.984 23.254C50.8482 22.4785 50.7569 21.694 50.6189 20.9226C50.5797 20.7307 50.5455 20.5385 50.5026 20.3483C50.4557 20.1583 50.3787 19.9774 50.3142 19.7929C50.2536 19.608 50.1892 19.4234 50.1224 19.2417C50.0542 19.0587 49.9949 18.8737 49.9181 18.6954C49.6356 17.9709 49.2844 17.2727 48.8634 16.6205C48.4428 15.9721 47.9587 15.351 47.3911 14.8428C46.8013 14.3171 46.2179 13.805 45.6044 13.3188C44.9935 12.8336 44.364 12.3719 43.7051 11.9605C43.0452 11.553 42.3576 11.1841 41.6294 10.9464C41.2659 10.8282 40.8935 10.7417 40.5198 10.7161C40.1459 10.6892 39.7709 10.7256 39.4262 10.8475C39.3414 10.883 39.2579 10.9184 39.1747 10.9563C39.0972 11.0029 39.0129 11.0435 38.9398 11.0948C38.8695 11.1498 38.7922 11.1976 38.7306 11.2635C38.6984 11.2946 38.6647 11.3245 38.6326 11.3569L38.5445 11.4612C38.3086 11.7419 38.1427 12.0878 38.0033 12.4432C37.7221 13.1553 37.5643 13.9386 37.2425 14.6736C36.9407 15.4017 36.6175 16.1199 36.286 16.8324L35.7854 17.8989L35.5344 18.4315C35.4512 18.6103 35.3614 18.7858 35.297 18.9578C35.1639 19.3101 35.0806 19.6878 35.0385 20.0648C35.0016 20.4413 35.0066 20.8259 35.0973 21.1853C35.1864 21.5422 35.3628 21.8776 35.6492 22.0927C35.7911 22.201 35.9516 22.2833 36.1253 22.3398C36.301 22.3885 36.4823 22.4276 36.6698 22.4326C36.8555 22.4455 37.0454 22.4335 37.2336 22.4152C37.4214 22.3931 37.6097 22.3606 37.8056 22.3274C38.1934 22.2588 38.5834 22.2004 38.9756 22.1534C39.7588 22.0596 40.5505 22.0064 41.3401 22.0206C42.1305 22.0295 42.9169 22.0982 43.6971 22.17C44.0872 22.2059 44.4772 22.2405 44.8668 22.27C45.2548 22.2957 45.6407 22.3126 46.0254 22.2843C46.4091 22.2587 46.7915 22.2023 47.1582 22.0967C47.3423 22.0451 47.5198 21.9773 47.6912 21.8971C47.7768 21.8564 47.8596 21.812 47.9381 21.7628C48.0167 21.7162 48.0957 21.6566 48.1532 21.604L48.189 21.7858C47.5054 21.4953 46.7586 21.36 46.0108 21.3061C45.2619 21.2537 44.5053 21.2794 43.7563 21.3639C43.3814 21.403 43.0083 21.4626 42.6372 21.5298C42.4517 21.5646 42.2677 21.602 42.0855 21.6456C41.997 21.6672 41.8996 21.6909 41.8244 21.7165C41.7495 21.7473 41.6757 21.791 41.6146 21.8465C41.4896 21.9564 41.4158 22.1086 41.434 22.2647C41.4472 22.4225 41.5426 22.576 41.6595 22.7084C41.8985 22.9753 42.2211 23.1758 42.5459 23.3567C42.8743 23.5347 43.2208 23.6815 43.5712 23.8292C43.9202 23.9758 44.2713 24.1157 44.6266 24.245C45.3348 24.505 46.0615 24.7247 46.7961 24.8687C46.9795 24.9012 47.165 24.9284 47.3462 24.9352C47.4368 24.938 47.527 24.9369 47.6112 24.9247C47.6954 24.9138 47.7758 24.8877 47.8178 24.8493C47.8573 24.8124 47.8654 24.7704 47.8466 24.6841C47.8275 24.5952 47.8073 24.5078 47.7759 24.4251C47.7168 24.2582 47.6232 24.111 47.4901 24.0161C47.357 23.9213 47.1861 23.8826 47.0103 23.8792C46.8344 23.8745 46.65 23.9067 46.467 23.9401C46.1025 24.0106 45.7442 24.1232 45.3942 24.2584C45.0456 24.3948 44.6958 24.548 44.3639 24.7153C44.0287 24.888 43.6871 25.0625 43.3686 25.2506C43.3502 25.2625 43.3306 25.2745 43.316 25.2847C43.3111 25.2877 43.3087 25.2905 43.3075 25.2919L43.3039 25.2948C43.3039 25.2948 43.3099 25.2891 43.3122 25.2864C43.3002 25.3119 43.3589 25.2269 43.3179 25.1683L43.3222 25.1744L43.3311 25.1879C43.3522 25.2236 43.3781 25.2563 43.4053 25.2889C43.4598 25.3541 43.5253 25.412 43.5969 25.4654C43.7387 25.5725 43.8997 25.6611 44.0672 25.7363C44.4025 25.8879 44.7645 25.9894 45.1297 26.0662C45.8613 26.2208 46.6133 26.3105 47.3614 26.3062C47.5483 26.3035 47.7347 26.2956 47.9175 26.2752C48.0977 26.2537 48.2875 26.2249 48.4289 26.1563C48.4623 26.1393 48.4876 26.1178 48.4944 26.1069C48.4989 26.0987 48.5006 26.1038 48.4894 26.0776C48.4846 26.0663 48.4719 26.0532 48.4617 26.0398L48.4184 25.9995C48.3903 25.9721 48.3535 25.9494 48.3194 25.9264C48.1728 25.8404 47.9956 25.7893 47.8173 25.7551C47.4556 25.6884 47.0772 25.6851 46.7032 25.7022C46.3278 25.7193 45.9518 25.7597 45.5781 25.8116C45.3907 25.8389 45.2048 25.8687 45.0192 25.9022L44.8808 25.9293C44.8388 25.9367 44.7912 25.9536 44.747 25.965L44.4761 26.0432C44.1195 26.1609 43.7687 26.3026 43.4392 26.4826C43.1097 26.6625 42.8016 26.8821 42.5414 27.1493C42.2811 27.4166 42.0619 27.7282 41.9326 28.0801C41.6589 28.7735 41.6994 29.5829 41.9774 30.2535L41.9806 30.261C42.0017 30.3135 41.977 30.3724 41.9258 30.3935C41.8747 30.4146 41.8146 30.3899 41.7935 30.3387C41.7933 30.3361 41.7918 30.3336 41.7917 30.3323L41.7907 30.3363Z"/>
</mask>
<path d="M41.7907 30.3363C41.6633 29.9541 41.6171 29.5704 41.6156 29.1816C41.6162 28.9877 41.6387 28.7946 41.6731 28.6031C41.7075 28.4129 41.7602 28.225 41.8355 28.0456C41.9784 27.686 42.2002 27.36 42.4659 27.0807C42.733 26.8025 43.0481 26.5734 43.3835 26.3864C43.7188 26.1995 44.0743 26.0522 44.4368 25.9276L44.7123 25.8426C44.8026 25.8118 44.9015 25.7906 44.9929 25.7726C45.1794 25.7351 45.3675 25.7 45.5559 25.6701C45.9328 25.6089 46.312 25.5604 46.6945 25.5362C47.0772 25.5146 47.4637 25.5068 47.852 25.5674C48.0457 25.6004 48.2408 25.65 48.4248 25.7522C48.4698 25.7807 48.5159 25.8079 48.5564 25.8446L48.6178 25.9002C48.6378 25.923 48.6578 25.9459 48.6758 25.9767C48.6938 26.0062 48.7085 26.0438 48.7123 26.0887C48.716 26.1336 48.7045 26.1811 48.6831 26.2177C48.64 26.2898 48.5848 26.3241 48.5356 26.3528C48.335 26.4535 48.1424 26.48 47.9473 26.5079C47.7531 26.5319 47.5604 26.5415 47.3672 26.546C46.982 26.5536 46.5984 26.534 46.2159 26.4961C45.8346 26.4569 45.452 26.4036 45.0781 26.3134C44.7041 26.2232 44.3322 26.1121 43.9742 25.9508C43.7957 25.8688 43.6213 25.7735 43.4613 25.6499C43.3813 25.5881 43.3046 25.5196 43.2372 25.4386C43.2042 25.3987 43.171 25.3563 43.1439 25.3107L43.1335 25.2935L43.1276 25.285C43.0874 25.2211 43.1469 25.1296 43.1396 25.1509C43.1455 25.1439 43.1538 25.1355 43.1598 25.1298L43.1707 25.1212C43.1779 25.1154 43.1852 25.1096 43.1901 25.1066C43.2145 25.0891 43.2354 25.077 43.2562 25.0636C43.5934 24.8675 43.9302 24.6985 44.2706 24.5254C44.6176 24.3543 44.9652 24.2051 45.3238 24.0653C45.6827 23.9281 46.051 23.8107 46.432 23.7376C46.6214 23.7037 46.8134 23.6695 47.0189 23.673C47.2205 23.6769 47.4371 23.7208 47.6155 23.8493C47.7939 23.9766 47.9092 24.1672 47.9755 24.3581C48.0118 24.4532 48.0354 24.5508 48.0552 24.6486C48.0668 24.6941 48.074 24.7659 48.0626 24.8302C48.0503 24.8984 48.0107 24.965 47.9615 25.0092C47.8592 25.0978 47.7462 25.1202 47.6443 25.1364C47.5411 25.1515 47.4405 25.1522 47.3421 25.1488C47.144 25.1407 46.952 25.1129 46.7621 25.0796C46.0066 24.9321 45.2757 24.7089 44.5582 24.4458C44.2001 24.3142 43.8463 24.1719 43.4947 24.0255C43.1443 23.8778 42.7911 23.7277 42.4519 23.5441C42.1162 23.3564 41.7792 23.1532 41.5088 22.8515C41.3775 22.701 41.2564 22.5173 41.2337 22.2917C41.2218 22.1803 41.2406 22.0651 41.2861 21.9618C41.3318 21.8597 41.4019 21.7725 41.4811 21.7013C41.5603 21.6288 41.6525 21.5745 41.7536 21.5338C41.8577 21.498 41.9464 21.4776 42.0412 21.4542C42.2284 21.4089 42.4149 21.3713 42.6029 21.3362C42.9791 21.2673 43.3562 21.2087 43.7359 21.1667C44.4949 21.0774 45.2628 21.0482 46.0283 21.0979C46.7927 21.1504 47.5614 21.2852 48.2807 21.5856L48.2845 21.5853C48.3408 21.6103 48.3668 21.674 48.3431 21.7303C48.3366 21.745 48.3273 21.7574 48.3166 21.7686C48.2292 21.8496 48.1501 21.9066 48.0605 21.9619C47.9735 22.017 47.8834 22.0658 47.7915 22.1097C47.6079 22.1974 47.4191 22.27 47.225 22.325C46.8384 22.4387 46.4408 22.499 46.0431 22.5271C45.6458 22.5589 45.2458 22.5433 44.8514 22.5181C44.4594 22.4901 44.0682 22.4568 43.677 22.4236C42.8958 22.3558 42.1175 22.2903 41.339 22.2855C40.5601 22.2756 39.7827 22.3302 39.0101 22.4271C38.6231 22.4749 38.2385 22.5354 37.8545 22.6037C37.665 22.6363 37.4654 22.6724 37.2648 22.6969C37.064 22.7175 36.8599 22.7307 36.655 22.7181C36.4494 22.7133 36.2434 22.6724 36.0425 22.6155C35.8424 22.5521 35.6484 22.4546 35.4789 22.3253C35.1308 22.0663 34.923 21.6637 34.8213 21.2652C34.7192 20.8615 34.7144 20.4485 34.7517 20.0448C34.7942 19.642 34.8811 19.2458 35.0233 18.8631C35.0972 18.667 35.1872 18.4928 35.2679 18.3155L35.5175 17.7817L36.0143 16.7156C36.3419 16.0034 36.6615 15.288 36.9586 14.5655C37.2673 13.8588 37.4184 13.0877 37.7106 12.3371C37.8562 11.9645 38.0314 11.5893 38.2998 11.2659L38.4008 11.1463C38.4377 11.1083 38.4773 11.0727 38.5142 11.0361C38.5865 10.959 38.6771 10.901 38.762 10.8358C38.8486 10.7755 38.9428 10.7289 39.0324 10.6749C39.1268 10.6309 39.2241 10.5904 39.3215 10.5513C39.7176 10.4122 40.1391 10.3757 40.5468 10.4063C40.9558 10.4367 41.352 10.5303 41.7329 10.6561C42.4973 10.9101 43.2002 11.292 43.8726 11.7101C44.5427 12.1322 45.1806 12.6022 45.7949 13.0974C46.4078 13.5915 47.0003 14.1196 47.5783 14.6437C48.1761 15.1881 48.6588 15.8236 49.0876 16.492C49.943 17.8354 50.4812 19.3512 50.8127 20.8947C51.131 22.4342 51.406 23.9811 51.8398 25.4825C52.0572 26.2318 52.3213 26.9682 52.6549 27.6717C52.9873 28.3765 53.3866 29.0474 53.8323 29.6872C53.9462 29.8457 54.0552 30.0071 54.174 30.1626L54.5302 30.6277C54.7688 30.9192 55.0611 31.1906 55.3325 31.4729C55.6076 31.7549 55.8805 32.0409 56.1333 32.348C56.2597 32.5015 56.3814 32.6606 56.491 32.8297C56.6006 32.9989 56.6996 33.1806 56.7583 33.3889C56.7863 33.4925 56.7985 33.6077 56.7787 33.7257C56.7562 33.8426 56.7076 33.9409 56.6518 34.0296C56.5403 34.2082 56.4019 34.3593 56.2575 34.4993C55.9659 34.7781 55.6409 35.012 55.3008 35.2187C54.9592 35.4243 54.5997 35.6003 54.2181 35.7278C54.0257 35.7878 53.8302 35.8416 53.626 35.869C53.423 35.895 53.2066 35.8989 52.9945 35.8313C52.8873 35.8002 52.7868 35.7401 52.6957 35.6689C52.6561 35.627 52.6116 35.5881 52.5792 35.5404C52.5494 35.4925 52.5107 35.4466 52.4908 35.394C52.4413 35.2948 52.407 35.1788 52.4034 35.0576C52.3985 34.9378 52.4324 34.8174 52.4843 34.7136C52.7018 34.2897 53.2317 34.1137 53.6723 34.2759C53.892 34.357 54.0686 34.5244 54.1846 34.7086C54.3046 34.8936 54.3794 35.0941 54.4322 35.2939C54.4877 35.4947 54.5163 35.6977 54.5292 35.8995C54.5376 35.9996 54.5422 36.1013 54.5417 36.2034C54.5464 36.3064 54.5378 36.404 54.533 36.5013C54.513 36.8945 54.489 37.2867 54.4766 37.6792L54.4548 38.2677C54.4519 38.4656 54.4346 38.6596 54.475 38.8345C54.4988 38.9191 54.5256 39.0073 54.5792 39.0623C54.6305 39.12 54.6945 39.1457 54.7642 39.1295C54.8326 39.1147 54.9045 39.0635 54.9554 38.9934C55.0119 38.9279 55.0512 38.8432 55.0855 38.759C55.1157 38.6725 55.1404 38.5825 55.1546 38.4896C55.1727 38.3976 55.177 38.3094 55.1572 38.2271C55.1388 38.1459 55.0969 38.0771 55.031 38.0296C54.9663 37.9807 54.8815 37.9542 54.794 37.9422C54.6154 37.9196 54.4286 37.9546 54.2462 38.0112C54.0651 38.0676 53.8885 38.147 53.7193 38.2374C53.3811 38.4207 53.0585 38.653 52.7018 38.8314C52.5235 38.9213 52.3376 38.9975 52.1463 39.0548C51.9575 39.112 51.7669 39.1628 51.5732 39.2074C51.1883 39.2964 50.6444 39.2531 50.2497 39.286L50.2995 39.2369C50.7886 39.6393 51.4467 40.0565 51.989 40.3859C52.2607 40.5493 52.5393 40.7017 52.8276 40.8314C53.1155 40.9573 53.4152 41.0692 53.7214 41.1056C53.8738 41.1226 54.0304 41.1276 54.1741 41.0872C54.3193 41.0492 54.4442 40.969 54.5405 40.855C54.6369 40.7423 54.6975 40.6029 54.6984 40.4581C54.6966 40.3135 54.6394 40.1697 54.5556 40.0462C54.3838 39.797 54.1155 39.6127 53.8294 39.5086C53.6844 39.4574 53.5324 39.4288 53.3831 39.4335C53.2337 39.4369 53.0864 39.4815 52.9698 39.5688C52.8519 39.6549 52.7697 39.7832 52.7195 39.9244C52.6681 40.0656 52.6475 40.2211 52.6462 40.375C52.6423 40.529 52.6591 40.684 52.6913 40.8376C52.7208 40.9902 52.7683 41.1413 52.8206 41.2894C53.0391 41.881 53.3737 42.4268 53.6885 42.9819C53.8459 43.2595 54.0047 43.5395 54.1426 43.8304C54.2804 44.1212 54.4037 44.4236 54.4719 44.7448C54.5423 45.0632 54.5454 45.4093 54.4456 45.7277C54.3495 46.0458 54.1787 46.3327 53.9767 46.5873C53.5676 47.097 53.0408 47.4937 52.4743 47.8033C51.9065 48.1118 51.2916 48.335 50.6565 48.4552C50.0226 48.5753 49.3582 48.5921 48.723 48.4642C48.0878 48.3519 47.4675 48.1711 46.8675 47.9396C45.6661 47.4753 44.5526 46.8266 43.4678 46.1523L41.8472 45.1325C41.3054 44.7953 40.7613 44.4609 40.224 44.1142C39.1506 43.4209 38.0962 42.6768 37.1791 41.7702C37.065 41.6556 36.9499 41.5438 36.8431 41.4235C36.7338 41.3047 36.6246 41.1872 36.5238 41.0613L36.3689 40.8752C36.3184 40.8122 36.2727 40.7437 36.2234 40.6781C36.1222 40.5482 36.0469 40.4034 35.9616 40.2632C35.8122 39.9733 35.6774 39.6719 35.6017 39.3526C35.5512 39.1966 35.5361 39.0312 35.5034 38.8711C35.4936 38.7078 35.4671 38.5447 35.4778 38.3797C35.4758 37.7222 35.6903 37.0608 36.09 36.5325C36.2011 36.4095 36.2982 36.2748 36.4276 36.171C36.4901 36.1166 36.5485 36.0588 36.614 36.0081L36.8164 35.8672L36.9176 35.7967L37.0249 35.7373L37.2395 35.6186L37.4636 35.5198C37.5381 35.4852 37.6129 35.4544 37.691 35.431L37.9231 35.3522L38.1607 35.2923C38.3182 35.2469 38.4808 35.232 38.6409 35.2018C38.9646 35.1683 39.2906 35.1476 39.6137 35.1697C40.2626 35.1982 40.8993 35.344 41.5112 35.5487C42.1223 35.7587 42.7085 36.0405 43.2515 36.3931C43.7932 36.7458 44.2883 37.1735 44.7159 37.6585C45.574 38.6321 46.1671 39.801 46.627 40.9966C47.0759 42.1995 47.4702 43.4134 47.8409 44.6384C48.209 45.8635 48.5395 47.1009 48.8243 48.3485C48.8364 48.4005 48.806 48.4534 48.7543 48.4681L48.753 48.4682C48.3602 48.585 47.969 48.7365 47.5892 48.9013C47.2095 49.0674 46.8366 49.2536 46.483 49.4692C46.1292 49.6822 45.7864 49.9189 45.4844 50.1974L45.3691 50.3C45.3307 50.3342 45.2979 50.3745 45.2623 50.411C45.1937 50.4865 45.1198 50.5586 45.054 50.6364L44.8691 50.8793C44.8363 50.9182 44.8102 50.9617 44.7855 51.0064L44.7088 51.1382L44.6321 51.2699L44.5664 51.4111C44.524 51.5051 44.4763 51.5982 44.4378 51.6944L44.3199 51.9821L44.2127 52.274C44.0764 52.6666 43.9681 53.0684 43.8651 53.4737C43.7622 53.879 43.661 54.2892 43.5296 54.693C43.3994 55.0967 43.2362 55.4915 43.0419 55.8682C42.9482 56.0595 42.8355 56.2395 42.7308 56.4227C42.6218 56.601 42.5141 56.7793 42.4106 56.9611C42.202 57.3222 42.0055 57.6888 41.8411 58.0682C41.6766 58.4476 41.5442 58.8398 41.4579 59.2437C41.3691 59.6477 41.3171 60.0604 41.2796 60.4757C41.2406 60.8898 41.2241 61.3099 41.1805 61.7309C41.1394 62.1503 41.0828 62.5698 41.0053 62.9859C40.8488 63.8156 40.6158 64.6413 40.2144 65.3971C40.1876 65.4471 40.1272 65.4651 40.0772 65.4383C40.0489 65.4238 40.0312 65.3969 40.025 65.369L40.0247 65.3651C39.9629 65.0434 39.8724 64.7163 39.7773 64.3961C39.6807 64.0746 39.5729 63.7567 39.4588 63.4407C39.2292 62.8086 38.9708 62.1867 38.6925 61.5743C38.1262 60.3553 37.5048 59.141 37.0966 57.8378C36.8976 57.1864 36.7568 56.5043 36.7752 55.8128C36.7826 55.4697 36.8209 55.1241 36.8999 54.7881C36.9778 54.4534 37.0824 54.1306 37.1676 53.807C37.2543 53.4844 37.3213 53.1597 37.3289 52.8335C37.3351 52.506 37.2934 52.1762 37.2337 51.8478C37.1132 51.1924 36.9279 50.5192 36.9815 49.817L37.04 49.3121C37.0649 49.1472 37.0601 48.9809 37.0708 48.8159C37.0737 48.6503 37.0638 48.4845 37.0563 48.3184L37.0292 48.0713L37.0163 47.947L36.9945 47.8248C36.8842 47.1686 36.6648 46.5344 36.3892 45.923C36.116 45.3101 35.7992 44.7151 35.4909 44.1129C35.3379 43.8104 35.1825 43.5107 35.0404 43.1995C34.8996 42.8895 34.7713 42.5734 34.6567 42.2522C34.201 40.9671 33.942 39.6269 33.7626 38.2826C33.6791 37.6073 33.6345 36.934 33.5492 36.268C33.4652 35.6031 33.3339 34.9422 33.0889 34.3256C32.5643 33.0967 31.8668 31.9301 31.0492 30.8691C30.2268 29.8136 29.2682 28.8419 28.1244 28.1558C27.5478 27.8176 26.9476 27.5072 26.3245 27.2763C26.012 27.1654 25.6917 27.0694 25.3686 27.0331C25.0466 26.9928 24.7154 27.014 24.4336 27.1474C24.1477 27.2772 23.9435 27.5359 23.8103 27.8261C23.6828 28.1223 23.6144 28.4472 23.5812 28.7755C23.5507 29.105 23.5475 29.4373 23.5776 29.7669C23.6077 30.0964 23.6774 30.4214 23.7748 30.7376C23.9659 31.3728 24.295 31.9604 24.6929 32.4918C25.0959 33.0215 25.5799 33.4863 26.09 33.9243C26.599 34.3638 27.1285 34.786 27.6289 35.2468C27.8792 35.4779 28.1212 35.7186 28.3477 35.9737C28.5767 36.2284 28.7818 36.5059 28.9764 36.7804C29.1722 37.0548 29.3654 37.3293 29.5858 37.5732C29.8048 37.8159 30.0587 38.0286 30.3549 38.1292C30.6502 38.235 30.9779 38.1883 31.2768 38.0754C31.5791 37.9559 31.8591 37.7852 32.0334 37.5239C32.3944 37.0105 32.2246 36.2132 31.7247 35.8518C31.6012 35.7639 31.4575 35.7113 31.3119 35.7144C31.1688 35.7161 31.0213 35.7723 30.9209 35.8686C30.8181 35.9663 30.7539 36.1086 30.7202 36.2613C30.6852 36.4141 30.6743 36.5778 30.675 36.7406C30.6888 37.3997 30.8384 38.063 30.9722 38.7224C31.041 39.0526 31.1113 39.384 31.1715 39.7187C31.23 40.064 31.2185 40.4358 31.0902 40.7695C30.97 41.1065 30.763 41.3938 30.5543 41.6606C30.3445 41.9288 30.1191 42.1815 29.9394 42.4549C29.758 42.7246 29.6273 43.0288 29.5337 43.3455C29.4416 43.6633 29.3813 43.9926 29.3264 44.3241C29.2164 44.9845 29.1399 45.6757 28.8553 46.3158C28.7151 46.6299 28.5244 46.9417 28.2586 47.1745C27.9985 47.412 27.695 47.595 27.3773 47.7301C26.7394 48.003 26.0578 48.1232 25.3821 48.19C24.7037 48.2557 24.0242 48.2621 23.348 48.2462L22.3351 48.2158C21.9946 48.2016 21.649 48.1736 21.314 48.1021C20.9779 48.0332 20.6468 47.9459 20.326 47.8293C20.0032 47.718 19.6887 47.5827 19.382 47.4339C18.7687 47.135 18.1865 46.7766 17.6392 46.3727C17.0907 45.9701 16.5735 45.5249 16.0932 45.043C15.6118 44.5625 15.166 44.0454 14.7664 43.4935C14.3643 42.9431 14.0132 42.3548 13.7278 41.7339C13.5894 41.4211 13.4647 41.102 13.3674 40.7716C13.2729 40.4436 13.1936 40.1117 13.1295 39.7772C13.0679 39.4412 13.0215 39.1027 12.9906 38.7629C12.9635 38.4227 12.9517 38.0813 12.958 37.7397C12.9682 37.3977 12.9952 37.0569 13.0418 36.7184C13.0922 36.3795 13.1622 36.0442 13.252 35.7137C13.4462 35.0566 13.693 34.4274 13.9345 33.7961C14.4231 32.5394 14.9071 31.2741 15.0524 29.9388C15.2144 28.6035 15.2474 27.2531 15.1931 25.9074C15.1665 25.2338 15.1194 24.562 15.0556 23.8903L14.9533 22.8819C14.9185 22.5424 14.9093 22.2008 14.9092 21.8597C14.9232 21.1776 15.0014 20.4914 15.1928 19.832L15.2664 19.5855C15.2932 19.5044 15.3239 19.4244 15.3532 19.3431C15.408 19.1796 15.4829 19.026 15.551 18.8679C15.702 18.5594 15.8663 18.2562 16.0716 17.9794C16.266 17.6957 16.4988 17.4398 16.7404 17.1961C16.9826 16.96 17.2276 16.7264 17.4741 16.4952C17.9671 16.0328 18.4714 15.5811 18.9772 15.1331C19.4816 14.684 19.9892 14.241 20.4768 13.7765C20.7222 13.5467 20.9577 13.3074 21.1917 13.0656C21.4242 12.8213 21.6395 12.5721 21.871 12.3163C22.3348 11.8124 22.8697 11.3736 23.4615 11.027C24.0518 10.6792 24.6938 10.4253 25.3525 10.2476C25.4068 10.2327 25.4624 10.2655 25.4772 10.3186C25.492 10.3729 25.4593 10.4286 25.4063 10.4434C24.761 10.6123 24.1349 10.8558 23.5576 11.1895C22.9802 11.522 22.4556 11.9457 21.9996 12.4347C21.7749 12.6796 21.5503 12.9413 21.3177 13.1843C21.0812 13.4275 20.8433 13.6684 20.5968 13.8996C20.1054 14.3657 19.5967 14.81 19.0908 15.258C18.5849 15.7047 18.0818 16.1537 17.5899 16.6147C17.1025 17.0818 16.587 17.5228 16.2084 18.0726C16.0102 18.3411 15.849 18.6362 15.7011 18.9354C15.6353 19.0895 15.5613 19.2391 15.5088 19.3986C15.4806 19.4772 15.4496 19.5547 15.424 19.6344L15.3525 19.8755C15.165 20.5191 15.0869 21.1911 15.072 21.8616C15.0571 22.5334 15.1567 23.2009 15.2208 23.8752C15.2873 24.548 15.3347 25.2237 15.3642 25.9008C15.4216 27.2527 15.3919 28.6119 15.2322 29.96C15.1597 30.6366 15.0012 31.3037 14.8037 31.952C14.6051 32.6017 14.3638 33.2356 14.1249 33.8667C13.8886 34.4976 13.6434 35.1306 13.4633 35.771C13.3792 36.0933 13.3162 36.4202 13.2702 36.7497C13.2281 37.0801 13.2056 37.4128 13.1998 37.7453C13.1966 38.0777 13.2128 38.411 13.2417 38.7419C13.2746 39.0738 13.3241 39.403 13.3874 39.7285C13.4521 40.0552 13.5383 40.3775 13.6344 40.6938C13.7329 41.0073 13.8578 41.3134 13.9963 41.6119C14.5757 42.8014 15.4221 43.8522 16.3851 44.7525C16.8667 45.2045 17.3801 45.6191 17.9197 45.9926C18.4581 46.3676 19.026 46.6936 19.6147 46.9597C20.2 47.2312 20.8097 47.44 21.4257 47.554L21.6562 47.5954L21.8869 47.6227C21.964 47.6343 22.0403 47.637 22.1181 47.6408C22.1971 47.6446 22.2674 47.6516 22.3552 47.652L23.3626 47.679C24.0272 47.6959 24.6862 47.6912 25.3315 47.6309C25.9743 47.5707 26.6085 47.4557 27.1617 47.2196C27.4385 47.1034 27.6865 46.9522 27.8904 46.7672C28.1012 46.5868 28.2375 46.3648 28.3645 46.0932C28.6114 45.5583 28.6968 44.9116 28.812 44.2366C28.8702 43.8983 28.9352 43.5492 29.0413 43.1967C29.1474 42.8454 29.301 42.4902 29.5221 42.1706C29.737 41.8555 29.9655 41.609 30.1699 41.3529C30.3734 41.1008 30.5492 40.8574 30.6415 40.6029C30.7431 40.3515 30.7554 40.0817 30.7136 39.7983C30.6609 39.4758 30.5932 39.1443 30.5294 38.8136C30.4643 38.4818 30.3989 38.1462 30.3457 37.8031C30.2938 37.4598 30.2479 37.1109 30.248 36.7414C30.2493 36.5565 30.2616 36.3642 30.3106 36.1624C30.3319 36.0625 30.371 35.9584 30.4204 35.8548C30.475 35.752 30.5413 35.6496 30.636 35.5629C30.7283 35.4776 30.8397 35.4063 30.9539 35.3671C31.0663 35.3228 31.1871 35.3011 31.3083 35.3C31.4305 35.2962 31.5501 35.3224 31.6615 35.3583C31.7707 35.3983 31.8719 35.4519 31.9612 35.5168C32.3148 35.7793 32.5127 36.1555 32.5897 36.5523C32.6678 36.9476 32.5887 37.3909 32.3501 37.7313C32.2326 37.9013 32.0832 38.043 31.9195 38.1536C31.8391 38.2107 31.7527 38.2579 31.6684 38.2986L31.4119 38.4104C31.323 38.4424 31.2282 38.4658 31.1362 38.4929C31.0442 38.5187 30.9412 38.5221 30.8444 38.5367C30.7457 38.5449 30.6428 38.5328 30.5431 38.5295C30.4446 38.508 30.3439 38.4919 30.2494 38.4584C29.8666 38.3237 29.5762 38.0611 29.3399 37.7953C29.1031 37.5257 28.909 37.2408 28.7168 36.9636C28.5258 36.6849 28.3361 36.4217 28.1192 36.1736C27.9048 35.9241 27.6734 35.6876 27.4311 35.4584C26.9476 35.0001 26.422 34.5775 25.9109 34.1279C25.3988 33.6823 24.9016 33.1979 24.4875 32.6433C24.0773 32.0884 23.7392 31.4706 23.5428 30.8035C23.4441 30.4706 23.3742 30.1289 23.344 29.7825C23.3151 29.4361 23.321 29.0893 23.3555 28.7453C23.3939 28.4023 23.467 28.0563 23.6112 27.729C23.6881 27.5676 23.7822 27.4124 23.9037 27.2756C24.0239 27.139 24.1771 27.0267 24.3423 26.9496C24.6764 26.7937 25.0463 26.7732 25.3935 26.8049C25.7444 26.835 26.0828 26.9166 26.416 27.0128C26.7492 27.109 27.073 27.2319 27.39 27.3656C27.7096 27.4991 28.0147 27.6455 28.317 27.8192C28.6218 27.9928 28.9118 28.1895 29.1829 28.4072C29.3196 28.5146 29.4563 28.6221 29.5848 28.7393C29.7155 28.8524 29.8465 28.9681 29.9689 29.0896C30.4683 29.5687 30.9245 30.0874 31.343 30.6326C31.7614 31.1778 32.1446 31.7492 32.4908 32.3405C32.8397 32.9342 33.1447 33.5418 33.4104 34.1889C33.6655 34.8486 33.7929 35.5395 33.8714 36.2178C33.9515 36.8985 33.9886 37.5737 34.0633 38.2368C34.2258 39.5644 34.4658 40.8933 34.8991 42.157C35.008 42.4722 35.1295 42.7838 35.2646 43.0878C35.3984 43.3919 35.5539 43.6929 35.7029 43.9944C36.006 44.5957 36.322 45.196 36.5962 45.8217C36.8726 46.4434 37.0964 47.0992 37.2062 47.78L37.2285 47.9073L37.2417 48.0354L37.2683 48.2916C37.2749 48.4629 37.2841 48.6353 37.2804 48.8075C37.2689 48.979 37.2718 49.1519 37.246 49.322L37.1859 49.8232C37.1323 50.4789 37.3096 51.1347 37.4324 51.8015C37.4926 52.1363 37.5368 52.4801 37.5298 52.8283C37.5203 53.178 37.4494 53.5185 37.3594 53.8478C37.2708 54.1769 37.1673 54.4983 37.0911 54.8212C37.0134 55.1429 36.9777 55.4728 36.9695 55.8069C36.9516 56.4725 37.0853 57.1319 37.2795 57.7721C37.4787 58.4118 37.7335 59.0366 38.0068 59.6521C38.279 60.2689 38.5809 60.8717 38.8609 61.4891C39.1409 62.1066 39.3996 62.7324 39.6297 63.3708C39.7441 63.6895 39.8535 64.0111 39.9503 64.3364C40.0473 64.6629 40.1364 64.9876 40.2008 65.3272L40.0648 65.3049C40.4553 64.5733 40.687 63.7632 40.8419 62.9453C40.9187 62.5357 40.9757 62.1214 41.0171 61.7057C41.0599 61.2913 41.0778 60.8724 41.1163 60.4519C41.1535 60.0327 41.2063 59.6135 41.2955 59.1991C41.3835 58.7847 41.5188 58.3806 41.6876 57.9918C41.8551 57.6031 42.055 57.2311 42.2646 56.866C42.4726 56.4985 42.7041 56.1497 42.89 55.7801C43.0799 55.4115 43.2374 55.0262 43.3656 54.6305C43.4939 54.2347 43.5928 53.8285 43.6956 53.4219C43.8973 52.6079 44.1426 51.7902 44.5511 51.0415L44.6323 50.9017C44.658 50.8543 44.6864 50.808 44.7203 50.7664L44.9144 50.5099C44.9824 50.4279 45.0587 50.3531 45.1308 50.2734C45.1676 50.2355 45.2028 50.1937 45.2425 50.1581L45.3613 50.0513C45.6739 49.7616 46.0252 49.5191 46.3876 49.3002C46.7485 49.0788 47.1275 48.8895 47.5147 48.7202C47.9018 48.5509 48.2943 48.3992 48.7035 48.2772L48.639 48.386C48.3533 47.1436 48.022 45.9114 47.6529 44.6902C47.2815 43.4718 46.8893 42.2525 46.4228 41.0705C45.9443 39.8984 45.3266 38.7755 44.4813 37.8628C43.6398 36.9486 42.5733 36.2766 41.4035 35.8652C40.82 35.662 40.2142 35.5149 39.6001 35.4706C39.2931 35.4406 38.9859 35.4547 38.6794 35.4777C38.5279 35.502 38.3739 35.5122 38.225 35.5518L38.0008 35.6028L37.7808 35.6716C37.7063 35.692 37.6351 35.72 37.5641 35.7504L37.3508 35.838L37.1467 35.9442L37.044 35.9967L36.9487 36.0603L36.7579 36.186C36.6971 36.2312 36.6409 36.2837 36.583 36.3324C36.4604 36.4254 36.3689 36.5493 36.2646 36.6601C36.218 36.7208 36.1769 36.785 36.1332 36.8481L36.0675 36.9427L36.014 37.0441C35.9798 37.1128 35.9415 37.1793 35.9099 37.2492L35.8286 37.4653C35.7369 37.7585 35.6773 38.0645 35.6814 38.3756C35.6698 38.5303 35.6956 38.6845 35.7059 38.8387C35.7379 38.9911 35.7535 39.1461 35.802 39.2945C35.875 39.5972 36.0058 39.8809 36.1488 40.1558C36.2307 40.2872 36.303 40.4259 36.3995 40.547C36.446 40.6091 36.4887 40.6727 36.5389 40.7331L36.6921 40.9141C36.7914 41.0363 36.9003 41.1513 37.0067 41.2664C37.112 41.3843 37.2257 41.4936 37.3382 41.6044C38.2442 42.4875 39.2999 43.2004 40.3755 43.8729C40.9145 44.209 41.4629 44.5328 42.0116 44.8616L43.6481 45.8543C44.7318 46.5157 45.8321 47.1448 46.9993 47.5861C47.5827 47.8049 48.1762 47.9892 48.7853 48.0972C49.384 48.2217 49.9881 48.2087 50.5894 48.1003C51.1883 47.9934 51.7754 47.7932 52.3169 47.509C52.857 47.2248 53.3591 46.856 53.7413 46.3951C53.9299 46.1661 54.0866 45.9101 54.1724 45.6394C54.2622 45.3709 54.2654 45.0851 54.2076 44.794C54.1523 44.5027 54.0405 44.2149 53.9099 43.9338C53.7792 43.6514 53.6284 43.3746 53.4735 43.0968C53.1664 42.5397 52.8322 41.9836 52.6096 41.3587C52.5023 41.0472 52.4165 40.7146 52.4261 40.3662C52.4285 40.1942 52.4513 40.0191 52.5144 39.8472C52.575 39.6767 52.6821 39.5075 52.8404 39.3935C52.9972 39.2784 53.1899 39.2222 53.3717 39.22C53.5545 39.215 53.7304 39.2507 53.894 39.3094C54.2202 39.4295 54.5157 39.6309 54.7212 39.9277C54.8213 40.0757 54.8959 40.2581 54.898 40.4543C54.8978 40.6521 54.8118 40.8427 54.6917 40.9807C54.5745 41.1222 54.4004 41.2324 54.2222 41.277C54.043 41.3256 53.8644 41.3185 53.695 41.2991C53.3547 41.2564 53.044 41.1364 52.7453 41.005C52.4476 40.8709 52.1634 40.7125 51.8875 40.5456C51.3367 40.2078 50.8163 39.8326 50.3149 39.421C50.2609 39.3777 50.1287 39.2532 50.1732 39.1991C50.1954 39.1714 50.3113 39.1599 50.3446 39.1571L50.4031 39.1522C50.7875 39.1201 51.1519 39.1069 51.5291 39.0198C51.7178 38.9769 51.9046 38.9264 52.0896 38.8709C52.2722 38.8169 52.4456 38.7456 52.6153 38.6603C52.9571 38.4897 53.2737 38.263 53.6277 38.068C53.8056 37.973 53.9909 37.8891 54.1871 37.8287C54.3808 37.7686 54.594 37.725 54.8144 37.7531C54.9239 37.7672 55.0391 37.8015 55.1381 37.8747C55.2383 37.9464 55.31 38.0632 55.3352 38.1799C55.363 38.2965 55.3547 38.4135 55.3348 38.5146C55.3189 38.618 55.2925 38.7197 55.2557 38.8197C55.2162 38.9186 55.1691 39.0182 55.0964 39.1056C55.0289 39.194 54.9312 39.2758 54.7996 39.3061C54.7682 39.3165 54.7334 39.3168 54.6983 39.3146C54.6815 39.3134 54.6633 39.3124 54.6463 39.3099L54.5972 39.2933L54.5491 39.2741C54.5355 39.2649 54.5218 39.2557 54.508 39.2452C54.4818 39.2254 54.4531 39.2059 54.4368 39.1801C54.3501 39.0853 54.3203 38.9753 54.2896 38.8707C54.2787 38.8173 54.2731 38.7648 54.2648 38.7125C54.2604 38.6599 54.2613 38.6082 54.2594 38.5553C54.2585 38.452 54.2635 38.3573 54.2656 38.2589L54.2785 37.6712L54.3041 36.4946C54.3062 36.3962 54.3109 36.2976 54.303 36.204C54.3002 36.1086 54.2936 36.0135 54.2818 35.9189C54.2633 35.7279 54.2295 35.5395 54.177 35.3591C54.1258 35.1786 54.0544 35.0037 53.9528 34.8533C53.8513 34.7041 53.7195 34.5781 53.5629 34.5111C53.4065 34.4454 53.2277 34.437 53.0674 34.4956C52.9068 34.5504 52.7683 34.6679 52.6954 34.8149C52.6199 34.962 52.625 35.1308 52.6999 35.2861C52.7336 35.3647 52.7855 35.4301 52.8433 35.4886C52.9082 35.54 52.9778 35.5859 53.06 35.6113C53.2234 35.6675 53.4109 35.6725 53.595 35.6519C53.7804 35.6313 53.9663 35.586 54.1473 35.5283C54.5101 35.4075 54.8599 35.2388 55.1917 35.0405C55.5222 34.841 55.8387 34.6143 56.1161 34.3508C56.2535 34.2192 56.3835 34.0766 56.4815 33.9211C56.5305 33.8433 56.5688 33.7613 56.5853 33.6811C56.5994 33.6024 56.5933 33.5138 56.5693 33.4279C56.5212 33.2536 56.4321 33.0827 56.3284 32.9221C56.2246 32.7615 56.1071 32.606 55.9849 32.456C55.7392 32.156 55.4702 31.871 55.1977 31.5901C54.9263 31.3066 54.6397 31.0424 54.3839 30.7291L54.0259 30.2589C53.9057 30.1023 53.7965 29.9383 53.6812 29.7786C53.2299 29.1328 52.8184 28.4552 52.4788 27.7419C52.3906 27.5658 52.3121 27.3837 52.235 27.2015C52.1528 27.021 52.087 26.8353 52.0124 26.6529C51.9775 26.5602 51.9365 26.4706 51.9004 26.378C51.8643 26.2854 51.8283 26.1941 51.7884 26.1031C51.7074 25.9212 51.6364 25.7359 51.5642 25.5507C51.4894 25.3657 51.4247 25.1786 51.3675 24.9883C51.3092 24.7993 51.2583 24.6072 51.2164 24.4143C51.1248 24.0291 51.05 23.6426 50.984 23.254C50.8482 22.4785 50.7569 21.694 50.6189 20.9226C50.5797 20.7307 50.5455 20.5385 50.5026 20.3483C50.4557 20.1583 50.3787 19.9774 50.3142 19.7929C50.2536 19.608 50.1892 19.4234 50.1224 19.2417C50.0542 19.0587 49.9949 18.8737 49.9181 18.6954C49.6356 17.9709 49.2844 17.2727 48.8634 16.6205C48.4428 15.9721 47.9587 15.351 47.3911 14.8428C46.8013 14.3171 46.2179 13.805 45.6044 13.3188C44.9935 12.8336 44.364 12.3719 43.7051 11.9605C43.0452 11.553 42.3576 11.1841 41.6294 10.9464C41.2659 10.8282 40.8935 10.7417 40.5198 10.7161C40.1459 10.6892 39.7709 10.7256 39.4262 10.8475C39.3414 10.883 39.2579 10.9184 39.1747 10.9563C39.0972 11.0029 39.0129 11.0435 38.9398 11.0948C38.8695 11.1498 38.7922 11.1976 38.7306 11.2635C38.6984 11.2946 38.6647 11.3245 38.6326 11.3569L38.5445 11.4612C38.3086 11.7419 38.1427 12.0878 38.0033 12.4432C37.7221 13.1553 37.5643 13.9386 37.2425 14.6736C36.9407 15.4017 36.6175 16.1199 36.286 16.8324L35.7854 17.8989L35.5344 18.4315C35.4512 18.6103 35.3614 18.7858 35.297 18.9578C35.1639 19.3101 35.0806 19.6878 35.0385 20.0648C35.0016 20.4413 35.0066 20.8259 35.0973 21.1853C35.1864 21.5422 35.3628 21.8776 35.6492 22.0927C35.7911 22.201 35.9516 22.2833 36.1253 22.3398C36.301 22.3885 36.4823 22.4276 36.6698 22.4326C36.8555 22.4455 37.0454 22.4335 37.2336 22.4152C37.4214 22.3931 37.6097 22.3606 37.8056 22.3274C38.1934 22.2588 38.5834 22.2004 38.9756 22.1534C39.7588 22.0596 40.5505 22.0064 41.3401 22.0206C42.1305 22.0295 42.9169 22.0982 43.6971 22.17C44.0872 22.2059 44.4772 22.2405 44.8668 22.27C45.2548 22.2957 45.6407 22.3126 46.0254 22.2843C46.4091 22.2587 46.7915 22.2023 47.1582 22.0967C47.3423 22.0451 47.5198 21.9773 47.6912 21.8971C47.7768 21.8564 47.8596 21.812 47.9381 21.7628C48.0167 21.7162 48.0957 21.6566 48.1532 21.604L48.189 21.7858C47.5054 21.4953 46.7586 21.36 46.0108 21.3061C45.2619 21.2537 44.5053 21.2794 43.7563 21.3639C43.3814 21.403 43.0083 21.4626 42.6372 21.5298C42.4517 21.5646 42.2677 21.602 42.0855 21.6456C41.997 21.6672 41.8996 21.6909 41.8244 21.7165C41.7495 21.7473 41.6757 21.791 41.6146 21.8465C41.4896 21.9564 41.4158 22.1086 41.434 22.2647C41.4472 22.4225 41.5426 22.576 41.6595 22.7084C41.8985 22.9753 42.2211 23.1758 42.5459 23.3567C42.8743 23.5347 43.2208 23.6815 43.5712 23.8292C43.9202 23.9758 44.2713 24.1157 44.6266 24.245C45.3348 24.505 46.0615 24.7247 46.7961 24.8687C46.9795 24.9012 47.165 24.9284 47.3462 24.9352C47.4368 24.938 47.527 24.9369 47.6112 24.9247C47.6954 24.9138 47.7758 24.8877 47.8178 24.8493C47.8573 24.8124 47.8654 24.7704 47.8466 24.6841C47.8275 24.5952 47.8073 24.5078 47.7759 24.4251C47.7168 24.2582 47.6232 24.111 47.4901 24.0161C47.357 23.9213 47.1861 23.8826 47.0103 23.8792C46.8344 23.8745 46.65 23.9067 46.467 23.9401C46.1025 24.0106 45.7442 24.1232 45.3942 24.2584C45.0456 24.3948 44.6958 24.548 44.3639 24.7153C44.0287 24.888 43.6871 25.0625 43.3686 25.2506C43.3502 25.2625 43.3306 25.2745 43.316 25.2847C43.3111 25.2877 43.3087 25.2905 43.3075 25.2919L43.3039 25.2948C43.3039 25.2948 43.3099 25.2891 43.3122 25.2864C43.3002 25.3119 43.3589 25.2269 43.3179 25.1683L43.3222 25.1744L43.3311 25.1879C43.3522 25.2236 43.3781 25.2563 43.4053 25.2889C43.4598 25.3541 43.5253 25.412 43.5969 25.4654C43.7387 25.5725 43.8997 25.6611 44.0672 25.7363C44.4025 25.8879 44.7645 25.9894 45.1297 26.0662C45.8613 26.2208 46.6133 26.3105 47.3614 26.3062C47.5483 26.3035 47.7347 26.2956 47.9175 26.2752C48.0977 26.2537 48.2875 26.2249 48.4289 26.1563C48.4623 26.1393 48.4876 26.1178 48.4944 26.1069C48.4989 26.0987 48.5006 26.1038 48.4894 26.0776C48.4846 26.0663 48.4719 26.0532 48.4617 26.0398L48.4184 25.9995C48.3903 25.9721 48.3535 25.9494 48.3194 25.9264C48.1728 25.8404 47.9956 25.7893 47.8173 25.7551C47.4556 25.6884 47.0772 25.6851 46.7032 25.7022C46.3278 25.7193 45.9518 25.7597 45.5781 25.8116C45.3907 25.8389 45.2048 25.8687 45.0192 25.9022L44.8808 25.9293C44.8388 25.9367 44.7912 25.9536 44.747 25.965L44.4761 26.0432C44.1195 26.1609 43.7687 26.3026 43.4392 26.4826C43.1097 26.6625 42.8016 26.8821 42.5414 27.1493C42.2811 27.4166 42.0619 27.7282 41.9326 28.0801C41.6589 28.7735 41.6994 29.5829 41.9774 30.2535L41.9806 30.261C42.0017 30.3135 41.977 30.3724 41.9258 30.3935C41.8747 30.4146 41.8146 30.3899 41.7935 30.3387C41.7933 30.3361 41.7918 30.3336 41.7917 30.3323L41.7907 30.3363Z" fill="#CBE2D1"/>
<path d="M41.7907 30.3363C41.6633 29.9541 41.6171 29.5704 41.6156 29.1816C41.6162 28.9877 41.6387 28.7946 41.6731 28.6031C41.7075 28.4129 41.7602 28.225 41.8355 28.0456C41.9784 27.686 42.2002 27.36 42.4659 27.0807C42.733 26.8025 43.0481 26.5734 43.3835 26.3864C43.7188 26.1995 44.0743 26.0522 44.4368 25.9276L44.7123 25.8426C44.8026 25.8118 44.9015 25.7906 44.9929 25.7726C45.1794 25.7351 45.3675 25.7 45.5559 25.6701C45.9328 25.6089 46.312 25.5604 46.6945 25.5362C47.0772 25.5146 47.4637 25.5068 47.852 25.5674C48.0457 25.6004 48.2408 25.65 48.4248 25.7522C48.4698 25.7807 48.5159 25.8079 48.5564 25.8446L48.6178 25.9002C48.6378 25.923 48.6578 25.9459 48.6758 25.9767C48.6938 26.0062 48.7085 26.0438 48.7123 26.0887C48.716 26.1336 48.7045 26.1811 48.6831 26.2177C48.64 26.2898 48.5848 26.3241 48.5356 26.3528C48.335 26.4535 48.1424 26.48 47.9473 26.5079C47.7531 26.5319 47.5604 26.5415 47.3672 26.546C46.982 26.5536 46.5984 26.534 46.2159 26.4961C45.8346 26.4569 45.452 26.4036 45.0781 26.3134C44.7041 26.2232 44.3322 26.1121 43.9742 25.9508C43.7957 25.8688 43.6213 25.7735 43.4613 25.6499C43.3813 25.5881 43.3046 25.5196 43.2372 25.4386C43.2042 25.3987 43.171 25.3563 43.1439 25.3107L43.1335 25.2935L43.1276 25.285C43.0874 25.2211 43.1469 25.1296 43.1396 25.1509C43.1455 25.1439 43.1538 25.1355 43.1598 25.1298L43.1707 25.1212C43.1779 25.1154 43.1852 25.1096 43.1901 25.1066C43.2145 25.0891 43.2354 25.077 43.2562 25.0636C43.5934 24.8675 43.9302 24.6985 44.2706 24.5254C44.6176 24.3543 44.9652 24.2051 45.3238 24.0653C45.6827 23.9281 46.051 23.8107 46.432 23.7376C46.6214 23.7037 46.8134 23.6695 47.0189 23.673C47.2205 23.6769 47.4371 23.7208 47.6155 23.8493C47.7939 23.9766 47.9092 24.1672 47.9755 24.3581C48.0118 24.4532 48.0354 24.5508 48.0552 24.6486C48.0668 24.6941 48.074 24.7659 48.0626 24.8302C48.0503 24.8984 48.0107 24.965 47.9615 25.0092C47.8592 25.0978 47.7462 25.1202 47.6443 25.1364C47.5411 25.1515 47.4405 25.1522 47.3421 25.1488C47.144 25.1407 46.952 25.1129 46.7621 25.0796C46.0066 24.9321 45.2757 24.7089 44.5582 24.4458C44.2001 24.3142 43.8463 24.1719 43.4947 24.0255C43.1443 23.8778 42.7911 23.7277 42.4519 23.5441C42.1162 23.3564 41.7792 23.1532 41.5088 22.8515C41.3775 22.701 41.2564 22.5173 41.2337 22.2917C41.2218 22.1803 41.2406 22.0651 41.2861 21.9618C41.3318 21.8597 41.4019 21.7725 41.4811 21.7013C41.5603 21.6288 41.6525 21.5745 41.7536 21.5338C41.8577 21.498 41.9464 21.4776 42.0412 21.4542C42.2284 21.4089 42.4149 21.3713 42.6029 21.3362C42.9791 21.2673 43.3562 21.2087 43.7359 21.1667C44.4949 21.0774 45.2628 21.0482 46.0283 21.0979C46.7927 21.1504 47.5614 21.2852 48.2807 21.5856L48.2845 21.5853C48.3408 21.6103 48.3668 21.674 48.3431 21.7303C48.3366 21.745 48.3273 21.7574 48.3166 21.7686C48.2292 21.8496 48.1501 21.9066 48.0605 21.9619C47.9735 22.017 47.8834 22.0658 47.7915 22.1097C47.6079 22.1974 47.4191 22.27 47.225 22.325C46.8384 22.4387 46.4408 22.499 46.0431 22.5271C45.6458 22.5589 45.2458 22.5433 44.8514 22.5181C44.4594 22.4901 44.0682 22.4568 43.677 22.4236C42.8958 22.3558 42.1175 22.2903 41.339 22.2855C40.5601 22.2756 39.7827 22.3302 39.0101 22.4271C38.6231 22.4749 38.2385 22.5354 37.8545 22.6037C37.665 22.6363 37.4654 22.6724 37.2648 22.6969C37.064 22.7175 36.8599 22.7307 36.655 22.7181C36.4494 22.7133 36.2434 22.6724 36.0425 22.6155C35.8424 22.5521 35.6484 22.4546 35.4789 22.3253C35.1308 22.0663 34.923 21.6637 34.8213 21.2652C34.7192 20.8615 34.7144 20.4485 34.7517 20.0448C34.7942 19.642 34.8811 19.2458 35.0233 18.8631C35.0972 18.667 35.1872 18.4928 35.2679 18.3155L35.5175 17.7817L36.0143 16.7156C36.3419 16.0034 36.6615 15.288 36.9586 14.5655C37.2673 13.8588 37.4184 13.0877 37.7106 12.3371C37.8562 11.9645 38.0314 11.5893 38.2998 11.2659L38.4008 11.1463C38.4377 11.1083 38.4773 11.0727 38.5142 11.0361C38.5865 10.959 38.6771 10.901 38.762 10.8358C38.8486 10.7755 38.9428 10.7289 39.0324 10.6749C39.1268 10.6309 39.2241 10.5904 39.3215 10.5513C39.7176 10.4122 40.1391 10.3757 40.5468 10.4063C40.9558 10.4367 41.352 10.5303 41.7329 10.6561C42.4973 10.9101 43.2002 11.292 43.8726 11.7101C44.5427 12.1322 45.1806 12.6022 45.7949 13.0974C46.4078 13.5915 47.0003 14.1196 47.5783 14.6437C48.1761 15.1881 48.6588 15.8236 49.0876 16.492C49.943 17.8354 50.4812 19.3512 50.8127 20.8947C51.131 22.4342 51.406 23.9811 51.8398 25.4825C52.0572 26.2318 52.3213 26.9682 52.6549 27.6717C52.9873 28.3765 53.3866 29.0474 53.8323 29.6872C53.9462 29.8457 54.0552 30.0071 54.174 30.1626L54.5302 30.6277C54.7688 30.9192 55.0611 31.1906 55.3325 31.4729C55.6076 31.7549 55.8805 32.0409 56.1333 32.348C56.2597 32.5015 56.3814 32.6606 56.491 32.8297C56.6006 32.9989 56.6996 33.1806 56.7583 33.3889C56.7863 33.4925 56.7985 33.6077 56.7787 33.7257C56.7562 33.8426 56.7076 33.9409 56.6518 34.0296C56.5403 34.2082 56.4019 34.3593 56.2575 34.4993C55.9659 34.7781 55.6409 35.012 55.3008 35.2187C54.9592 35.4243 54.5997 35.6003 54.2181 35.7278C54.0257 35.7878 53.8302 35.8416 53.626 35.869C53.423 35.895 53.2066 35.8989 52.9945 35.8313C52.8873 35.8002 52.7868 35.7401 52.6957 35.6689C52.6561 35.627 52.6116 35.5881 52.5792 35.5404C52.5494 35.4925 52.5107 35.4466 52.4908 35.394C52.4413 35.2948 52.407 35.1788 52.4034 35.0576C52.3985 34.9378 52.4324 34.8174 52.4843 34.7136C52.7018 34.2897 53.2317 34.1137 53.6723 34.2759C53.892 34.357 54.0686 34.5244 54.1846 34.7086C54.3046 34.8936 54.3794 35.0941 54.4322 35.2939C54.4877 35.4947 54.5163 35.6977 54.5292 35.8995C54.5376 35.9996 54.5422 36.1013 54.5417 36.2034C54.5464 36.3064 54.5378 36.404 54.533 36.5013C54.513 36.8945 54.489 37.2867 54.4766 37.6792L54.4548 38.2677C54.4519 38.4656 54.4346 38.6596 54.475 38.8345C54.4988 38.9191 54.5256 39.0073 54.5792 39.0623C54.6305 39.12 54.6945 39.1457 54.7642 39.1295C54.8326 39.1147 54.9045 39.0635 54.9554 38.9934C55.0119 38.9279 55.0512 38.8432 55.0855 38.759C55.1157 38.6725 55.1404 38.5825 55.1546 38.4896C55.1727 38.3976 55.177 38.3094 55.1572 38.2271C55.1388 38.1459 55.0969 38.0771 55.031 38.0296C54.9663 37.9807 54.8815 37.9542 54.794 37.9422C54.6154 37.9196 54.4286 37.9546 54.2462 38.0112C54.0651 38.0676 53.8885 38.147 53.7193 38.2374C53.3811 38.4207 53.0585 38.653 52.7018 38.8314C52.5235 38.9213 52.3376 38.9975 52.1463 39.0548C51.9575 39.112 51.7669 39.1628 51.5732 39.2074C51.1883 39.2964 50.6444 39.2531 50.2497 39.286L50.2995 39.2369C50.7886 39.6393 51.4467 40.0565 51.989 40.3859C52.2607 40.5493 52.5393 40.7017 52.8276 40.8314C53.1155 40.9573 53.4152 41.0692 53.7214 41.1056C53.8738 41.1226 54.0304 41.1276 54.1741 41.0872C54.3193 41.0492 54.4442 40.969 54.5405 40.855C54.6369 40.7423 54.6975 40.6029 54.6984 40.4581C54.6966 40.3135 54.6394 40.1697 54.5556 40.0462C54.3838 39.797 54.1155 39.6127 53.8294 39.5086C53.6844 39.4574 53.5324 39.4288 53.3831 39.4335C53.2337 39.4369 53.0864 39.4815 52.9698 39.5688C52.8519 39.6549 52.7697 39.7832 52.7195 39.9244C52.6681 40.0656 52.6475 40.2211 52.6462 40.375C52.6423 40.529 52.6591 40.684 52.6913 40.8376C52.7208 40.9902 52.7683 41.1413 52.8206 41.2894C53.0391 41.881 53.3737 42.4268 53.6885 42.9819C53.8459 43.2595 54.0047 43.5395 54.1426 43.8304C54.2804 44.1212 54.4037 44.4236 54.4719 44.7448C54.5423 45.0632 54.5454 45.4093 54.4456 45.7277C54.3495 46.0458 54.1787 46.3327 53.9767 46.5873C53.5676 47.097 53.0408 47.4937 52.4743 47.8033C51.9065 48.1118 51.2916 48.335 50.6565 48.4552C50.0226 48.5753 49.3582 48.5921 48.723 48.4642C48.0878 48.3519 47.4675 48.1711 46.8675 47.9396C45.6661 47.4753 44.5526 46.8266 43.4678 46.1523L41.8472 45.1325C41.3054 44.7953 40.7613 44.4609 40.224 44.1142C39.1506 43.4209 38.0962 42.6768 37.1791 41.7702C37.065 41.6556 36.9499 41.5438 36.8431 41.4235C36.7338 41.3047 36.6246 41.1872 36.5238 41.0613L36.3689 40.8752C36.3184 40.8122 36.2727 40.7437 36.2234 40.6781C36.1222 40.5482 36.0469 40.4034 35.9616 40.2632C35.8122 39.9733 35.6774 39.6719 35.6017 39.3526C35.5512 39.1966 35.5361 39.0312 35.5034 38.8711C35.4936 38.7078 35.4671 38.5447 35.4778 38.3797C35.4758 37.7222 35.6903 37.0608 36.09 36.5325C36.2011 36.4095 36.2982 36.2748 36.4276 36.171C36.4901 36.1166 36.5485 36.0588 36.614 36.0081L36.8164 35.8672L36.9176 35.7967L37.0249 35.7373L37.2395 35.6186L37.4636 35.5198C37.5381 35.4852 37.6129 35.4544 37.691 35.431L37.9231 35.3522L38.1607 35.2923C38.3182 35.2469 38.4808 35.232 38.6409 35.2018C38.9646 35.1683 39.2906 35.1476 39.6137 35.1697C40.2626 35.1982 40.8993 35.344 41.5112 35.5487C42.1223 35.7587 42.7085 36.0405 43.2515 36.3931C43.7932 36.7458 44.2883 37.1735 44.7159 37.6585C45.574 38.6321 46.1671 39.801 46.627 40.9966C47.0759 42.1995 47.4702 43.4134 47.8409 44.6384C48.209 45.8635 48.5395 47.1009 48.8243 48.3485C48.8364 48.4005 48.806 48.4534 48.7543 48.4681L48.753 48.4682C48.3602 48.585 47.969 48.7365 47.5892 48.9013C47.2095 49.0674 46.8366 49.2536 46.483 49.4692C46.1292 49.6822 45.7864 49.9189 45.4844 50.1974L45.3691 50.3C45.3307 50.3342 45.2979 50.3745 45.2623 50.411C45.1937 50.4865 45.1198 50.5586 45.054 50.6364L44.8691 50.8793C44.8363 50.9182 44.8102 50.9617 44.7855 51.0064L44.7088 51.1382L44.6321 51.2699L44.5664 51.4111C44.524 51.5051 44.4763 51.5982 44.4378 51.6944L44.3199 51.9821L44.2127 52.274C44.0764 52.6666 43.9681 53.0684 43.8651 53.4737C43.7622 53.879 43.661 54.2892 43.5296 54.693C43.3994 55.0967 43.2362 55.4915 43.0419 55.8682C42.9482 56.0595 42.8355 56.2395 42.7308 56.4227C42.6218 56.601 42.5141 56.7793 42.4106 56.9611C42.202 57.3222 42.0055 57.6888 41.8411 58.0682C41.6766 58.4476 41.5442 58.8398 41.4579 59.2437C41.3691 59.6477 41.3171 60.0604 41.2796 60.4757C41.2406 60.8898 41.2241 61.3099 41.1805 61.7309C41.1394 62.1503 41.0828 62.5698 41.0053 62.9859C40.8488 63.8156 40.6158 64.6413 40.2144 65.3971C40.1876 65.4471 40.1272 65.4651 40.0772 65.4383C40.0489 65.4238 40.0312 65.3969 40.025 65.369L40.0247 65.3651C39.9629 65.0434 39.8724 64.7163 39.7773 64.3961C39.6807 64.0746 39.5729 63.7567 39.4588 63.4407C39.2292 62.8086 38.9708 62.1867 38.6925 61.5743C38.1262 60.3553 37.5048 59.141 37.0966 57.8378C36.8976 57.1864 36.7568 56.5043 36.7752 55.8128C36.7826 55.4697 36.8209 55.1241 36.8999 54.7881C36.9778 54.4534 37.0824 54.1306 37.1676 53.807C37.2543 53.4844 37.3213 53.1597 37.3289 52.8335C37.3351 52.506 37.2934 52.1762 37.2337 51.8478C37.1132 51.1924 36.9279 50.5192 36.9815 49.817L37.04 49.3121C37.0649 49.1472 37.0601 48.9809 37.0708 48.8159C37.0737 48.6503 37.0638 48.4845 37.0563 48.3184L37.0292 48.0713L37.0163 47.947L36.9945 47.8248C36.8842 47.1686 36.6648 46.5344 36.3892 45.923C36.116 45.3101 35.7992 44.7151 35.4909 44.1129C35.3379 43.8104 35.1825 43.5107 35.0404 43.1995C34.8996 42.8895 34.7713 42.5734 34.6567 42.2522C34.201 40.9671 33.942 39.6269 33.7626 38.2826C33.6791 37.6073 33.6345 36.934 33.5492 36.268C33.4652 35.6031 33.3339 34.9422 33.0889 34.3256C32.5643 33.0967 31.8668 31.9301 31.0492 30.8691C30.2268 29.8136 29.2682 28.8419 28.1244 28.1558C27.5478 27.8176 26.9476 27.5072 26.3245 27.2763C26.012 27.1654 25.6917 27.0694 25.3686 27.0331C25.0466 26.9928 24.7154 27.014 24.4336 27.1474C24.1477 27.2772 23.9435 27.5359 23.8103 27.8261C23.6828 28.1223 23.6144 28.4472 23.5812 28.7755C23.5507 29.105 23.5475 29.4373 23.5776 29.7669C23.6077 30.0964 23.6774 30.4214 23.7748 30.7376C23.9659 31.3728 24.295 31.9604 24.6929 32.4918C25.0959 33.0215 25.5799 33.4863 26.09 33.9243C26.599 34.3638 27.1285 34.786 27.6289 35.2468C27.8792 35.4779 28.1212 35.7186 28.3477 35.9737C28.5767 36.2284 28.7818 36.5059 28.9764 36.7804C29.1722 37.0548 29.3654 37.3293 29.5858 37.5732C29.8048 37.8159 30.0587 38.0286 30.3549 38.1292C30.6502 38.235 30.9779 38.1883 31.2768 38.0754C31.5791 37.9559 31.8591 37.7852 32.0334 37.5239C32.3944 37.0105 32.2246 36.2132 31.7247 35.8518C31.6012 35.7639 31.4575 35.7113 31.3119 35.7144C31.1688 35.7161 31.0213 35.7723 30.9209 35.8686C30.8181 35.9663 30.7539 36.1086 30.7202 36.2613C30.6852 36.4141 30.6743 36.5778 30.675 36.7406C30.6888 37.3997 30.8384 38.063 30.9722 38.7224C31.041 39.0526 31.1113 39.384 31.1715 39.7187C31.23 40.064 31.2185 40.4358 31.0902 40.7695C30.97 41.1065 30.763 41.3938 30.5543 41.6606C30.3445 41.9288 30.1191 42.1815 29.9394 42.4549C29.758 42.7246 29.6273 43.0288 29.5337 43.3455C29.4416 43.6633 29.3813 43.9926 29.3264 44.3241C29.2164 44.9845 29.1399 45.6757 28.8553 46.3158C28.7151 46.6299 28.5244 46.9417 28.2586 47.1745C27.9985 47.412 27.695 47.595 27.3773 47.7301C26.7394 48.003 26.0578 48.1232 25.3821 48.19C24.7037 48.2557 24.0242 48.2621 23.348 48.2462L22.3351 48.2158C21.9946 48.2016 21.649 48.1736 21.314 48.1021C20.9779 48.0332 20.6468 47.9459 20.326 47.8293C20.0032 47.718 19.6887 47.5827 19.382 47.4339C18.7687 47.135 18.1865 46.7766 17.6392 46.3727C17.0907 45.9701 16.5735 45.5249 16.0932 45.043C15.6118 44.5625 15.166 44.0454 14.7664 43.4935C14.3643 42.9431 14.0132 42.3548 13.7278 41.7339C13.5894 41.4211 13.4647 41.102 13.3674 40.7716C13.2729 40.4436 13.1936 40.1117 13.1295 39.7772C13.0679 39.4412 13.0215 39.1027 12.9906 38.7629C12.9635 38.4227 12.9517 38.0813 12.958 37.7397C12.9682 37.3977 12.9952 37.0569 13.0418 36.7184C13.0922 36.3795 13.1622 36.0442 13.252 35.7137C13.4462 35.0566 13.693 34.4274 13.9345 33.7961C14.4231 32.5394 14.9071 31.2741 15.0524 29.9388C15.2144 28.6035 15.2474 27.2531 15.1931 25.9074C15.1665 25.2338 15.1194 24.562 15.0556 23.8903L14.9533 22.8819C14.9185 22.5424 14.9093 22.2008 14.9092 21.8597C14.9232 21.1776 15.0014 20.4914 15.1928 19.832L15.2664 19.5855C15.2932 19.5044 15.3239 19.4244 15.3532 19.3431C15.408 19.1796 15.4829 19.026 15.551 18.8679C15.702 18.5594 15.8663 18.2562 16.0716 17.9794C16.266 17.6957 16.4988 17.4398 16.7404 17.1961C16.9826 16.96 17.2276 16.7264 17.4741 16.4952C17.9671 16.0328 18.4714 15.5811 18.9772 15.1331C19.4816 14.684 19.9892 14.241 20.4768 13.7765C20.7222 13.5467 20.9577 13.3074 21.1917 13.0656C21.4242 12.8213 21.6395 12.5721 21.871 12.3163C22.3348 11.8124 22.8697 11.3736 23.4615 11.027C24.0518 10.6792 24.6938 10.4253 25.3525 10.2476C25.4068 10.2327 25.4624 10.2655 25.4772 10.3186C25.492 10.3729 25.4593 10.4286 25.4063 10.4434C24.761 10.6123 24.1349 10.8558 23.5576 11.1895C22.9802 11.522 22.4556 11.9457 21.9996 12.4347C21.7749 12.6796 21.5503 12.9413 21.3177 13.1843C21.0812 13.4275 20.8433 13.6684 20.5968 13.8996C20.1054 14.3657 19.5967 14.81 19.0908 15.258C18.5849 15.7047 18.0818 16.1537 17.5899 16.6147C17.1025 17.0818 16.587 17.5228 16.2084 18.0726C16.0102 18.3411 15.849 18.6362 15.7011 18.9354C15.6353 19.0895 15.5613 19.2391 15.5088 19.3986C15.4806 19.4772 15.4496 19.5547 15.424 19.6344L15.3525 19.8755C15.165 20.5191 15.0869 21.1911 15.072 21.8616C15.0571 22.5334 15.1567 23.2009 15.2208 23.8752C15.2873 24.548 15.3347 25.2237 15.3642 25.9008C15.4216 27.2527 15.3919 28.6119 15.2322 29.96C15.1597 30.6366 15.0012 31.3037 14.8037 31.952C14.6051 32.6017 14.3638 33.2356 14.1249 33.8667C13.8886 34.4976 13.6434 35.1306 13.4633 35.771C13.3792 36.0933 13.3162 36.4202 13.2702 36.7497C13.2281 37.0801 13.2056 37.4128 13.1998 37.7453C13.1966 38.0777 13.2128 38.411 13.2417 38.7419C13.2746 39.0738 13.3241 39.403 13.3874 39.7285C13.4521 40.0552 13.5383 40.3775 13.6344 40.6938C13.7329 41.0073 13.8578 41.3134 13.9963 41.6119C14.5757 42.8014 15.4221 43.8522 16.3851 44.7525C16.8667 45.2045 17.3801 45.6191 17.9197 45.9926C18.4581 46.3676 19.026 46.6936 19.6147 46.9597C20.2 47.2312 20.8097 47.44 21.4257 47.554L21.6562 47.5954L21.8869 47.6227C21.964 47.6343 22.0403 47.637 22.1181 47.6408C22.1971 47.6446 22.2674 47.6516 22.3552 47.652L23.3626 47.679C24.0272 47.6959 24.6862 47.6912 25.3315 47.6309C25.9743 47.5707 26.6085 47.4557 27.1617 47.2196C27.4385 47.1034 27.6865 46.9522 27.8904 46.7672C28.1012 46.5868 28.2375 46.3648 28.3645 46.0932C28.6114 45.5583 28.6968 44.9116 28.812 44.2366C28.8702 43.8983 28.9352 43.5492 29.0413 43.1967C29.1474 42.8454 29.301 42.4902 29.5221 42.1706C29.737 41.8555 29.9655 41.609 30.1699 41.3529C30.3734 41.1008 30.5492 40.8574 30.6415 40.6029C30.7431 40.3515 30.7554 40.0817 30.7136 39.7983C30.6609 39.4758 30.5932 39.1443 30.5294 38.8136C30.4643 38.4818 30.3989 38.1462 30.3457 37.8031C30.2938 37.4598 30.2479 37.1109 30.248 36.7414C30.2493 36.5565 30.2616 36.3642 30.3106 36.1624C30.3319 36.0625 30.371 35.9584 30.4204 35.8548C30.475 35.752 30.5413 35.6496 30.636 35.5629C30.7283 35.4776 30.8397 35.4063 30.9539 35.3671C31.0663 35.3228 31.1871 35.3011 31.3083 35.3C31.4305 35.2962 31.5501 35.3224 31.6615 35.3583C31.7707 35.3983 31.8719 35.4519 31.9612 35.5168C32.3148 35.7793 32.5127 36.1555 32.5897 36.5523C32.6678 36.9476 32.5887 37.3909 32.3501 37.7313C32.2326 37.9013 32.0832 38.043 31.9195 38.1536C31.8391 38.2107 31.7527 38.2579 31.6684 38.2986L31.4119 38.4104C31.323 38.4424 31.2282 38.4658 31.1362 38.4929C31.0442 38.5187 30.9412 38.5221 30.8444 38.5367C30.7457 38.5449 30.6428 38.5328 30.5431 38.5295C30.4446 38.508 30.3439 38.4919 30.2494 38.4584C29.8666 38.3237 29.5762 38.0611 29.3399 37.7953C29.1031 37.5257 28.909 37.2408 28.7168 36.9636C28.5258 36.6849 28.3361 36.4217 28.1192 36.1736C27.9048 35.9241 27.6734 35.6876 27.4311 35.4584C26.9476 35.0001 26.422 34.5775 25.9109 34.1279C25.3988 33.6823 24.9016 33.1979 24.4875 32.6433C24.0773 32.0884 23.7392 31.4706 23.5428 30.8035C23.4441 30.4706 23.3742 30.1289 23.344 29.7825C23.3151 29.4361 23.321 29.0893 23.3555 28.7453C23.3939 28.4023 23.467 28.0563 23.6112 27.729C23.6881 27.5676 23.7822 27.4124 23.9037 27.2756C24.0239 27.139 24.1771 27.0267 24.3423 26.9496C24.6764 26.7937 25.0463 26.7732 25.3935 26.8049C25.7444 26.835 26.0828 26.9166 26.416 27.0128C26.7492 27.109 27.073 27.2319 27.39 27.3656C27.7096 27.4991 28.0147 27.6455 28.317 27.8192C28.6218 27.9928 28.9118 28.1895 29.1829 28.4072C29.3196 28.5146 29.4563 28.6221 29.5848 28.7393C29.7155 28.8524 29.8465 28.9681 29.9689 29.0896C30.4683 29.5687 30.9245 30.0874 31.343 30.6326C31.7614 31.1778 32.1446 31.7492 32.4908 32.3405C32.8397 32.9342 33.1447 33.5418 33.4104 34.1889C33.6655 34.8486 33.7929 35.5395 33.8714 36.2178C33.9515 36.8985 33.9886 37.5737 34.0633 38.2368C34.2258 39.5644 34.4658 40.8933 34.8991 42.157C35.008 42.4722 35.1295 42.7838 35.2646 43.0878C35.3984 43.3919 35.5539 43.6929 35.7029 43.9944C36.006 44.5957 36.322 45.196 36.5962 45.8217C36.8726 46.4434 37.0964 47.0992 37.2062 47.78L37.2285 47.9073L37.2417 48.0354L37.2683 48.2916C37.2749 48.4629 37.2841 48.6353 37.2804 48.8075C37.2689 48.979 37.2718 49.1519 37.246 49.322L37.1859 49.8232C37.1323 50.4789 37.3096 51.1347 37.4324 51.8015C37.4926 52.1363 37.5368 52.4801 37.5298 52.8283C37.5203 53.178 37.4494 53.5185 37.3594 53.8478C37.2708 54.1769 37.1673 54.4983 37.0911 54.8212C37.0134 55.1429 36.9777 55.4728 36.9695 55.8069C36.9516 56.4725 37.0853 57.1319 37.2795 57.7721C37.4787 58.4118 37.7335 59.0366 38.0068 59.6521C38.279 60.2689 38.5809 60.8717 38.8609 61.4891C39.1409 62.1066 39.3996 62.7324 39.6297 63.3708C39.7441 63.6895 39.8535 64.0111 39.9503 64.3364C40.0473 64.6629 40.1364 64.9876 40.2008 65.3272L40.0648 65.3049C40.4553 64.5733 40.687 63.7632 40.8419 62.9453C40.9187 62.5357 40.9757 62.1214 41.0171 61.7057C41.0599 61.2913 41.0778 60.8724 41.1163 60.4519C41.1535 60.0327 41.2063 59.6135 41.2955 59.1991C41.3835 58.7847 41.5188 58.3806 41.6876 57.9918C41.8551 57.6031 42.055 57.2311 42.2646 56.866C42.4726 56.4985 42.7041 56.1497 42.89 55.7801C43.0799 55.4115 43.2374 55.0262 43.3656 54.6305C43.4939 54.2347 43.5928 53.8285 43.6956 53.4219C43.8973 52.6079 44.1426 51.7902 44.5511 51.0415L44.6323 50.9017C44.658 50.8543 44.6864 50.808 44.7203 50.7664L44.9144 50.5099C44.9824 50.4279 45.0587 50.3531 45.1308 50.2734C45.1676 50.2355 45.2028 50.1937 45.2425 50.1581L45.3613 50.0513C45.6739 49.7616 46.0252 49.5191 46.3876 49.3002C46.7485 49.0788 47.1275 48.8895 47.5147 48.7202C47.9018 48.5509 48.2943 48.3992 48.7035 48.2772L48.639 48.386C48.3533 47.1436 48.022 45.9114 47.6529 44.6902C47.2815 43.4718 46.8893 42.2525 46.4228 41.0705C45.9443 39.8984 45.3266 38.7755 44.4813 37.8628C43.6398 36.9486 42.5733 36.2766 41.4035 35.8652C40.82 35.662 40.2142 35.5149 39.6001 35.4706C39.2931 35.4406 38.9859 35.4547 38.6794 35.4777C38.5279 35.502 38.3739 35.5122 38.225 35.5518L38.0008 35.6028L37.7808 35.6716C37.7063 35.692 37.6351 35.72 37.5641 35.7504L37.3508 35.838L37.1467 35.9442L37.044 35.9967L36.9487 36.0603L36.7579 36.186C36.6971 36.2312 36.6409 36.2837 36.583 36.3324C36.4604 36.4254 36.3689 36.5493 36.2646 36.6601C36.218 36.7208 36.1769 36.785 36.1332 36.8481L36.0675 36.9427L36.014 37.0441C35.9798 37.1128 35.9415 37.1793 35.9099 37.2492L35.8286 37.4653C35.7369 37.7585 35.6773 38.0645 35.6814 38.3756C35.6698 38.5303 35.6956 38.6845 35.7059 38.8387C35.7379 38.9911 35.7535 39.1461 35.802 39.2945C35.875 39.5972 36.0058 39.8809 36.1488 40.1558C36.2307 40.2872 36.303 40.4259 36.3995 40.547C36.446 40.6091 36.4887 40.6727 36.5389 40.7331L36.6921 40.9141C36.7914 41.0363 36.9003 41.1513 37.0067 41.2664C37.112 41.3843 37.2257 41.4936 37.3382 41.6044C38.2442 42.4875 39.2999 43.2004 40.3755 43.8729C40.9145 44.209 41.4629 44.5328 42.0116 44.8616L43.6481 45.8543C44.7318 46.5157 45.8321 47.1448 46.9993 47.5861C47.5827 47.8049 48.1762 47.9892 48.7853 48.0972C49.384 48.2217 49.9881 48.2087 50.5894 48.1003C51.1883 47.9934 51.7754 47.7932 52.3169 47.509C52.857 47.2248 53.3591 46.856 53.7413 46.3951C53.9299 46.1661 54.0866 45.9101 54.1724 45.6394C54.2622 45.3709 54.2654 45.0851 54.2076 44.794C54.1523 44.5027 54.0405 44.2149 53.9099 43.9338C53.7792 43.6514 53.6284 43.3746 53.4735 43.0968C53.1664 42.5397 52.8322 41.9836 52.6096 41.3587C52.5023 41.0472 52.4165 40.7146 52.4261 40.3662C52.4285 40.1942 52.4513 40.0191 52.5144 39.8472C52.575 39.6767 52.6821 39.5075 52.8404 39.3935C52.9972 39.2784 53.1899 39.2222 53.3717 39.22C53.5545 39.215 53.7304 39.2507 53.894 39.3094C54.2202 39.4295 54.5157 39.6309 54.7212 39.9277C54.8213 40.0757 54.8959 40.2581 54.898 40.4543C54.8978 40.6521 54.8118 40.8427 54.6917 40.9807C54.5745 41.1222 54.4004 41.2324 54.2222 41.277C54.043 41.3256 53.8644 41.3185 53.695 41.2991C53.3547 41.2564 53.044 41.1364 52.7453 41.005C52.4476 40.8709 52.1634 40.7125 51.8875 40.5456C51.3367 40.2078 50.8163 39.8326 50.3149 39.421C50.2609 39.3777 50.1287 39.2532 50.1732 39.1991C50.1954 39.1714 50.3113 39.1599 50.3446 39.1571L50.4031 39.1522C50.7875 39.1201 51.1519 39.1069 51.5291 39.0198C51.7178 38.9769 51.9046 38.9264 52.0896 38.8709C52.2722 38.8169 52.4456 38.7456 52.6153 38.6603C52.9571 38.4897 53.2737 38.263 53.6277 38.068C53.8056 37.973 53.9909 37.8891 54.1871 37.8287C54.3808 37.7686 54.594 37.725 54.8144 37.7531C54.9239 37.7672 55.0391 37.8015 55.1381 37.8747C55.2383 37.9464 55.31 38.0632 55.3352 38.1799C55.363 38.2965 55.3547 38.4135 55.3348 38.5146C55.3189 38.618 55.2925 38.7197 55.2557 38.8197C55.2162 38.9186 55.1691 39.0182 55.0964 39.1056C55.0289 39.194 54.9312 39.2758 54.7996 39.3061C54.7682 39.3165 54.7334 39.3168 54.6983 39.3146C54.6815 39.3134 54.6633 39.3124 54.6463 39.3099L54.5972 39.2933L54.5491 39.2741C54.5355 39.2649 54.5218 39.2557 54.508 39.2452C54.4818 39.2254 54.4531 39.2059 54.4368 39.1801C54.3501 39.0853 54.3203 38.9753 54.2896 38.8707C54.2787 38.8173 54.2731 38.7648 54.2648 38.7125C54.2604 38.6599 54.2613 38.6082 54.2594 38.5553C54.2585 38.452 54.2635 38.3573 54.2656 38.2589L54.2785 37.6712L54.3041 36.4946C54.3062 36.3962 54.3109 36.2976 54.303 36.204C54.3002 36.1086 54.2936 36.0135 54.2818 35.9189C54.2633 35.7279 54.2295 35.5395 54.177 35.3591C54.1258 35.1786 54.0544 35.0037 53.9528 34.8533C53.8513 34.7041 53.7195 34.5781 53.5629 34.5111C53.4065 34.4454 53.2277 34.437 53.0674 34.4956C52.9068 34.5504 52.7683 34.6679 52.6954 34.8149C52.6199 34.962 52.625 35.1308 52.6999 35.2861C52.7336 35.3647 52.7855 35.4301 52.8433 35.4886C52.9082 35.54 52.9778 35.5859 53.06 35.6113C53.2234 35.6675 53.4109 35.6725 53.595 35.6519C53.7804 35.6313 53.9663 35.586 54.1473 35.5283C54.5101 35.4075 54.8599 35.2388 55.1917 35.0405C55.5222 34.841 55.8387 34.6143 56.1161 34.3508C56.2535 34.2192 56.3835 34.0766 56.4815 33.9211C56.5305 33.8433 56.5688 33.7613 56.5853 33.6811C56.5994 33.6024 56.5933 33.5138 56.5693 33.4279C56.5212 33.2536 56.4321 33.0827 56.3284 32.9221C56.2246 32.7615 56.1071 32.606 55.9849 32.456C55.7392 32.156 55.4702 31.871 55.1977 31.5901C54.9263 31.3066 54.6397 31.0424 54.3839 30.7291L54.0259 30.2589C53.9057 30.1023 53.7965 29.9383 53.6812 29.7786C53.2299 29.1328 52.8184 28.4552 52.4788 27.7419C52.3906 27.5658 52.3121 27.3837 52.235 27.2015C52.1528 27.021 52.087 26.8353 52.0124 26.6529C51.9775 26.5602 51.9365 26.4706 51.9004 26.378C51.8643 26.2854 51.8283 26.1941 51.7884 26.1031C51.7074 25.9212 51.6364 25.7359 51.5642 25.5507C51.4894 25.3657 51.4247 25.1786 51.3675 24.9883C51.3092 24.7993 51.2583 24.6072 51.2164 24.4143C51.1248 24.0291 51.05 23.6426 50.984 23.254C50.8482 22.4785 50.7569 21.694 50.6189 20.9226C50.5797 20.7307 50.5455 20.5385 50.5026 20.3483C50.4557 20.1583 50.3787 19.9774 50.3142 19.7929C50.2536 19.608 50.1892 19.4234 50.1224 19.2417C50.0542 19.0587 49.9949 18.8737 49.9181 18.6954C49.6356 17.9709 49.2844 17.2727 48.8634 16.6205C48.4428 15.9721 47.9587 15.351 47.3911 14.8428C46.8013 14.3171 46.2179 13.805 45.6044 13.3188C44.9935 12.8336 44.364 12.3719 43.7051 11.9605C43.0452 11.553 42.3576 11.1841 41.6294 10.9464C41.2659 10.8282 40.8935 10.7417 40.5198 10.7161C40.1459 10.6892 39.7709 10.7256 39.4262 10.8475C39.3414 10.883 39.2579 10.9184 39.1747 10.9563C39.0972 11.0029 39.0129 11.0435 38.9398 11.0948C38.8695 11.1498 38.7922 11.1976 38.7306 11.2635C38.6984 11.2946 38.6647 11.3245 38.6326 11.3569L38.5445 11.4612C38.3086 11.7419 38.1427 12.0878 38.0033 12.4432C37.7221 13.1553 37.5643 13.9386 37.2425 14.6736C36.9407 15.4017 36.6175 16.1199 36.286 16.8324L35.7854 17.8989L35.5344 18.4315C35.4512 18.6103 35.3614 18.7858 35.297 18.9578C35.1639 19.3101 35.0806 19.6878 35.0385 20.0648C35.0016 20.4413 35.0066 20.8259 35.0973 21.1853C35.1864 21.5422 35.3628 21.8776 35.6492 22.0927C35.7911 22.201 35.9516 22.2833 36.1253 22.3398C36.301 22.3885 36.4823 22.4276 36.6698 22.4326C36.8555 22.4455 37.0454 22.4335 37.2336 22.4152C37.4214 22.3931 37.6097 22.3606 37.8056 22.3274C38.1934 22.2588 38.5834 22.2004 38.9756 22.1534C39.7588 22.0596 40.5505 22.0064 41.3401 22.0206C42.1305 22.0295 42.9169 22.0982 43.6971 22.17C44.0872 22.2059 44.4772 22.2405 44.8668 22.27C45.2548 22.2957 45.6407 22.3126 46.0254 22.2843C46.4091 22.2587 46.7915 22.2023 47.1582 22.0967C47.3423 22.0451 47.5198 21.9773 47.6912 21.8971C47.7768 21.8564 47.8596 21.812 47.9381 21.7628C48.0167 21.7162 48.0957 21.6566 48.1532 21.604L48.189 21.7858C47.5054 21.4953 46.7586 21.36 46.0108 21.3061C45.2619 21.2537 44.5053 21.2794 43.7563 21.3639C43.3814 21.403 43.0083 21.4626 42.6372 21.5298C42.4517 21.5646 42.2677 21.602 42.0855 21.6456C41.997 21.6672 41.8996 21.6909 41.8244 21.7165C41.7495 21.7473 41.6757 21.791 41.6146 21.8465C41.4896 21.9564 41.4158 22.1086 41.434 22.2647C41.4472 22.4225 41.5426 22.576 41.6595 22.7084C41.8985 22.9753 42.2211 23.1758 42.5459 23.3567C42.8743 23.5347 43.2208 23.6815 43.5712 23.8292C43.9202 23.9758 44.2713 24.1157 44.6266 24.245C45.3348 24.505 46.0615 24.7247 46.7961 24.8687C46.9795 24.9012 47.165 24.9284 47.3462 24.9352C47.4368 24.938 47.527 24.9369 47.6112 24.9247C47.6954 24.9138 47.7758 24.8877 47.8178 24.8493C47.8573 24.8124 47.8654 24.7704 47.8466 24.6841C47.8275 24.5952 47.8073 24.5078 47.7759 24.4251C47.7168 24.2582 47.6232 24.111 47.4901 24.0161C47.357 23.9213 47.1861 23.8826 47.0103 23.8792C46.8344 23.8745 46.65 23.9067 46.467 23.9401C46.1025 24.0106 45.7442 24.1232 45.3942 24.2584C45.0456 24.3948 44.6958 24.548 44.3639 24.7153C44.0287 24.888 43.6871 25.0625 43.3686 25.2506C43.3502 25.2625 43.3306 25.2745 43.316 25.2847C43.3111 25.2877 43.3087 25.2905 43.3075 25.2919L43.3039 25.2948C43.3039 25.2948 43.3099 25.2891 43.3122 25.2864C43.3002 25.3119 43.3589 25.2269 43.3179 25.1683L43.3222 25.1744L43.3311 25.1879C43.3522 25.2236 43.3781 25.2563 43.4053 25.2889C43.4598 25.3541 43.5253 25.412 43.5969 25.4654C43.7387 25.5725 43.8997 25.6611 44.0672 25.7363C44.4025 25.8879 44.7645 25.9894 45.1297 26.0662C45.8613 26.2208 46.6133 26.3105 47.3614 26.3062C47.5483 26.3035 47.7347 26.2956 47.9175 26.2752C48.0977 26.2537 48.2875 26.2249 48.4289 26.1563C48.4623 26.1393 48.4876 26.1178 48.4944 26.1069C48.4989 26.0987 48.5006 26.1038 48.4894 26.0776C48.4846 26.0663 48.4719 26.0532 48.4617 26.0398L48.4184 25.9995C48.3903 25.9721 48.3535 25.9494 48.3194 25.9264C48.1728 25.8404 47.9956 25.7893 47.8173 25.7551C47.4556 25.6884 47.0772 25.6851 46.7032 25.7022C46.3278 25.7193 45.9518 25.7597 45.5781 25.8116C45.3907 25.8389 45.2048 25.8687 45.0192 25.9022L44.8808 25.9293C44.8388 25.9367 44.7912 25.9536 44.747 25.965L44.4761 26.0432C44.1195 26.1609 43.7687 26.3026 43.4392 26.4826C43.1097 26.6625 42.8016 26.8821 42.5414 27.1493C42.2811 27.4166 42.0619 27.7282 41.9326 28.0801C41.6589 28.7735 41.6994 29.5829 41.9774 30.2535L41.9806 30.261C42.0017 30.3135 41.977 30.3724 41.9258 30.3935C41.8747 30.4146 41.8146 30.3899 41.7935 30.3387C41.7933 30.3361 41.7918 30.3336 41.7917 30.3323L41.7907 30.3363Z" stroke="#CBE2D1" stroke-width="0.6" mask="url(#path-4-outside-1_1548_12015)"/>
<path d="M23.7789 17.7212C24.0094 11.9691 29.536 4.3723 36.0511 8.68675C38.3596 10.2155 33.4548 13.8797 31.3107 18.1906C29.1666 22.5015 29.9236 24.2396 27.7496 24.313C25.5756 24.3865 23.6253 21.5531 23.7789 17.7212Z" fill="#4EA692"/>
</g>
<defs>
<clipPath id="clip0_1548_12015">
<rect width="51.6944" height="60.5513" fill="white" transform="translate(7.10547 8.44922) rotate(-4.77434)"/>
</clipPath>
</defs>
</svg>
