<svg width="55" height="54" viewBox="0 0 55 54" fill="none" xmlns="http://www.w3.org/2000/svg">
<circle cx="27.4902" cy="27.1609" r="26.5293" fill="#6D597A"/>
<mask id="mask0_1576_1071" style="mask-type:alpha" maskUnits="userSpaceOnUse" x="0" y="0" width="55" height="54">
<circle cx="27.4902" cy="27.1609" r="26.5293" fill="#CBE2D1"/>
</mask>
<g mask="url(#mask0_1576_1071)">
<path d="M34.2321 31.1973C41.3636 31.2499 46.4213 34.7156 47.5958 41.9257C48.2783 46.1014 45.924 45.3441 43.1307 47.2689C41.025 48.7257 42.1255 51.413 42.2101 54.1214C42.3477 58.5653 42.4482 63.0039 42.4376 67.453C42.427 70.782 43.1095 73.7165 43.8502 76.9403C44.1676 78.3287 44.6914 79.9905 44.0777 81.3263C41.644 86.6064 29.7404 84.5396 25.1165 84.3398C22.6988 84.2346 15.5725 84.7026 13.8637 82.6832C12.7791 81.4 13.4722 78.0026 13.3611 76.4407C13.1442 73.3957 12.4511 70.356 12.1654 67.3321C11.4142 59.3121 6.79096 43.8315 6.79096 43.8315C6.79096 43.8315 10.5528 37.4399 12.9715 35.8585C15.2684 34.3568 19.6754 33.6182 19.6754 33.6182C19.6754 33.6182 19.9451 39.7554 30.206 37.3556C33.0946 36.6089 36.7556 33.9057 33.1316 31.1868C33.7083 31.1973 34.3537 31.1184 34.2215 31.1973H34.2321Z" fill="#4EA692"/>
<path d="M30.8727 15.2571C32.2588 15.4569 33.301 15.6199 34.375 15.5358C34.6395 15.5042 34.9146 15.4569 35.195 15.4043H35.2056C35.1421 15.4148 35.031 15.3149 35.0416 15.3149C35.031 15.2991 35.0204 15.2728 35.0151 15.2623V15.2518C35.0151 15.2518 35.0152 15.2518 35.0257 15.2676C35.031 15.2886 35.0363 15.3254 35.0416 15.357L35.0575 15.5673C35.0575 15.7093 35.0575 15.8513 35.0416 15.9986C35.0152 16.2773 34.9728 16.5823 34.8988 16.8348C34.8141 17.103 34.6713 17.3501 34.5178 17.5605C34.1898 17.976 33.7349 18.2021 33.2587 18.3073C32.7879 18.4019 32.3117 18.3125 31.9625 18.0759C31.7774 17.9654 31.6345 17.8024 31.5128 17.6131C31.3965 17.4185 31.3224 17.1924 31.2536 16.9189C31.1213 16.393 31.0367 15.7777 30.8727 15.2571ZM30.8092 15.1992C30.6452 15.8355 30.5764 16.3772 30.5764 17.003C30.5764 17.3028 30.6187 17.6499 30.7563 17.976C30.8939 18.3073 31.1319 18.6018 31.4282 18.8227C32.0366 19.2592 32.8302 19.3012 33.4703 19.0856C33.7983 18.9804 34.0946 18.8174 34.3485 18.5965C34.6078 18.3756 34.7982 18.0811 34.9199 17.7919C35.0522 17.4974 35.1051 17.1976 35.1739 16.9084C35.2215 16.5981 35.2585 16.3246 35.3114 16.0354L35.4014 15.6041L35.449 15.378C35.4543 15.3359 35.4596 15.2991 35.4648 15.2518C35.4648 15.2255 35.4648 15.2045 35.4648 15.1571V15.1203C35.4648 15.1203 35.4384 15.0677 35.4225 15.0414C35.4331 15.0309 35.3061 14.9257 35.2373 14.9362H35.2215C34.9199 14.8942 34.6131 14.8468 34.2956 14.8258C33.0418 14.7732 31.7562 14.9678 30.8145 15.1939L30.8092 15.1992Z" fill="#CBE2D1"/>
<path d="M28.3102 15.198C27.3685 14.9666 26.0829 14.7773 24.829 14.8299C24.5169 14.8509 24.2048 14.893 23.9032 14.9351H23.8873C23.8186 14.9246 23.6916 15.0297 23.7022 15.0403C23.6863 15.0613 23.6704 15.0981 23.6651 15.1191V15.156C23.6493 15.198 23.6546 15.2243 23.6546 15.2506C23.6546 15.2979 23.6651 15.34 23.6704 15.3768L23.718 15.603L23.808 16.0342C23.8609 16.3235 23.8979 16.5969 23.9455 16.9072C24.0143 17.1965 24.0672 17.5015 24.1995 17.7907C24.3212 18.0852 24.5116 18.3745 24.7708 18.5954C25.0301 18.8162 25.3211 18.9793 25.6491 19.0844C26.2892 19.3001 27.0828 19.258 27.6912 18.8215C27.9875 18.6006 28.2255 18.3061 28.3631 17.9748C28.5006 17.6435 28.543 17.2964 28.543 17.0019C28.543 16.376 28.4742 15.8344 28.3102 15.198ZM28.2467 15.2559C28.0827 15.7765 28.0033 16.3918 27.8658 16.9177C27.797 17.1912 27.7229 17.4173 27.6065 17.6119C27.4849 17.8012 27.342 17.9643 27.1569 18.0747C26.8077 18.3114 26.3315 18.3955 25.8607 18.3061C25.3898 18.2009 24.9296 17.9695 24.6016 17.5593C24.4481 17.349 24.3053 17.1018 24.2206 16.8336C24.1466 16.5811 24.1042 16.2761 24.0778 15.9974C24.0672 15.8554 24.0619 15.7081 24.0619 15.5662L24.0778 15.3558C24.0778 15.3242 24.0831 15.2874 24.0937 15.2664C24.0937 15.2559 24.1042 15.2401 24.1042 15.2506V15.2611C24.1042 15.2611 24.0884 15.2979 24.0778 15.3137C24.0884 15.3137 23.9773 15.4189 23.9138 15.4031H23.9244C24.2048 15.4557 24.4799 15.503 24.7444 15.5346C25.8184 15.6187 26.8606 15.4557 28.2467 15.2559Z" fill="#CBE2D1"/>
<path d="M30.7773 16.3978C30.1795 15.6826 28.7775 15.7246 28.2379 16.4714" stroke="#CBE2D1" stroke-width="1.63" stroke-miterlimit="10"/>
<path d="M34.4234 17.9448C34.1324 19.0282 33.9949 20.1484 33.8626 21.2475L33.7621 22.0679C33.7198 22.3361 33.6986 22.6622 33.6986 22.9356C33.6986 23.2196 33.6986 23.4826 33.6722 23.735C33.651 23.9874 33.5875 24.1925 33.4923 24.4187C33.2965 24.8657 32.9791 25.2969 32.6564 25.7545C32.3178 26.2278 32.0744 26.7484 31.7993 27.206C31.5136 27.6582 31.2121 28.1053 30.7306 28.2788C30.2386 28.4576 29.6725 28.4629 29.1223 28.4629C28.0008 28.4261 26.8633 28.5155 25.784 28.405C24.6995 28.3051 23.7155 27.8633 23.2975 26.9588C22.3399 25.0498 22.0542 22.8567 21.6416 20.6795L21.5464 20.1852L21.0861 20.3429C20.8798 20.4113 20.684 20.4429 20.5465 20.4113C20.4089 20.3797 20.2872 20.2798 20.1814 20.101C19.9751 19.7329 19.9063 19.2017 19.8693 18.6969C19.8534 18.4392 19.8481 18.1815 19.8693 17.929C19.8851 17.6819 19.9328 17.4242 20.0333 17.2611C20.0809 17.1823 20.1391 17.1454 20.2132 17.1402C20.2872 17.1402 20.3877 17.2033 20.4671 17.2874C20.6258 17.4662 20.7581 17.7082 20.811 17.9553H20.8956C20.8956 17.6661 20.8163 17.3926 20.6523 17.1454C20.5676 17.0245 20.4565 16.893 20.2608 16.8457C20.0703 16.7984 19.8534 16.8983 19.737 17.0298C19.5095 17.298 19.4513 17.5872 19.3878 17.8659C19.3296 18.1447 19.3032 18.4234 19.2873 18.6969C19.2609 19.2491 19.2556 19.8223 19.5148 20.4323C19.6418 20.7268 19.9222 21.0529 20.3031 21.1686C20.684 21.2896 21.0385 21.2264 21.3453 21.1476L20.7951 20.811C20.9432 21.9101 21.0914 23.025 21.3665 24.1294C21.6522 25.2338 22.0331 26.3067 22.6045 27.3374C22.9166 27.8791 23.4192 28.3314 23.9906 28.5786C24.5619 28.831 25.1703 28.8836 25.7417 28.8888C26.895 28.8888 27.9902 28.6732 29.1012 28.7258C29.662 28.7311 30.2333 28.7469 30.8153 28.5943C31.429 28.4313 31.8628 27.9475 32.212 27.5057C32.5717 27.0482 32.8574 26.5854 33.2119 26.1857C33.5611 25.7597 33.9367 25.3022 34.1853 24.729C34.307 24.445 34.3864 24.1031 34.4023 23.8034C34.4234 23.4983 34.4128 23.2091 34.4023 22.9356C34.3917 22.6516 34.3864 22.4203 34.4128 22.1363C34.434 21.8575 34.4446 21.5735 34.4499 21.2948C34.4869 20.1799 34.4499 19.0755 34.4922 17.9606L34.4075 17.9501L34.4234 17.9448Z" fill="#CBE2D1"/>
<path d="M30.2156 16.2466C30.2579 16.904 30.3479 17.5456 30.4484 18.1767L30.6071 19.118C30.6547 19.4441 30.7499 19.7649 30.824 20.0647C30.9721 20.6484 31.115 21.3479 30.496 21.553C30.2209 21.6581 29.9035 21.6844 29.5913 21.6581C29.2792 21.6318 28.9617 21.5687 28.6761 21.4267C28.9459 21.595 29.258 21.7002 29.5754 21.7633C29.8929 21.8264 30.2315 21.8422 30.5648 21.7528C30.7288 21.7002 30.9034 21.6318 31.0303 21.4898C31.1573 21.3531 31.2472 21.1638 31.2684 20.9902C31.3266 20.6379 31.2843 20.3066 31.242 19.9858C31.1996 19.6597 31.1467 19.3599 31.1361 19.0602L31.0885 18.1083C31.0568 17.4772 31.0462 16.8514 31.0727 16.2361H30.2103L30.2156 16.2466Z" fill="#CBE2D1"/>
<path d="M19.4924 19.4536C19.3655 19.0907 19.2861 18.7173 19.1591 18.344C19.0375 17.9653 18.8576 17.613 18.6989 17.2659C18.3761 16.5664 18.0587 15.8722 17.8788 15.1465C17.5667 13.6845 17.5614 12.1331 17.8418 10.6763C17.9899 9.93478 18.2068 9.26162 18.6565 8.71994C19.0956 8.17301 19.7146 7.75754 20.3548 7.3263C20.5135 7.2106 20.6669 7.14224 20.8944 6.9161C21.0214 6.8004 21.0955 6.52693 21.0902 6.42175L21.1008 6.12725C21.1325 5.78541 21.1907 5.44883 21.3177 5.13329C21.5663 4.50221 22.0954 3.99208 22.7143 3.61343C23.9735 2.86139 25.5342 2.56163 27.0525 2.49852C28.5815 2.49326 30.1528 2.61948 31.5918 3.14012C32.3113 3.40307 32.9832 3.7712 33.4646 4.34444C33.9672 4.90189 34.3005 5.59609 34.6232 6.29028C34.9513 6.98447 35.2422 7.71021 35.6919 8.38863C36.1257 9.06178 36.7923 9.67708 37.6229 9.93478L37.4431 9.44569C37.4431 9.44569 37.3584 9.50354 37.2632 9.54561C37.1574 9.5982 37.0516 9.62976 36.8823 9.74545C36.8611 9.75597 36.8294 9.78753 36.8082 9.80856C36.7818 9.83486 36.7394 9.89271 36.7236 9.919C36.6865 9.98737 36.6654 10.0505 36.6548 10.1136C36.6336 10.2345 36.6442 10.3292 36.6548 10.4081C36.6812 10.5711 36.7236 10.6921 36.75 10.8025C36.7818 10.9287 36.7871 10.9603 36.7871 11.076C36.7871 11.1759 36.7765 11.2758 36.7553 11.381C36.713 11.5809 36.6442 11.7807 36.5384 11.97C36.4379 12.1646 36.3109 12.3487 36.1681 12.538L35.9512 12.822L35.7237 13.0692C35.4115 13.3847 35.0571 13.6687 34.6444 13.8633C33.835 14.2682 32.8985 14.4049 31.978 14.3366C31.0574 14.2577 30.1528 13.979 29.3592 13.5267L28.8672 13.248L28.6926 13.7791C28.518 14.3155 28.2482 14.4944 27.6398 14.568C27.0473 14.6311 26.4071 14.6363 25.8093 14.5732C25.2062 14.5049 24.6295 14.3418 24.074 14.0999C23.5185 13.858 22.9895 13.5267 22.4763 13.1638L21.7621 12.659L21.8679 13.5057C21.9314 14.0368 21.8679 14.5838 21.7515 15.1412C21.6351 15.7039 21.4711 16.2824 21.4023 16.903C21.3177 17.5183 21.3917 18.1704 21.5187 18.7489C21.6457 19.3379 21.7991 19.9217 22.0372 20.4844L22.143 20.2214C21.889 20.3424 21.6086 20.4265 21.3229 20.5002L21.5346 20.6474C21.3653 19.685 21.3653 18.6595 21.0743 17.6918L20.9896 17.7129C21.1642 18.6911 21.1007 19.6797 21.1854 20.6895L21.2013 20.8683L21.397 20.8367C21.7039 20.7841 22.016 20.7158 22.3176 20.5896L22.4921 20.5159L22.4234 20.3266C22.2329 19.7902 22.1165 19.2222 22.0319 18.649C21.9419 18.0705 21.9208 17.5341 22.0266 16.9766C22.1218 16.4244 22.2911 15.8722 22.4392 15.2832C22.5874 14.6995 22.6879 14.0631 22.6297 13.411L22.0213 13.7581C22.5451 14.1578 23.1058 14.5364 23.7248 14.8362C24.3385 15.1412 25.021 15.3358 25.7035 15.4252C26.3912 15.5093 27.0578 15.5146 27.7509 15.4515C28.1001 15.4094 28.5127 15.3358 28.8831 15.0623C29.2534 14.7889 29.4544 14.3944 29.5708 14.0473L28.9042 14.2998C29.3698 14.5627 29.8618 14.7678 30.3644 14.9256C30.8723 15.0728 31.396 15.157 31.9251 15.1991C32.9779 15.2569 34.073 15.0834 35.0306 14.5785C35.512 14.3366 35.9406 13.9842 36.3109 13.5951C36.4961 13.39 36.6601 13.1901 36.8029 12.9798C36.9564 12.7694 37.0939 12.5433 37.2156 12.2908C37.4484 11.7912 37.6018 11.2127 37.4272 10.5974C37.3902 10.4712 37.3478 10.3608 37.332 10.2766C37.3108 10.1767 37.3478 10.1925 37.2791 10.2661C37.3108 10.2398 37.4378 10.1767 37.5542 10.1188C37.6759 10.0452 37.8081 10.0084 37.9721 9.79279L38.2578 9.42465L37.7922 9.3037C37.1151 9.13015 36.5437 8.67261 36.1099 8.0836C35.6655 7.49459 35.3375 6.78988 34.9777 6.10621C34.6232 5.41728 34.2212 4.72835 33.6868 4.13408C33.5599 3.98156 33.3958 3.86061 33.253 3.71861C33.0943 3.5924 32.925 3.48722 32.761 3.37152C32.4171 3.17167 32.0521 3.0139 31.6764 2.88243C30.1792 2.3723 28.6132 2.20927 27.042 2.14091C25.4707 2.11987 23.8571 2.31445 22.3916 3.07175C21.6774 3.45566 20.9791 4.03416 20.6352 4.84404C20.4606 5.23847 20.3601 5.66971 20.3283 6.09569L20.3178 6.37968C20.3019 6.46908 20.323 6.3902 20.3178 6.41649C20.2701 6.46908 20.0797 6.59004 19.9263 6.69522C19.2808 7.12646 18.6036 7.59977 18.0746 8.26767C17.8154 8.59899 17.6037 8.97763 17.4556 9.37206C17.3128 9.77701 17.2334 10.1609 17.1646 10.5553C16.8948 12.1383 17.0165 13.7371 17.4239 15.2727C17.6514 16.0458 18.0375 16.74 18.4238 17.4078C18.6142 17.7497 18.8153 18.0705 18.9634 18.4176C19.1115 18.7699 19.2438 19.1381 19.4131 19.4852L19.4924 19.4536Z" fill="#CBE2D1"/>
<path d="M21.1225 20.7937C20.9584 21.3038 20.8897 21.8297 20.8579 22.3451C20.8368 22.8658 20.8315 23.3811 20.9214 23.8913C21.0113 24.4014 21.1859 24.901 21.2441 25.4111C21.3023 25.9212 21.2865 26.4366 21.2177 26.9468C21.1489 27.4569 21.0801 27.9618 21.0378 28.4614L20.8579 29.9497C20.7204 31.0541 21.0484 31.9744 20.313 32.7685L20.3606 32.8421C20.6199 32.758 20.8685 32.6002 21.0642 32.3793C21.26 32.1584 21.387 31.8797 21.4716 31.6115C21.6409 31.0646 21.678 30.5544 21.7679 30.0811C21.8472 29.5552 21.8631 29.0293 21.8525 28.5034C21.8525 27.9775 21.7891 27.4569 21.6885 26.9415C21.5986 26.4261 21.5245 25.916 21.5245 25.4006C21.5192 24.8852 21.6198 24.3646 21.6409 23.8492C21.6621 23.3338 21.5933 22.8289 21.5298 22.3188C21.4505 21.814 21.3764 21.3091 21.2124 20.7937H21.1277H21.1225Z" fill="#CBE2D1"/>
<path d="M32.1929 27.379C32.0288 28.2994 32.0447 29.2723 32.2881 30.2084C32.4098 30.6764 32.5949 31.134 32.833 31.56C32.9494 31.7756 33.0817 31.9754 33.2298 32.1805C33.3832 32.3961 33.5843 32.575 33.7694 32.7275C33.9599 32.88 34.145 33.0062 34.2456 33.1166C34.3355 33.2166 34.3672 33.327 34.3143 33.5268C34.272 33.7162 34.1556 33.916 34.0445 34.1053C33.9334 34.2999 33.8117 34.4892 33.6583 34.6575C33.0764 35.357 32.2722 35.8408 31.431 36.1669C30.5793 36.4877 29.701 36.698 28.8175 36.8716C27.9287 37.0346 27.0293 37.1135 26.13 37.1608C25.2253 37.2187 24.3365 37.2029 23.4106 37.1608C22.506 37.103 21.5854 37.0714 20.7389 36.7033L20.6913 36.7717C21.432 37.4027 22.416 37.6394 23.3313 37.8235C24.2465 38.0075 25.22 38.0917 26.167 38.0706C27.1193 38.0443 28.0663 37.8918 28.9921 37.6604C29.9179 37.4343 30.8173 37.0767 31.6374 36.5876C32.4574 36.1038 33.2139 35.5253 33.8646 34.8416C33.944 34.7522 34.0339 34.6733 34.1133 34.5839L34.3355 34.3052C34.4889 34.1211 34.6476 33.9423 34.7587 33.6899C34.8169 33.5689 34.8646 33.4269 34.8698 33.2639C34.8804 33.0956 34.8222 32.922 34.7482 32.7801C34.5842 32.5118 34.3937 32.3541 34.2456 32.1963C34.0869 32.0438 33.9599 31.886 33.8435 31.7282C33.7218 31.5547 33.6054 31.3654 33.489 31.1813C33.2668 30.8079 33.0817 30.4135 32.9229 30.0033C32.6002 29.1829 32.4415 28.2888 32.2775 27.3738H32.1929V27.379Z" fill="#CBE2D1"/>
<path d="M33.3108 31.1496C35.9825 31.7491 38.7812 31.3389 41.3629 32.012C42.0031 32.1803 42.6221 32.4222 43.1829 32.7378C43.7331 33.0849 44.2515 33.4793 44.6959 33.9631C45.1403 34.4417 45.5477 34.9571 45.8969 35.5198C46.2566 36.072 46.5741 36.6557 46.865 37.25C47.447 38.4491 47.9126 39.7007 48.3517 40.9681C48.4522 41.2784 48.5897 41.615 48.6638 41.9148L48.7696 42.3618C48.8119 42.509 48.7855 42.6616 48.8014 42.8088C48.8066 43.4031 48.6374 43.9973 48.2723 44.4917C47.9231 44.9913 47.4682 45.4436 46.9338 45.8117C46.4153 46.1956 45.8334 46.5059 45.2356 46.7741C44.0346 47.3105 42.7438 47.6787 41.4423 47.8575L41.1566 47.8943L41.1354 48.1625C40.8974 51.0287 41.4158 53.8159 41.7597 56.5769C41.8497 57.2711 41.9184 57.9548 41.9978 58.6595L42.2676 60.7473L42.876 64.8967C43.0718 66.2798 43.1987 67.6682 43.2411 69.0566C43.2728 70.445 43.1829 71.8439 43.1881 73.248C42.8919 76.1931 45.3361 78.628 44.971 81.2786C44.8652 81.9096 44.4949 82.4355 43.9711 82.7984C43.4474 83.1665 42.8019 83.4032 42.1459 83.5978C41.4846 83.7924 40.8021 83.9449 40.1197 84.1184C39.4425 84.2867 38.7653 84.4445 38.0775 84.5865C35.3476 85.1439 32.5648 85.4805 29.782 85.5594C28.3906 85.5962 26.994 85.5752 25.6078 85.4753C24.227 85.3701 22.8303 85.207 21.4442 85.0388C18.672 84.6969 15.9315 84.1763 13.408 83.0666L13.6672 83.4348C13.5297 81.2786 13.6778 79.0645 13.5085 76.8242C13.318 74.6049 12.99 72.4171 12.6038 70.2399C12.2176 68.0679 11.805 65.8959 11.4399 63.7292C11.0855 61.5625 10.731 59.3747 10.8368 57.1765H10.7522C10.5405 59.38 10.7945 61.5993 11.0537 63.7871C11.35 65.9748 11.6939 68.1573 12.006 70.3398C12.3181 72.517 12.6197 74.6995 12.7573 76.882C12.8895 79.0487 12.662 81.2523 12.7996 83.4979L12.8154 83.7556L13.0588 83.8607C15.6882 85.0335 18.5345 85.5752 21.3331 85.9328C22.7351 86.1063 24.1265 86.2904 25.5549 86.3746C26.9728 86.4587 28.3959 86.4692 29.8138 86.4114C32.6495 86.2957 35.4746 85.9381 38.2415 85.3227C38.9293 85.165 39.6224 84.9914 40.3048 84.8126C40.9767 84.6286 41.6645 84.4603 42.3523 84.2446C43.0347 84.0238 43.7331 83.7661 44.3468 83.3085C44.9658 82.8615 45.4366 82.141 45.5318 81.3785C45.7011 79.8428 45.0663 78.486 44.5161 77.2186C44.2357 76.577 43.9553 75.9459 43.7754 75.2885C43.5796 74.6312 43.5426 73.958 43.5267 73.2585C43.495 71.8702 43.5796 70.4713 43.5373 69.0619C43.4897 67.6577 43.3257 66.264 43.1617 64.8704L42.6062 60.7158C42.5163 60.0216 42.4369 59.3327 42.3787 58.6385C42.3258 57.9495 42.2782 57.2448 42.2094 56.5454C41.9502 53.7634 41.5322 50.9708 41.8444 48.2519L41.5375 48.5569C42.9342 48.3939 44.2727 48.0152 45.553 47.463C46.1931 47.1843 46.8174 46.8583 47.3941 46.4428C47.9813 46.0484 48.5104 45.5382 48.923 44.9229C49.3516 44.3234 49.5791 43.5503 49.5526 42.8088C49.5367 42.6247 49.5526 42.4302 49.505 42.2514L49.3674 41.7149C49.2722 41.3626 49.1452 41.0681 49.0341 40.742C48.5739 39.4693 48.0819 38.1966 47.4682 36.966C46.8598 35.7407 46.1085 34.5521 45.1192 33.5687C44.6272 33.0691 44.0558 32.6536 43.4474 32.296C42.8178 31.9647 42.1565 31.728 41.4793 31.5755C38.7441 30.9602 36.009 31.5177 33.3373 31.0759L33.3214 31.1601L33.3108 31.1496Z" fill="#CBE2D1"/>
<path d="M20.051 33.6071C17.4557 34.4799 14.6296 34.3616 12.1314 35.2983C11.5121 35.5319 10.9214 35.8366 10.3963 36.2085C9.88499 36.6107 9.41013 37.0566 9.01819 37.5839C8.6257 38.1059 8.27386 38.6606 7.9848 39.2565C7.68413 39.8429 7.42882 40.4564 7.20091 41.0776C6.74618 42.3304 6.41265 43.6236 6.10707 44.9296C6.03921 45.2486 5.93723 45.5976 5.89458 45.9035L5.83561 46.359C5.80875 46.5099 5.85085 46.6588 5.8503 46.8069C5.90654 47.3986 6.13643 47.9721 6.55068 48.426C6.94968 48.8868 7.44903 49.2896 8.0186 49.6004C8.57401 49.9286 9.18495 50.177 9.80733 50.3819C11.0573 50.7912 12.3794 51.0237 13.6924 51.0669L13.9803 51.0739L14.0291 51.3385C14.5626 54.1646 14.3353 56.9906 14.2791 59.7723C14.2614 60.4721 14.2638 61.1592 14.2578 61.8684L14.2055 63.9729L14.0298 68.163C13.9783 69.5589 13.9957 70.953 14.0973 72.3383C14.2094 73.7225 14.4436 75.1046 14.5837 76.5018C15.1832 79.4003 13.0041 82.0751 13.6415 84.6737C13.812 85.2904 14.2348 85.7752 14.7933 86.0819C15.3523 86.3938 16.0188 86.5624 16.6914 86.6881C17.3693 86.8132 18.0639 86.8942 18.7607 86.9962C19.4517 87.0935 20.1415 87.1803 20.8403 87.2504C23.6132 87.5223 26.4159 87.5691 29.192 87.3596C30.5797 87.2522 31.9667 87.0867 33.335 86.8438C34.6975 86.5963 36.0699 86.2896 37.4311 85.9788C40.1531 85.3519 42.8249 84.5504 45.2201 83.1855L45.0004 83.5785C44.914 81.4197 44.5375 79.2328 44.4741 76.987C44.4338 74.7599 44.5336 72.5499 44.6924 70.3444C44.8518 68.1441 45.0374 65.9411 45.1763 63.7483C45.3046 61.5565 45.4307 59.3438 45.098 57.1683L45.1822 57.1595C45.6207 59.3293 45.5978 61.563 45.5664 63.7658C45.4981 65.9725 45.382 68.1789 45.2974 70.3819C45.2123 72.5798 45.1382 74.7818 45.2273 76.9668C45.32 79.1356 45.7743 81.3037 45.8699 83.5515L45.8808 83.8094L45.6496 83.9392C43.1557 85.3778 40.3808 86.2112 37.6341 86.8565C36.2576 87.1742 34.8928 87.5013 33.4807 87.7328C32.0792 87.9633 30.6648 88.121 29.2486 88.2102C26.4161 88.3886 23.5691 88.3253 20.7534 87.9997C20.053 87.9139 19.3457 87.8131 18.6484 87.7058C17.9611 87.5923 17.2596 87.4961 16.5532 87.3528C15.8515 87.2038 15.1302 87.0197 14.4725 86.6282C13.8106 86.2476 13.2677 85.5797 13.094 84.8311C12.7667 83.3212 13.2577 81.906 13.6738 80.5884C13.8863 79.9213 14.0999 79.2645 14.2108 78.5921C14.3374 77.918 14.3046 77.2446 14.248 76.5473C14.1359 75.1631 13.9069 73.7804 13.8031 72.3742C13.7052 70.9727 13.724 69.5695 13.7429 68.1664L13.8655 63.9766C13.8831 63.2768 13.8907 62.5834 13.8768 61.8869C13.8581 61.1962 13.8325 60.4903 13.8285 59.7875C13.7984 56.9936 13.9251 54.1728 13.3333 51.5008L13.67 51.7724C12.264 51.7548 10.8935 51.5167 9.56291 51.1C8.89735 50.889 8.24267 50.6293 7.62611 50.2758C7.00119 49.9442 6.42219 49.4916 5.94807 48.9223C5.45979 48.3703 5.15351 47.625 5.10308 46.8847C5.09981 46.7 5.06389 46.5081 5.09275 46.3253L5.17404 45.7775C5.23229 45.4172 5.3281 45.1111 5.40486 44.7753C5.73095 43.4618 6.0886 42.1451 6.57164 40.8576C7.04996 39.5758 7.67417 38.3159 8.5564 37.2354C8.99406 36.6875 9.51937 36.2152 10.0875 35.7965C10.6794 35.4018 11.3127 35.098 11.9704 34.8762C14.6272 33.9811 17.4054 34.2525 20.0171 33.5366L20.0416 33.6187L20.051 33.6071Z" fill="#CBE2D1"/>
<path d="M28.5806 11.9858C28.4643 12.2908 28.2421 12.5275 27.9722 12.68C27.7077 12.843 27.4009 12.9429 27.094 13.0008C26.475 13.1165 25.8349 13.148 25.2159 13.0481C23.9726 12.8693 22.7717 12.2908 21.9305 11.3074C22.2532 11.8701 22.7505 12.3329 23.3166 12.6747C23.8827 13.0218 24.5228 13.2322 25.1789 13.3321C25.8349 13.4268 26.5121 13.3899 27.1522 13.2111C27.4696 13.1217 27.7871 12.9903 28.0569 12.7904C28.3214 12.5853 28.5383 12.3013 28.5859 11.9805L28.5806 11.9858Z" fill="#CBE2D1"/>
<path d="M26.3463 11.1646C26.0553 11.3224 25.7484 11.4066 25.4416 11.4118C25.1347 11.4118 24.8279 11.3592 24.5316 11.2698C24.2301 11.1857 23.9391 11.0595 23.6428 10.9385L22.754 10.5388C22.9921 10.765 23.2566 10.9595 23.5423 11.1331C23.8227 11.3066 24.1296 11.4434 24.4523 11.5433C24.775 11.6327 25.1242 11.6853 25.4681 11.6327C25.8119 11.5854 26.1347 11.4223 26.3516 11.1699L26.3463 11.1646Z" fill="#CBE2D1"/>
<path d="M37.4387 9.36145C36.6769 9.72432 35.8145 9.89787 34.9522 9.93994C34.0898 9.97676 33.2116 9.89261 32.3651 9.68225C31.5186 9.47189 30.6986 9.15109 29.9526 8.68829C29.212 8.23076 28.5454 7.62071 28.1063 6.85815C28.5136 7.63649 29.1644 8.28335 29.8944 8.7777C30.6298 9.27731 31.4552 9.64018 32.3069 9.88735C33.164 10.1345 34.0581 10.2607 34.9575 10.2607C35.8568 10.2555 36.7668 10.1135 37.6133 9.75062L37.4334 9.36145H37.4387Z" fill="#CBE2D1"/>
<path d="M36.7496 9.84536C36.3846 10.4449 35.7127 10.8183 35.0038 11.0234C34.2895 11.2285 33.5277 11.2969 32.7659 11.3074C32.0093 11.3547 31.2581 11.1969 30.5756 10.8551C29.8984 10.5185 29.2953 10.0137 28.8668 9.38257C29.2636 10.0347 29.8508 10.5711 30.5227 10.9498C31.1946 11.3337 31.9829 11.5335 32.7606 11.523C33.533 11.544 34.3107 11.5177 35.0831 11.3337C35.8397 11.1549 36.6279 10.7815 37.1094 10.082L36.7496 9.85062V9.84536Z" fill="#CBE2D1"/>
<path d="M20.9746 6.63197C21.0752 6.2428 21.3132 5.85889 21.5936 5.51706C21.874 5.17522 22.1967 4.85442 22.5459 4.57569C23.2284 3.99194 24.096 3.68166 25.0007 3.60803C25.9054 3.5344 26.8312 3.57122 27.7147 3.80787C28.6141 4.00772 29.3812 4.5494 30.2383 4.88597C29.3971 4.51784 28.6511 3.94461 27.7412 3.70269C26.8524 3.42922 25.9107 3.35034 24.9848 3.38715C24.0537 3.42923 23.0961 3.72373 22.3502 4.318C21.9745 4.59673 21.6201 4.91753 21.3079 5.26988C20.9958 5.6275 20.7101 6.02192 20.562 6.51627L20.9799 6.62145L20.9746 6.63197Z" fill="#CBE2D1"/>
<path d="M22.0156 13.8162C21.9151 14.3578 21.5501 14.8417 21.0369 15.1309C20.529 15.4254 19.9206 15.5727 19.3122 15.6095C19.9206 15.641 20.5502 15.5727 21.1374 15.3202C21.7194 15.0783 22.2326 14.5682 22.4336 13.9266L22.0156 13.8162Z" fill="#CBE2D1"/>
<path d="M22.0563 13.1101C21.6807 13.3994 21.4056 13.7044 20.9929 13.8306C20.5908 13.9673 20.1252 13.9831 19.6967 14.1093C20.1411 14.0515 20.5802 14.1093 21.0458 14.0357C21.2733 13.9989 21.5114 13.9147 21.7124 13.799C21.9187 13.6886 22.1039 13.5624 22.2891 13.4677L22.0563 13.1101Z" fill="#CBE2D1"/>
<path d="M30.1003 23.7975C30.3383 23.6607 30.5447 23.4504 30.6505 23.1769L30.6875 23.077L30.5711 23.1085C29.9045 23.2768 29.2062 23.2505 28.5184 23.1979C27.8306 23.1454 27.1376 23.0454 26.4234 23.0349H26.2752L26.2911 23.1769C26.3176 23.4241 26.4075 23.6765 26.5768 23.8658C26.7408 24.0552 26.9577 24.1866 27.1799 24.276C27.6243 24.4548 28.1004 24.4811 28.5607 24.4496C28.1057 24.4023 27.6508 24.3129 27.254 24.1183C26.8519 23.9289 26.5715 23.5713 26.5609 23.1559L26.4234 23.2979C27.1111 23.3294 27.8042 23.4293 28.5078 23.4662C29.2114 23.503 29.9415 23.4662 30.6134 23.2242L30.5394 23.1506C30.4812 23.3978 30.3119 23.6239 30.1055 23.8027L30.1003 23.7975Z" fill="#CBE2D1"/>
<path d="M28.9062 25.1708C28.5095 25.155 28.1127 25.155 27.7106 25.1708V25.1971C27.8111 25.297 27.9116 25.3443 28.0069 25.3811C28.1074 25.4179 28.2079 25.4179 28.3031 25.439C28.4037 25.4179 28.5042 25.4232 28.5994 25.3811C28.6999 25.3443 28.8004 25.297 28.8957 25.1971V25.1708H28.9062Z" fill="#CBE2D1"/>
<path d="M28.2613 31.0183C28.055 31.276 27.8751 31.5179 27.7164 31.7966C27.6423 31.9386 27.5683 32.0859 27.5312 32.2489C27.4889 32.4067 27.4624 32.5855 27.5154 32.7485C27.6476 32.4488 27.8169 32.2121 27.965 31.9334C28.0391 31.7966 28.1132 31.6547 28.1661 31.5021C28.219 31.3496 28.2666 31.1866 28.2613 31.0183Z" fill="#CBE2D1"/>
<path d="M21.7296 24.9539C21.8513 25.9163 22.1581 26.8367 22.6078 27.6781C23.0628 28.5143 23.6712 29.3084 24.523 29.7922C25.3641 30.255 26.3111 30.4917 27.2581 30.539C28.2051 30.5811 29.1733 30.4233 30.0039 29.9763C29.1574 30.3918 28.1946 30.5075 27.2634 30.4338C26.3376 30.355 25.417 30.0815 24.6288 29.6082C23.8511 29.1243 23.2956 28.3513 22.8935 27.5361C22.4914 26.7105 22.2375 25.8112 22.1581 24.9119L21.7296 24.9539Z" fill="#CBE2D1"/>
<path d="M33.7021 31.848C34.0936 31.9322 34.4904 31.9637 34.8343 32.09C35.1835 32.2057 35.4215 32.4791 35.485 32.842C35.6543 33.5677 35.2628 34.2987 34.792 34.893C33.8344 36.1131 32.5541 37.065 31.1468 37.7329C29.7395 38.406 28.1894 38.7742 26.6182 38.8005C25.8352 38.8373 25.0469 38.8583 24.2639 38.8005C23.4862 38.7374 22.6926 38.6164 21.989 38.2693C22.6926 38.6269 23.4809 38.7637 24.2639 38.8373C25.0469 38.9057 25.8352 38.9004 26.6234 38.8741C28.2 38.8741 29.7766 38.5217 31.2103 37.8644C32.644 37.2122 33.9614 36.2656 34.9613 35.0298C35.2099 34.7195 35.4427 34.3881 35.5961 34.0095C35.7548 33.6361 35.8183 33.2049 35.7284 32.7947C35.6914 32.5896 35.6067 32.3792 35.4639 32.2109C35.321 32.0374 35.1253 31.9217 34.9295 31.848C34.5327 31.7008 34.1359 31.664 33.7656 31.5798L33.7021 31.8586V31.848Z" fill="#CBE2D1"/>
<path d="M23.9961 16.3093L20.5732 17.1718" stroke="#CBE2D1" stroke-width="1.09" stroke-miterlimit="10"/>
</g>
</svg>
