<svg width="55" height="24" viewBox="0 0 55 24" fill="none" xmlns="http://www.w3.org/2000/svg">
<path d="M41.899 24C35.7036 24 31.1742 19.7657 27.2469 15.4083C23.3197 19.7657 18.7903 24 12.5948 24C5.70589 24 0.121094 18.6274 0.121094 12C0.121094 5.37267 5.70589 -4.76837e-07 12.5948 -4.76837e-07C18.7711 -4.76837e-07 23.1466 4.11704 27.2469 8.67806C31.3086 4.148 35.7036 -4.76837e-07 41.899 -4.76837e-07C48.7879 -4.76837e-07 54.3727 5.37267 54.3727 12C54.3727 18.6274 48.7879 24 41.899 24ZM23.4029 11.9012C19.3987 7.4884 16.3556 4.93057 12.5948 4.93057C8.53629 4.93057 5.24666 8.09558 5.24666 12C5.24666 15.9045 8.53629 19.0695 12.5948 19.0695C16.3877 19.0695 19.6424 16.3143 23.3775 12.1789L23.4927 12.0432L23.4029 11.9012ZM41.899 4.93057C38.1319 4.93057 34.9862 7.59939 31.1293 11.9012L31.0011 12.0432L31.1164 12.1789C34.8451 16.3143 38.1382 19.0695 41.899 19.0695C45.9575 19.0695 49.2475 15.9045 49.2475 12C49.2475 8.09558 45.9575 4.93057 41.899 4.93057Z" fill="white" fill-opacity="0.05"/>
</svg>
