<svg width="334" height="208" viewBox="0 0 334 208" fill="none" xmlns="http://www.w3.org/2000/svg">
<path d="M232.486 203.786C195.197 191.814 176.035 157.832 160.734 124.279C128.76 142.654 93.3982 159.13 56.1089 147.158C14.6453 133.846 -8.69084 91.0415 3.98736 51.5531C16.6656 12.0648 60.5576 -9.15542 102.021 4.15696C139.195 16.0921 157.655 49.0783 173.609 84.1782C206.721 65.0353 241.109 48.8128 278.398 60.785C319.862 74.0973 343.198 116.902 330.52 156.39C317.842 195.879 273.95 217.099 232.486 203.786ZM144.306 95.9548C128.647 61.9237 115.225 40.8026 92.5889 33.5352C68.1611 25.6924 42.3066 38.1938 34.8374 61.4579C27.3682 84.7221 41.1132 109.937 65.5411 117.78C88.3695 125.11 113.23 114.983 143.622 97.5599L144.575 96.9741L144.306 95.9548ZM268.966 90.1632C246.293 82.8837 222.253 92.7066 190.81 110.885L189.767 111.483L190.201 112.515C204.733 144.361 219.283 167.141 241.918 174.408C266.346 182.251 292.202 169.75 299.672 146.486C307.141 123.222 293.394 98.0061 268.966 90.1632Z" fill="#4EA692" fill-opacity="0.07"/>
</svg>
