<svg width="64" height="65" viewBox="0 0 64 65" fill="none" xmlns="http://www.w3.org/2000/svg">
<path d="M28.0088 38.1503C27.3551 37.1621 26.5187 36.2931 25.814 35.3352C25.3218 34.66 24.7865 33.9676 24.5003 33.1957C23.5862 30.72 24.0236 28.4167 25.7512 26.4531C26.5899 25.5016 27.5755 24.6851 28.5016 23.8161C29.8042 22.5978 30.6549 21.1729 30.7264 19.2962C30.8002 17.2986 29.8193 15.6671 28.0299 15.1772C27.119 14.9285 25.2159 14.7918 25.2112 14.8325C22.4748 14.9677 19.8444 15.5385 17.437 16.923C15.2409 18.1851 13.6666 19.9778 13.2291 22.5965C12.8597 24.7988 13.0647 26.9949 13.8406 29.0705C14.534 30.9284 15.41 32.7115 16.2305 34.5207C17.1947 36.6445 17.8309 38.8494 17.8826 41.2067C17.8962 41.8151 17.9183 42.43 18.0344 43.0224C18.4148 45.0145 19.3432 46.6189 21.2192 47.4926C22.3496 48.0185 23.5415 47.9121 24.7228 47.742C26.9403 47.4227 28.3946 46.1073 28.8387 44.025C29.2829 41.9641 29.1961 39.9516 28.0088 38.1503Z" fill="#CBE2D1"/>
<path d="M31.1819 11.8022C32.0047 10.7903 32.3271 9.59885 32.3675 8.16455C32.3412 7.9548 32.3216 7.60236 32.2548 7.25513C32.2016 6.96608 32.115 6.67937 32.0107 6.40441C31.346 4.63331 29.6899 4.25921 28.3586 5.57351C27.0316 6.88573 26.5993 9.75225 27.4792 11.4271C28.3433 13.0722 30.0056 13.2446 31.1819 11.8022Z" fill="#CBE2D1"/>
<path d="M24.8545 11.6737C25.8681 10.6648 26.1023 8.64905 25.346 7.42423C24.674 6.33454 23.4993 6.27271 22.706 7.29953C22.1897 7.96581 21.9784 8.74662 21.9846 9.59081C21.9768 10.3184 22.1477 10.9396 22.4858 11.4391C23.1025 12.3488 24.0818 12.444 24.8545 11.6737Z" fill="#CBE2D1"/>
<path d="M20.4086 12.3399C20.8344 11.8132 20.963 11.185 20.9909 10.5265C20.9598 9.84823 20.8265 9.20569 20.3809 8.67663C19.836 8.03253 19.0664 8.03722 18.5217 8.67663C17.7377 9.59883 17.725 11.4049 18.4972 12.3438C19.057 13.0286 19.8558 13.0286 20.4086 12.3399Z" fill="#CBE2D1"/>
<path d="M17.4807 13.5535C17.943 12.7245 17.6699 11.3186 16.9295 10.7301C16.372 10.286 15.7143 10.4076 15.4036 11.0533C15.2638 11.3512 15.2186 11.6927 15.1289 12.0151C15.202 12.7555 15.4083 13.4012 15.9762 13.8658C16.5165 14.309 17.1392 14.1669 17.4807 13.5535Z" fill="#CBE2D1"/>
<path d="M15.0333 15.7498C15.2431 15.4227 15.3278 15.011 15.4758 14.6092C15.3297 14.2258 15.247 13.8451 15.0531 13.5378C14.7323 13.0286 14.1484 13.032 13.76 13.4974C13.2818 14.0661 13.2476 15.1495 13.6916 15.7529C14.0803 16.2786 14.6822 16.3026 15.0333 15.7498Z" fill="#CBE2D1"/>
<path d="M39.9058 26.7821C39.9105 26.7406 38.0407 26.3637 37.094 26.3637C35.2371 26.3587 33.8612 27.6717 33.4008 29.6152C32.9638 31.4437 33.412 33.0434 34.341 34.5651C35.0002 35.6501 35.7343 36.7004 36.2887 37.8438C37.4308 40.1917 37.2451 42.5284 35.7025 44.6715C35.2212 45.3399 34.5176 45.8642 33.8662 46.387C32.9338 47.1272 31.8989 47.7373 31.002 48.5187C29.377 49.9373 28.7606 51.8548 28.639 53.9627C28.5135 56.0896 29.5628 57.7399 31.6159 58.6407C32.711 59.1207 33.8294 59.5384 35.0589 59.3333C37.1 58.9903 38.4248 57.6846 39.3193 55.8736C39.5859 55.3317 39.7751 54.7443 39.9483 54.1596C40.625 51.8976 41.8243 49.942 43.3209 48.1534C44.5901 46.6284 45.9117 45.1416 47.0775 43.539C48.3767 41.7424 49.1554 39.682 49.3886 37.4614C49.6652 34.8195 48.6198 32.6732 46.8456 30.8711C44.8856 28.8884 42.5062 27.6407 39.9058 26.7821Z" fill="#CBE2D1"/>
<path d="M38.6284 22.8989C39.9197 21.5191 40.2662 18.6401 39.3354 17.0206C38.4061 15.4003 36.7125 15.3199 35.596 16.8505C35.4243 17.0889 35.2623 17.3422 35.1321 17.6075C34.9779 17.9211 34.8637 18.2548 34.7825 18.4533C34.4411 19.8456 34.4348 21.0814 34.9589 22.2752C35.7055 23.9789 37.3527 24.2555 38.6284 22.8989Z" fill="#CBE2D1"/>
<path d="M43.4397 24.2372C43.9004 23.8456 44.2278 23.292 44.4133 22.5882C44.647 21.7748 44.6517 20.9663 44.3277 20.1839C43.8367 18.9855 42.6883 18.7329 41.7494 19.6051C40.6979 20.586 40.3832 22.59 41.0918 23.8305C41.6287 24.7803 42.601 24.9465 43.4397 24.2372Z" fill="#CBE2D1"/>
<path d="M47.0368 26.1719C48.0312 25.4722 48.4995 23.7306 47.9882 22.632C47.6323 21.8687 46.8935 21.6605 46.1978 22.1356C45.6228 22.5264 45.3272 23.1102 45.1162 23.7559C44.9698 24.4 44.927 25.0379 45.1957 25.6587C45.5469 26.469 46.3107 26.6827 47.0368 26.1719Z" fill="#CBE2D1"/>
<path d="M47.6985 27.6111C47.8655 28.291 48.4292 28.5936 49.0679 28.3123C49.7381 28.0144 50.1098 27.4483 50.3751 26.7541C50.3751 26.4189 50.4244 26.0774 50.3657 25.7534C50.2403 25.0459 49.64 24.7568 48.982 25.0362C48.1115 25.4056 47.4713 26.6876 47.6985 27.6111Z" fill="#CBE2D1"/>
<path d="M51.2967 28.5419C51.0457 27.9917 50.4835 27.829 50.0403 28.2354C49.7718 28.4817 49.5924 28.8247 49.3477 29.1568C49.3829 29.5841 49.3573 30.0018 49.4703 30.3738C49.6623 30.9994 50.2485 31.1361 50.7632 30.7328C51.3507 30.2687 51.6035 29.2163 51.2967 28.5419Z" fill="#CBE2D1"/>
</svg>
