<svg width="64" height="65" viewBox="0 0 64 65" fill="none" xmlns="http://www.w3.org/2000/svg">
<g clip-path="url(#clip0_889_2571)">
<path d="M33.2465 27.62C35.5185 27.62 37.7745 27.604 40.0465 27.636C40.7505 27.652 41.1665 27.476 41.1665 26.708C41.1665 26.532 41.2305 26.34 41.2465 26.164C41.3425 25.54 41.7105 25.236 42.3345 25.268C42.9585 25.284 43.2305 25.7 43.2625 26.244C43.3105 26.868 43.2945 27.508 43.2945 28.132C43.2945 29.076 43.2945 30.036 43.2945 30.98C43.2945 31.636 42.9425 32.052 42.3025 32.068C41.6625 32.084 41.3105 31.684 41.2625 31.028C41.1665 29.924 41.1665 29.956 40.0945 30.084C36.2065 30.548 32.3025 30.98 28.4145 31.428C26.0625 31.7 23.7105 31.972 21.3585 32.244C20.8945 32.292 20.5105 32.484 20.1905 32.836C19.8545 33.204 19.4865 33.556 19.1345 33.892C18.1905 34.836 17.5825 34.836 16.6545 33.908C14.0785 31.348 11.5025 28.772 8.94254 26.196C8.25454 25.508 7.56654 24.82 6.87854 24.132C5.90254 23.14 5.90254 22.644 6.86254 21.684C8.04654 20.484 9.24654 19.3 10.4465 18.116C10.7665 17.796 10.8945 17.476 10.8465 16.996C10.4145 13.252 11.3425 9.93999 14.1425 7.29999C16.6065 4.96399 19.5185 3.89199 22.9265 4.22799C27.9345 4.72399 31.9025 8.29199 32.8305 13.22C33.5665 17.124 32.3825 20.452 29.7265 23.3C28.5585 24.548 27.3105 25.732 26.1105 26.948C25.9505 27.108 25.6305 27.268 25.7265 27.492C25.8385 27.78 26.1905 27.652 26.4305 27.652C28.6545 27.62 30.9425 27.62 33.2465 27.62ZM21.8545 6.24399C17.1665 6.24399 13.3105 9.69999 12.7985 14.356C12.7665 14.676 12.6065 15.172 12.8945 15.316C13.2145 15.476 13.4385 14.996 13.6625 14.772C14.9425 13.524 16.1905 12.244 17.4705 10.98C18.4305 10.02 18.8305 10.02 19.7745 10.964C22.5905 13.78 25.3905 16.58 28.2065 19.396C29.2945 20.484 29.3585 20.484 30.0305 19.06C32.7825 13.06 28.4465 6.25999 21.8545 6.24399Z" fill="#CBE2D1"/>
<path d="M46.6079 61.2841C43.5839 61.2841 40.5439 61.2841 37.5199 61.2841C37.3119 61.2841 37.0399 61.3641 36.9279 61.1881C36.7679 60.9481 37.0399 60.7561 37.1679 60.5801C38.5439 58.6601 41.0399 57.8601 43.4399 58.5321C44.6239 58.8681 45.7119 58.0681 45.6799 56.8201C45.6479 55.7321 45.8879 54.6121 45.4559 53.5401C45.1359 52.7401 44.7039 52.2921 43.7279 52.2601C40.4479 52.1321 38.3679 49.8441 38.2559 46.3881C38.2079 44.6921 38.2079 44.6601 39.8879 44.7081C41.8719 44.7721 43.7119 45.2361 44.8959 47.0441C45.6479 48.1801 45.8239 49.4921 45.9839 50.8041C46.0159 51.0121 45.9999 51.2201 46.0319 51.4281C46.0479 51.5881 46.0959 51.7481 46.2879 51.7961C46.4959 51.8441 46.5599 51.6521 46.6239 51.5241C46.9439 50.9641 47.3599 50.4841 47.8239 50.0681C48.2399 49.7001 48.3519 49.2841 48.3839 48.7401C48.5119 46.9161 48.7999 45.1241 49.9839 43.6201C51.2159 42.0521 52.9439 41.5081 54.8159 41.2361C55.4879 41.1401 56.1759 41.1081 56.8639 41.0921C57.3599 41.0761 57.6959 41.3161 57.8079 41.8601C58.4319 44.8041 56.5919 48.5481 53.9039 49.7481C52.7999 50.2441 51.6159 50.4841 50.4479 50.4841C49.3119 50.4841 48.6879 51.1081 48.1279 51.8761C47.0719 53.3481 47.1839 55.0601 47.2799 56.7561C47.2959 57.1401 47.6159 57.1881 47.9199 57.1561C49.4079 57.0601 50.7359 57.4601 51.9039 58.3721C52.2239 58.6121 52.6079 58.7081 53.0079 58.7881C54.1919 59.0441 55.2319 59.5721 56.0319 60.5161C56.1759 60.6921 56.4319 60.8841 56.3359 61.1241C56.2239 61.3961 55.9199 61.2681 55.6959 61.2681C52.6719 61.2841 49.6319 61.2841 46.6079 61.2841Z" fill="#CBE2D1"/>
<path d="M47.4057 42.148C47.4377 42.724 47.1497 43.108 46.6537 43.348C46.1897 43.572 45.7097 43.524 45.3097 43.204C44.8937 42.884 44.6697 42.436 44.7977 41.876C44.9737 41.076 45.3737 40.356 45.8217 39.668C45.9817 39.412 46.1737 39.332 46.3657 39.636C46.8617 40.404 47.3577 41.188 47.4057 42.148Z" fill="#CBE2D1"/>
<path d="M43.92 36.196C43.936 37.044 43.344 37.62 42.608 37.62C41.84 37.62 41.216 36.932 41.296 36.148C41.392 35.252 41.904 34.532 42.352 33.796C42.512 33.54 42.72 33.572 42.848 33.812C43.328 34.596 43.808 35.38 43.92 36.196Z" fill="#CBE2D1"/>
<path d="M39.3279 39.8759C39.3119 40.5319 39.1519 40.9639 38.6719 41.2039C38.1919 41.4439 37.6959 41.4599 37.2479 41.1079C36.7839 40.7559 36.6079 40.2599 36.7359 39.6999C36.9119 38.9479 37.2959 38.2759 37.7119 37.6359C37.8719 37.3959 38.0959 37.2679 38.2559 37.5719C38.7199 38.3559 39.2159 39.1079 39.3279 39.8759Z" fill="#CBE2D1"/>
</g>
<defs>
<clipPath id="clip0_889_2571">
<rect width="64" height="64" fill="white" transform="translate(0 0.5)"/>
</clipPath>
</defs>
</svg>
