<svg width="64" height="65" viewBox="0 0 64 65" fill="none" xmlns="http://www.w3.org/2000/svg">
<g clip-path="url(#clip0_889_2549)">
<path d="M16.6711 32.548C14.8791 31.796 13.1031 31.044 11.3111 30.292C9.8871 29.7 8.4631 29.124 7.0391 28.516C1.9991 26.388 0.751104 20.116 4.4151 16.26C8.0311 12.5 13.7111 13.46 16.2551 17.444C18.0631 20.292 17.8711 24.1 15.4711 26.564C15.3431 26.692 15.1511 26.82 15.2151 27.028C15.3111 27.316 15.5991 27.316 15.8231 27.332C17.6791 27.556 19.5191 27.828 21.3751 27.988C22.4151 28.084 23.4071 28.292 24.3031 28.836C24.8151 29.14 25.2791 29.14 25.8391 28.916C31.7751 26.42 37.7111 23.956 43.6311 21.46C44.3351 21.156 45.0231 20.948 45.8071 21.06C47.6471 21.332 49.5031 21.524 51.3591 21.764C51.4551 21.78 51.5511 21.844 51.6311 21.876C51.6471 22.164 51.4231 22.196 51.2631 22.276C46.6871 24.676 42.1111 27.06 37.5351 29.46C35.7591 30.388 33.9991 31.332 32.2391 32.26C32.0471 32.356 31.7751 32.404 31.7751 32.66C31.7751 32.916 32.0631 32.964 32.2391 33.06C36.2071 35.156 40.1751 37.236 44.1431 39.332C46.4791 40.564 48.8151 41.812 51.1511 43.076C51.3271 43.172 51.5671 43.204 51.6471 43.524C49.8231 43.764 47.9991 43.94 46.2071 44.244C45.1991 44.404 44.3191 44.212 43.3911 43.828C37.6471 41.396 31.8711 39.012 26.1271 36.58C25.3431 36.244 24.6711 36.148 23.9191 36.644C22.5111 37.588 20.8471 37.316 19.2791 37.588C18.0631 37.796 16.8151 37.924 15.5831 38.068C15.0711 38.132 15.0391 38.34 15.3751 38.676C16.7671 40.116 17.3911 41.892 17.3911 43.828C17.3911 46.052 16.5591 48.036 14.8151 49.46C11.6951 52.004 8.0791 52.02 4.9271 49.524C3.5351 48.42 2.6711 46.9 2.3991 45.124C1.9031 41.844 3.0231 39.22 5.8231 37.412C7.1671 36.548 8.7351 36.132 10.2071 35.508C12.3351 34.58 14.4791 33.7 16.6071 32.804C16.6551 32.708 16.6551 32.628 16.6711 32.548ZM6.1111 21.588C6.1111 23.78 7.7591 25.428 9.9351 25.428C12.0791 25.428 13.7591 23.78 13.7751 21.668C13.7911 19.46 12.0471 17.684 9.8711 17.684C7.8551 17.7 6.1271 19.508 6.1111 21.588ZM13.7751 43.636C13.7751 41.508 12.0471 39.844 9.8711 39.844C7.8071 39.844 6.1271 41.572 6.1271 43.7C6.1271 45.828 7.8711 47.604 9.9511 47.588C12.1271 47.588 13.7751 45.876 13.7751 43.636ZM20.7351 32.644C20.7351 33.748 21.6151 34.66 22.6551 34.628C23.6471 34.612 24.6231 33.62 24.6231 32.628C24.6231 31.604 23.6791 30.708 22.6071 30.724C21.5511 30.724 20.7351 31.572 20.7351 32.644Z" fill="#CBE2D1"/>
<path d="M41.2303 33.988C40.5743 33.988 39.9343 33.988 39.2783 33.988C38.8463 33.988 38.6223 33.812 38.6223 33.364C38.6223 33.332 38.6223 33.316 38.6223 33.284C38.4783 31.428 38.4783 31.428 40.3343 31.428C41.2463 31.428 42.1743 31.444 43.0863 31.428C43.5503 31.428 43.7903 31.62 43.7903 32.1C43.8063 34.356 43.9023 33.972 42.0463 34.004C41.7583 34.004 41.5023 34.004 41.2303 33.988Z" fill="#CBE2D1"/>
<path d="M48.9911 31.428C49.6151 31.428 50.2391 31.428 50.8631 31.428C51.3271 31.428 51.5671 31.604 51.5671 32.084C51.5831 34.34 51.6791 33.956 49.8231 33.988C48.9591 34.004 48.0951 33.972 47.2311 33.988C46.6551 34.004 46.3991 33.812 46.3831 33.204C46.3191 31.412 46.3031 31.428 48.0951 31.428C48.3991 31.428 48.7031 31.428 48.9911 31.428Z" fill="#CBE2D1"/>
<path d="M56.782 33.988C56.158 33.988 55.534 33.972 54.91 33.988C54.382 34.004 54.206 33.748 54.19 33.252C54.094 31.428 54.078 31.428 55.934 31.428C56.798 31.428 57.662 31.444 58.526 31.428C59.086 31.412 59.358 31.604 59.374 32.212C59.438 34.004 59.454 34.004 57.678 34.004C57.374 34.004 57.086 34.004 56.782 33.988C56.782 34.004 56.782 34.004 56.782 33.988Z" fill="#CBE2D1"/>
</g>
<defs>
<clipPath id="clip0_889_2549">
<rect width="64" height="64" fill="white" transform="translate(0 0.5)"/>
</clipPath>
</defs>
</svg>
