<svg width="64" height="65" viewBox="0 0 64 65" fill="none" xmlns="http://www.w3.org/2000/svg">
<path d="M45.1045 26.5671C44.7306 27.4344 44.3269 28.2418 44.0279 29.0643C43.4597 30.6642 44.0279 32.3389 45.3587 33.2211C46.6895 34.1034 48.409 33.909 49.68 32.7277C49.8595 32.5632 50.009 32.3539 50.1436 32.1595C50.3828 31.7857 50.5922 31.3221 50.1585 31.0081C49.7099 30.6792 49.381 31.0231 49.0819 31.3819C48.1399 32.4735 46.9586 32.7128 45.9867 32.0548C44.9998 31.367 44.8054 30.2605 45.4633 28.9297C45.8222 28.182 46.211 27.4493 46.5848 26.7017C46.7792 26.3129 47.0483 26.0438 47.5119 26.0737C50.3081 26.2232 54.5696 27.5391 56.0201 30.8436C56.4537 31.8455 56.7677 32.8772 56.6929 33.9688C56.6182 34.9108 56.8873 35.6585 57.5602 36.2865C57.7845 36.4958 57.949 36.765 58.1434 37.0042C59.3097 38.4247 59.2947 38.664 58.0387 39.9798C56.1696 41.9387 53.8519 42.2975 51.0108 41.0714C50.1884 40.7125 49.3511 40.3985 48.5586 39.9948C48.0053 39.7107 47.6315 39.7406 47.2278 40.249C46.4203 41.2508 45.5381 42.2078 44.7007 43.1798C44.1325 43.8377 44.6409 43.9274 45.1643 43.9872C47.8408 44.3461 50.5174 44.7199 53.194 45.0937C54.1659 45.2283 54.8388 45.7816 55.1378 46.7086C55.4369 47.6357 55.093 48.3983 54.4351 49.0562C53.822 49.6693 53.0295 49.6394 52.2669 49.5347C50.323 49.2805 48.3791 48.9964 46.4203 48.7273C45.4783 48.5927 44.5363 48.4581 43.5942 48.3086C42.5625 48.1441 42.5625 49.0114 42.3681 49.5945C42.1438 50.2525 42.8167 50.1328 43.1307 50.2076C45.254 50.7309 47.3773 51.2094 49.5006 51.7178C50.9959 52.0767 51.7734 53.1683 51.5192 54.4243C51.265 55.6803 49.9342 56.4429 48.4838 56.1289C44.2821 55.2019 40.0953 54.2449 35.8935 53.3178C34.8319 53.0785 34.159 52.4655 33.8151 51.4487C33.6506 50.9851 33.4711 50.5216 33.2469 50.088C32.7534 49.0861 31.9759 48.4581 30.8245 48.3235C27.1909 47.86 24.4247 45.9909 22.2864 43.0601C20.9855 41.2807 20.9706 41.2957 19.236 42.5966C17.4267 43.9723 15.3483 44.7049 13.1053 44.9292C12.4325 44.9891 12.1783 45.2582 12.2082 45.9161C12.2381 46.6189 12.2231 47.3367 12.2231 48.0394C12.2231 48.5927 12.4773 48.817 13.0156 48.802C13.4194 48.7871 13.8231 48.7871 14.2119 48.817C15.3483 48.9217 16.2305 49.9384 16.2006 51.0898C16.1707 52.1963 15.2885 53.2281 14.2119 53.258C12.7016 53.3028 11.1914 53.3178 9.6961 53.258C8.49987 53.2131 7.66251 52.3758 7.64755 51.1646C7.6027 48.7871 7.61765 46.4245 7.6326 44.047C7.6326 43.404 7.94661 42.8657 8.3952 42.4172C9.03817 41.7592 9.68114 41.0864 10.354 40.4583C10.8325 40.0097 10.982 39.5313 10.8774 38.8883C10.5933 37.1089 10.055 35.4192 9.12789 33.8641C7.64755 31.367 6.85505 28.7353 7.84194 25.8344C8.02138 25.2961 7.64755 24.9821 7.36345 24.6233C4.89623 21.4981 4.43269 18.029 6.06255 14.4703C7.69241 10.9264 10.5783 8.95266 14.5857 8.84799C15.9763 8.81808 16.9183 9.61058 17.023 10.8218C17.1277 12.1675 16.3501 13.1694 14.9146 13.3189C13.0754 13.5133 11.4904 14.0815 10.4736 15.7413C9.45685 17.401 9.4419 19.1206 10.2643 20.8551C10.5484 21.4682 10.8923 21.6775 11.5503 21.214C16.0361 18.044 22.5556 18.5673 26.7573 22.7541C28.5666 24.5485 30.4955 26.2232 32.4394 27.883C34.1291 29.3185 36.1028 29.3334 38.1065 28.7054C40.0654 28.0923 42.0092 27.4045 43.9681 26.7615C44.2821 26.6568 44.5811 26.4774 45.1045 26.5671ZM39.6766 30.5894C39.5271 30.6343 39.1682 30.739 38.8243 30.8586C38.3159 31.038 38.271 31.3221 38.5701 31.7707C40.2896 34.4174 41.9943 37.079 43.7139 39.7406C43.8185 39.9051 43.9082 40.1443 44.1923 40.0995C44.8652 39.9948 45.5232 38.6341 45.1493 38.0659C43.6391 35.7183 42.1289 33.3707 40.6037 31.0231C40.4242 30.739 40.2597 30.4848 39.6766 30.5894Z" fill="#CBE2D1"/>
<path d="M18.5666 48.817C17.8339 48.817 17.0863 48.8469 16.3536 48.817C15.6209 48.7871 14.9929 48.488 14.5892 47.8151C13.9163 46.6787 14.1555 46.0956 15.4265 45.8115C16.3237 45.6021 17.2358 45.333 17.9984 44.8395C18.9105 44.2713 19.8675 44.2863 20.8394 44.361C21.9759 44.4508 22.7833 45.4077 22.7684 46.5741C22.7534 47.7703 21.9161 48.7572 20.7647 48.817C20.0469 48.8469 19.3143 48.817 18.5666 48.817Z" fill="#CBE2D1"/>
</svg>
