<svg width="64" height="65" viewBox="0 0 64 65" fill="none" xmlns="http://www.w3.org/2000/svg">
<path d="M33.6164 62.548C27.5205 62.548 21.4245 62.548 15.3285 62.548C15.0085 62.548 14.5605 62.708 14.3845 62.356C14.2245 62.004 14.5925 61.732 14.7685 61.46C17.6005 57.236 22.8645 55.428 27.7285 57.076C28.5924 57.364 29.2324 57.38 29.9205 56.724C30.4324 56.228 31.0725 55.844 31.7284 55.572C32.5765 55.22 32.7524 54.66 32.7844 53.828C32.9444 49.86 32.1604 45.988 31.5364 42.116C31.2964 40.644 31.0564 39.156 30.8644 37.668C30.7684 36.932 30.5124 36.372 29.7444 36.116C29.0724 35.892 28.4324 35.348 27.7605 35.332C27.0564 35.316 26.8004 36.228 26.3044 36.676C23.2164 39.508 18.8005 39.476 15.1685 36.644C12.2725 34.372 10.9925 31.268 10.4485 27.78C10.1605 25.924 10.0165 24.068 10.0325 22.18C10.0485 21.524 10.2405 21.268 10.9285 21.46C14.4805 22.372 18.0805 22.836 21.7605 23.012C25.5044 23.188 28.5924 26.868 28.6404 30.9C28.6404 31.54 28.5924 32.132 29.3284 32.468C29.9364 32.74 30.1285 32.596 30.1285 31.972C30.1444 30.596 30.1444 29.236 30.2404 27.86C30.4964 24.468 31.2644 21.204 32.5124 18.036C32.7364 17.492 32.7524 17.028 32.3685 16.548C32.0485 16.164 31.7284 15.988 31.2324 16.244C29.0244 17.38 26.4324 15.908 25.2804 13.908C24.3204 12.26 24.1764 10.42 24.1124 8.56398C24.0964 8.00398 24.3525 7.84398 24.8805 7.97198C26.6084 8.43598 28.3844 8.56398 30.1604 8.72398C31.8084 8.86798 33.2004 10.388 33.4724 12.196C33.5044 12.436 33.5044 12.692 33.5524 12.948C33.6324 13.3 33.8564 13.62 34.1765 13.716C34.5924 13.86 34.6244 13.38 34.7844 13.156C35.0884 12.724 35.3125 12.228 35.6164 11.796C36.3204 10.836 36.6084 9.95598 36.2244 8.64398C35.6644 6.75598 36.6884 5.17198 38.2084 4.03598C40.0004 2.69198 42.1124 2.48398 44.2724 2.53198C44.7845 2.54798 44.8324 2.83598 44.7204 3.21998C44.3044 4.85198 44.0964 6.51598 43.9364 8.21198C43.7444 10.292 42.1124 11.684 40.0004 11.748C39.4564 11.764 39.0564 11.908 38.7524 12.388C37.7604 13.988 36.8484 15.62 36.0484 17.316C35.7924 17.844 35.8564 18.02 36.4965 17.956C37.2804 17.876 37.9684 17.764 38.6724 17.284C39.9844 16.372 41.4564 16.324 42.8164 17.204C44.2404 18.116 45.6644 19.012 47.2484 19.636C47.8564 19.876 47.9844 20.164 47.5204 20.74C46.0644 22.5 44.5604 24.148 42.1764 24.596C39.8084 25.044 37.8884 24.02 37.0404 21.764C36.8484 21.268 36.6084 21.204 36.1284 21.268C35.0084 21.428 34.4164 21.908 34.1604 23.108C33.2964 27.092 33.1524 31.092 33.6324 35.124C33.7444 36.052 33.8404 36.98 33.9844 37.908C34.0324 38.212 33.9205 38.756 34.3685 38.74C34.8004 38.724 35.2644 38.436 35.3604 37.892C35.4244 37.556 35.4564 37.204 35.5204 36.868C36.2244 32.98 39.3284 30.212 43.2964 30.164C46.5444 30.132 49.6965 29.572 52.8325 28.82C53.9365 28.564 54.0005 28.612 54.0005 29.764C54.0164 33.348 53.7284 36.884 52.0644 40.164C50.7524 42.756 48.6884 44.564 46.0004 45.636C42.6564 46.964 38.7684 45.668 36.6565 42.596C36.4324 42.276 36.3364 41.508 35.7284 41.828C35.1364 42.132 34.6404 42.596 34.8165 43.476C35.4244 46.484 35.7764 49.508 35.9044 52.58C35.9204 53.108 35.5044 53.78 36.0484 54.18C36.4964 54.5 37.1364 54.276 37.6964 54.308C40.0164 54.484 42.0644 55.348 43.8724 56.772C44.3685 57.156 44.8644 57.38 45.4725 57.476C48.3204 57.908 50.6085 59.316 52.4324 61.54C52.6404 61.796 53.0084 62.068 52.8484 62.42C52.6724 62.772 52.2244 62.612 51.9044 62.612C45.8084 62.548 39.7124 62.548 33.6164 62.548Z" fill="#CBE2D1"/>
</svg>
