<svg width="64" height="65" viewBox="0 0 64 65" fill="none" xmlns="http://www.w3.org/2000/svg">
<path d="M32.4314 38.084C35.1354 38.084 37.8394 38.068 40.5434 38.1C42.7354 38.132 44.0474 39.844 43.4074 41.796C43.0394 42.948 42.0474 43.636 40.6874 43.652C37.0554 43.668 33.4394 43.652 29.8074 43.668C29.4074 43.668 28.7994 43.444 28.6554 43.956C28.4474 44.66 28.4634 45.444 28.6714 46.164C28.7194 46.324 28.9434 46.356 29.1194 46.356C33.1994 46.308 37.2954 46.612 41.3594 46.212C44.4474 45.924 46.3194 43.524 46.1594 40.42C46.1274 39.956 46.2874 39.668 46.6874 39.444C50.4154 37.332 54.1274 35.188 57.8874 33.124C59.3594 32.308 60.8954 32.74 61.6794 34.02C62.4314 35.252 62.0794 36.884 60.7834 37.844C54.6554 42.34 48.5114 46.82 42.3674 51.284C41.5834 51.844 40.6714 51.94 39.7274 51.94C35.3754 51.94 31.0394 51.908 26.6874 51.956C21.8714 52.004 17.4234 53.3 13.5194 56.18C12.9434 56.612 12.3834 57.076 11.8554 57.556C11.4874 57.892 11.2154 57.924 10.8474 57.556C7.99944 54.692 5.13544 51.86 2.25544 49.044C1.74344 48.548 1.82344 48.26 2.43144 47.972C6.54344 46.02 10.6394 44.052 14.7354 42.1C16.9914 41.012 19.2634 39.94 21.5034 38.836C22.5114 38.34 23.5514 38.084 24.6554 38.1C27.2634 38.1 29.8554 38.084 32.4314 38.084Z" fill="#CBE2D1"/>
<path d="M46.3533 16.228C46.3213 18.324 45.5053 20.164 44.4333 21.876C41.9853 25.812 38.6893 28.964 35.1533 31.892C34.7373 32.244 34.4333 32.1 34.0973 31.812C32.3853 30.404 30.6893 28.98 29.1853 27.348C27.2973 25.284 25.4733 23.172 24.2253 20.628C23.4893 19.14 22.9293 17.62 22.9933 15.908C23.1053 12.836 26.0493 10.036 29.1213 10.18C31.2013 10.276 32.5773 11.604 33.7453 13.156C34.6893 14.388 34.6573 14.42 35.5373 13.172C36.2573 12.148 37.1213 11.268 38.2733 10.724C41.2013 9.31601 44.7533 10.948 46.0013 14.276C46.2253 14.916 46.4013 15.556 46.3533 16.228Z" fill="#CBE2D1"/>
</svg>
