<svg width="320" height="141" viewBox="0 0 320 141" fill="none" xmlns="http://www.w3.org/2000/svg">
<path d="M246.283 140.325C209.815 140.325 183.154 115.651 160.037 90.2595C136.92 115.651 110.259 140.325 73.791 140.325C33.2408 140.325 0.367188 109.018 0.367188 70.3991C0.367188 31.7806 33.2408 0.473373 73.791 0.473373C110.146 0.473373 135.901 24.464 160.037 51.0416C183.945 24.6443 209.815 0.473373 246.283 0.473373C286.833 0.473373 319.707 31.7806 319.707 70.3991C319.707 109.018 286.833 140.325 246.283 140.325ZM137.41 69.8234C113.84 44.1093 95.928 29.2045 73.791 29.2045C49.9013 29.2045 30.5377 47.6474 30.5377 70.3991C30.5377 93.1508 49.9013 111.594 73.791 111.594C96.1166 111.594 115.275 95.5393 137.26 71.4413L137.939 70.6505L137.41 69.8234ZM246.283 29.2045C224.109 29.2045 205.592 44.7561 182.89 69.8234L182.135 70.6505L182.814 71.4413C204.762 95.5393 224.146 111.594 246.283 111.594C270.173 111.594 289.538 93.1508 289.538 70.3991C289.538 47.6474 270.173 29.2045 246.283 29.2045Z" fill="#4EA692" fill-opacity="0.07"/>
</svg>
