<svg width="390" height="174" viewBox="0 0 390 174" fill="none" xmlns="http://www.w3.org/2000/svg">
<path d="M324.56 182C276.488 182 241.343 148.655 210.871 114.34C180.398 148.655 145.253 182 97.1816 182C43.7284 182 0.394531 139.691 0.394531 87.5001C0.394531 35.3097 43.7284 -7 97.1816 -7C145.105 -7 179.055 25.4217 210.871 61.3397C242.387 25.6655 276.488 -7 324.56 -7C378.013 -7 421.347 35.3097 421.347 87.5001C421.347 139.691 378.013 182 324.56 182ZM181.044 86.7221C149.974 51.9712 126.362 31.8283 97.1816 31.8283C65.6902 31.8283 40.1652 56.7527 40.1652 87.5001C40.1652 118.248 65.6902 143.172 97.1816 143.172C126.611 143.172 151.866 121.475 180.847 88.9085L181.741 87.8399L181.044 86.7221ZM324.56 31.8283C295.33 31.8283 270.922 52.8452 240.995 86.7221L240.001 87.8399L240.895 88.9085C269.827 121.475 295.379 143.172 324.56 143.172C356.051 143.172 381.579 118.248 381.579 87.5001C381.579 56.7527 356.051 31.8283 324.56 31.8283Z" fill="white" fill-opacity="0.05"/>
</svg>
