<svg width="259" height="253" viewBox="0 0 259 253" fill="none" xmlns="http://www.w3.org/2000/svg">
<path opacity="0.2" d="M15.4401 131.098C42.3689 107.474 77.9698 108.343 111.416 112.035C112.11 78.3925 115.884 42.9816 142.813 19.3578C172.756 -6.91054 217.223 -5.18932 242.13 23.2026C267.038 51.5946 262.955 95.9068 233.011 122.175C206.166 145.726 171.674 144.773 136.71 140.868C136.081 175.763 132.567 210.291 105.638 233.915C75.6948 260.184 31.2282 258.462 6.32089 230.07C-18.5864 201.678 -14.5034 157.366 15.4401 131.098ZM141.305 112.402C175.294 116.038 198.134 115.393 214.481 101.052C232.122 85.5766 234.525 59.4738 219.852 42.747C205.178 26.0202 178.984 25.0048 161.343 40.4805C144.857 54.943 141.065 79.1568 140.372 111.116L140.381 112.136L141.305 112.402ZM87.1079 212.792C103.482 198.428 107.125 175 107.722 141.864L107.746 140.767L106.735 140.625C74.985 137.126 50.3169 137.88 33.9703 152.221C16.3294 167.696 13.9244 193.8 28.5982 210.527C43.2721 227.254 69.467 228.268 87.1079 212.792Z" fill="white" fill-opacity="0.07"/>
</svg>
