<svg width="257" height="262" viewBox="0 0 257 262" fill="none" xmlns="http://www.w3.org/2000/svg">
<path opacity="0.2" d="M142.55 239.319C117.219 213.989 115.764 178.407 117.266 144.791C83.6499 146.294 48.0683 144.838 22.738 119.508C-5.42796 91.3416 -6.61138 46.8575 20.0951 20.151C46.8017 -6.55553 91.2859 -5.37223 119.452 22.7937C144.704 48.0457 146.003 82.5257 144.387 117.67C179.249 116.021 213.933 117.275 239.264 142.605C267.429 170.771 268.613 215.256 241.906 241.962C215.2 268.669 170.716 267.485 142.55 239.319ZM115.682 114.942C117.093 80.7879 114.959 58.0388 99.5829 42.6626C82.9892 26.069 56.7852 25.3733 41.0513 41.1072C25.3175 56.8411 26.0131 83.0451 42.6068 99.6387C58.1139 115.146 82.5236 117.351 114.459 115.957L115.478 115.881L115.682 114.942ZM219.395 162.474C203.993 147.072 180.376 144.966 147.272 146.532L146.176 146.58L146.101 147.598C144.681 179.508 147.042 204.074 162.418 219.45C179.012 236.044 205.217 236.741 220.951 221.007C236.685 205.273 235.988 179.068 219.395 162.474Z" fill="white" fill-opacity="0.07"/>
</svg>
