<?xml version="1.0" encoding="utf-8"?>
<!-- Generator: Adobe Illustrator 28.2.0, SVG Export Plug-In . SVG Version: 6.00 Build 0)  -->
<svg version="1.1" id="Layer_1" xmlns="http://www.w3.org/2000/svg" xmlns:xlink="http://www.w3.org/1999/xlink" x="0px" y="0px"
	 viewBox="0 0 103 107" style="enable-background:new 0 0 103 107;" xml:space="preserve">
<style type="text/css">
	.st0{fill:#6D597A;}
	.st1{fill:#4EA692;}
	.st2{fill:#FF9D48;}
</style>
<path class="st1" d="M51.5,15c0.1-0.1,0.1-0.1,0.2-0.1c1.6-1.5,3.2-3.1,4.8-4.6c1.5-1.4,3.1-2.8,4.8-4.1c1.9-1.4,3.8-2.6,6-3.5
	c1.7-0.7,3.4-1.2,5.2-1.4c1.5-0.2,3-0.3,4.5-0.2c2.3,0.1,4.6,0.6,6.7,1.6c4.2,1.9,7.1,4.9,9,9.1c0.7,1.5,1.1,3.2,1.4,4.9
	c0.2,1.4,0.3,2.9,0.3,4.4c-0.2,4.2-1.5,8-4.2,11.2c-2.8,3.4-6.3,5.6-10.6,6.7c-1.6,0.4-3.2,0.6-4.8,0.6c-2.6,0-5.1-0.5-7.6-1.5
	c-1.8-0.8-3.6-1.8-5.2-2.9c-1.9-1.3-3.7-2.8-5.4-4.4c-1.7-1.6-3.3-3.3-5-4.9c0,0-0.1-0.1-0.1-0.1c-0.1,0.1-0.1,0.1-0.2,0.2
	c-1.6,1.5-3.2,3.1-4.8,4.7c-1.6,1.5-3.3,3-5.2,4.3c-1.9,1.3-3.8,2.4-6,3.3c-1.6,0.6-3.2,1-4.9,1.3c-1.5,0.2-3.1,0.3-4.6,0.1
	c-2.4-0.2-4.7-0.7-6.8-1.8c-4.1-2-7-5.1-8.8-9.4c-0.6-1.5-1-3-1.2-4.6c-0.2-1.5-0.3-3.1-0.2-4.6c0.3-4.1,1.7-7.8,4.3-11
	c2.8-3.4,6.4-5.6,10.7-6.6c1.8-0.4,3.7-0.6,5.6-0.5c2.1,0.1,4.1,0.5,6,1.3c1.9,0.7,3.6,1.7,5.3,2.9c1.9,1.3,3.6,2.7,5.3,4.3
	c1.6,1.5,3.2,3.1,4.8,4.6c0.3,0.2,0.5,0.5,0.7,0.7C51.4,14.9,51.4,14.9,51.5,15z M56.7,20.3c0.1,0.1,0.2,0.2,0.3,0.3
	c1.3,1.3,2.7,2.6,4,3.9c1.3,1.2,2.5,2.4,3.9,3.5c1.4,1,2.8,2,4.3,2.7c2.2,1,4.4,1.4,6.8,1.1c1.1-0.1,2.2-0.4,3.2-0.9
	c3.9-1.8,6.6-5.6,6.8-9.9c0.1-1.6-0.1-3.2-0.6-4.7c-0.9-2.5-2.4-4.5-4.7-5.8c-2.1-1.2-4.4-1.6-6.8-1.4c-1.3,0.1-2.5,0.4-3.7,0.8
	c-1.5,0.6-2.9,1.3-4.3,2.2c-1.7,1.1-3.2,2.4-4.7,3.8C59.7,17.2,58.3,18.7,56.7,20.3C56.8,20.2,56.8,20.3,56.7,20.3z M46.3,20.3
	C46.3,20.3,46.2,20.2,46.3,20.3c-1.2-1.2-2.3-2.2-3.4-3.3c-1.2-1.2-2.5-2.4-3.8-3.5c-1.2-1-2.5-2-3.9-2.7c-1.8-1-3.6-1.7-5.6-1.8
	c-1.2-0.1-2.4,0-3.7,0.2c-4.8,1-8.5,5.2-8.9,10.3c-0.1,1.5,0,3,0.5,4.5c1.3,4.5,5.1,7.5,9.9,7.8c1.7,0.1,3.2-0.2,4.8-0.7
	c1.7-0.6,3.3-1.4,4.8-2.4c1.7-1.1,3.3-2.4,4.7-3.8c1.5-1.4,3-3,4.5-4.5C46.2,20.4,46.2,20.4,46.3,20.3z"/>
<g>
	<path class="st2" d="M94.4,29c-0.7,1.6-1.6,3.1-2.7,4.5c-3,3.7-6.9,6.2-11.6,7.4c-1.7,0.4-3.4,0.6-5.2,0.7c-0.1,0-0.2,0-0.3,0
		c-2.7,0-5.4-0.6-8.1-1.7c-1.9-0.8-3.7-1.8-5.6-3.1c-1.7-1.2-3.5-2.7-5.6-4.6c-1.3-1.2-2.6-2.5-3.8-3.7c-0.2,0.2-0.4,0.4-0.6,0.6
		c-1,1-2,2-3,2.9c-1.8,1.7-3.6,3.2-5.4,4.5c-2.1,1.5-4.2,2.7-6.4,3.5c-1.7,0.7-3.5,1.1-5.4,1.4c-1.1,0.1-2.2,0.2-3.3,0.2
		c-0.6,0-1.2,0-1.8-0.1c-2.7-0.2-5.2-0.8-7.5-2c-4.5-2.1-7.7-5.6-9.7-10.2c-6.3,6.9-8,14-8,26.6c0,28.2,22.8,51,51,51s51-22.8,51-51
		C102.5,47.3,98.6,36.7,94.4,29z"/>
</g>
</svg>
