<svg width="332" height="96" viewBox="0 0 332 96" fill="none" xmlns="http://www.w3.org/2000/svg">
<mask id="mask0_2623_26740" style="mask-type:alpha" maskUnits="userSpaceOnUse" x="0" y="0" width="332" height="96">
<rect x="0.6875" y="0.0517578" width="331.109" height="95" rx="10" fill="#043A4E"/>
</mask>
<g mask="url(#mask0_2623_26740)">
<path opacity="0.2" d="M157.347 34.2173C141.5 18.8262 148.891 5.02733 154.567 0.0517578H331.797V44.5002C291.138 86.295 264.032 55.7781 261.6 48.1489C259.167 40.5197 256.735 14.6468 218.508 36.871C180.282 59.0952 177.155 53.4562 157.347 34.2173Z" fill="#6D597A"/>
<path opacity="0.1" d="M91.2958 105.054C91.2958 122.727 76.969 137.054 59.2959 137.054C41.6227 137.054 27.2959 122.727 27.2959 105.054C23.6601 71.1206 36.017 77.3322 49.5997 84.398C55.5596 87.4984 62.4786 86.4526 68.4902 83.4539C88.5834 73.431 91.2958 89.4958 91.2958 105.054Z" fill="white"/>
</g>
</svg>
