<svg width="101" height="101" viewBox="0 0 101 101" fill="none" xmlns="http://www.w3.org/2000/svg">
<path d="M96.9812 50.1159C98.5256 48.3175 99.6078 46.1694 100.134 43.858C100.66 41.5466 100.615 39.1418 100.001 36.852C99.3875 34.5623 98.2245 32.4568 96.613 30.7183C95.0015 28.9798 92.9902 27.6607 90.7534 26.8755C91.1917 24.5457 91.0549 22.1442 90.3548 19.8793C89.6548 17.6144 88.4127 15.5545 86.7363 13.8783C85.0599 12.2021 82.9999 10.9603 80.7349 10.2605C78.4699 9.56079 76.0683 9.42428 73.7386 9.86283C72.954 7.6256 71.6352 5.6137 69.8966 4.0018C68.1581 2.38991 66.0524 1.22673 63.7623 0.61327C61.4722 -0.000191599 59.067 -0.0453978 56.7555 0.481576C54.444 1.00855 52.2961 2.09178 50.4982 3.63721C48.6997 2.09284 46.5517 1.01059 44.2403 0.484344C41.9289 -0.0419022 39.524 0.00374969 37.2342 0.617337C34.9445 1.23093 32.839 2.39392 31.1005 4.00542C29.362 5.61693 28.0429 7.62828 27.2577 9.86499C24.9281 9.42715 22.5268 9.56428 20.2622 10.2645C17.9976 10.9647 15.938 12.2068 14.2621 13.8832C12.5862 15.5595 11.3446 17.6194 10.6449 19.8842C9.94529 22.149 9.80878 24.5503 10.2472 26.8798C8.01051 27.665 5.99915 28.9841 4.38765 30.7226C2.77614 32.4612 1.61314 34.5666 0.999551 36.8564C0.385963 39.1461 0.340304 41.551 0.86655 43.8624C1.3928 46.1738 2.47507 48.3218 4.01943 50.1203C2.4746 51.9186 1.39199 54.0669 0.865598 56.3785C0.339202 58.6901 0.384901 61.0953 0.998757 63.3852C1.61261 65.6752 2.77606 67.7807 4.38812 69.5191C6.00018 71.2575 8.01216 72.5762 10.2494 73.3607C9.81057 75.6903 9.94693 78.0917 10.6466 80.3567C11.3464 82.6216 12.5883 84.6815 14.2646 86.3576C15.941 88.0337 18.001 89.2754 20.266 89.9748C22.5311 90.6742 24.9325 90.8103 27.2621 90.3712C28.0473 92.6079 29.3663 94.6193 31.1049 96.2308C32.8434 97.8423 34.9488 99.0053 37.2386 99.6189C39.5283 100.232 41.9332 100.278 44.2446 99.7519C46.556 99.2256 48.7041 98.1433 50.5025 96.599C52.3009 98.1438 54.4491 99.2264 56.7607 99.7528C59.0724 100.279 61.4775 100.233 63.7675 99.6196C66.0574 99.0058 68.163 97.8423 69.9013 96.2303C71.6397 94.6182 72.9584 92.6063 73.743 90.369C76.0726 90.8077 78.4741 90.6713 80.739 89.9715C83.004 89.2718 85.064 88.0299 86.7402 86.3537C88.4165 84.6774 89.6584 82.6174 90.3581 80.3525C91.0579 78.0875 91.1943 75.686 90.7556 73.3564C92.9925 72.5714 95.004 71.2523 96.6156 69.5137C98.2272 67.7751 99.3901 65.6695 100.004 63.3796C100.617 61.0897 100.662 58.6847 100.136 56.3733C99.6089 54.062 98.5262 51.914 96.9812 50.1159Z" fill="#CBE2D1"/>
<path d="M41.5246 69.2015L27.6301 55.3157C27.1028 54.7876 26.8066 54.0717 26.8066 53.3254C26.8066 52.5791 27.1028 51.8632 27.6301 51.3351L29.3182 49.6449C29.8464 49.1175 30.5622 48.8214 31.3085 48.8214C32.0549 48.8214 32.7707 49.1175 33.2989 49.6449L43.399 59.7385L67.1855 34.4611C67.6973 33.918 68.4037 33.6002 69.1496 33.5775C69.8956 33.5547 70.62 33.8289 71.164 34.3398L72.8976 35.9758C73.4413 36.4877 73.7595 37.1946 73.7822 37.941C73.805 38.6875 73.5304 39.4124 73.0189 39.9565L45.5724 69.1387C45.314 69.4141 45.0028 69.6347 44.6574 69.7875C44.312 69.9402 43.9394 70.022 43.5618 70.0278C43.1842 70.0337 42.8092 69.9636 42.4593 69.8216C42.1093 69.6796 41.7914 69.4688 41.5246 69.2015Z" fill="#4EA692"/>
</svg>
