<?xml version="1.0" encoding="UTF-8"?><svg id="Layer_2" xmlns="http://www.w3.org/2000/svg" width="301.36" height="207.48" viewBox="0 0 301.36 207.48"><defs><style>.cls-1{fill:#6d597a;}.cls-1,.cls-2,.cls-3,.cls-4,.cls-5,.cls-6{stroke-width:0px;}.cls-2,.cls-7{fill:#fd6666;}.cls-8,.cls-9,.cls-10,.cls-7,.cls-11,.cls-12{stroke:#000;stroke-linecap:round;stroke-linejoin:round;}.cls-8,.cls-10{stroke-width:.59px;}.cls-8,.cls-5{fill:#fd9797;}.cls-4{fill:#fdf2ee;}.cls-9{stroke-width:1.16px;}.cls-9,.cls-11,.cls-12{fill:none;}.cls-10{fill:#fff;}.cls-7,.cls-11{stroke-width:.58px;}.cls-6{fill:#4ea692;}.cls-12{stroke-width:1.09px;}</style></defs><g id="Layer_1-2"><path class="cls-4" d="M301.36,7.01c0-5.52-6.08-8.86-10.74-5.91-25.84,16.39-68.14,20.1-91.86,23.98-33.95,5.56-78.56,20.85-92.7,56.82-14.14,35.97-21.48,60.15-58.8,75.01C14.84,169.83-1.54,187.02.11,207.48h286.08c8.38,0,15.17-6.79,15.17-15.17V7.01Z"/><path class="cls-6" d="M166.26,97.99l11.15.21h0c8.75,1.78,15.11,6.42,16.74,16.12l1.89,19.16c2.13,12.7-6.66,44.64-6.66,44.64h-71.02l4.4-49.36c1.71-11.58,2.08-8.69,1.92-10.76l6.44-15.01c2.43-5.65,5.11-12.22,10.43-14.66,3.96-1.82,10.13-.37,14.68.17h0l10.04,9.49Z"/><path class="cls-11" d="M174.8,98.13s8.51.18,14.49,5.98c5.98,5.81,5.59,19.15,5.59,19.15"/><path class="cls-3" d="M156.55,173.77c7.01.11,14.79-8.45,14.79-8.45l-48.87-24.44-1.12,3.81-1.16,13.08c7.45,3.94,30.52,15.92,36.37,16.01Z"/><path class="cls-2" d="M169.48,76.62l7.93,21.58s.72,8.93-9.75,8.07c-10.47-.86-12-9.34-12-10.51s1.71-4.94,1.71-4.94l12.11-14.2Z"/><path class="cls-3" d="M153.92,96.46c-5.67-2.17-8.24-5.56-9.27-8.91,3.66-.39,8.08.54,11.56.95h0l1.73,1.63,11.53-13.52,1.05,2.85c-.62,4.54-3.83,21.88-16.6,16.99Z"/><path class="cls-3" d="M160.33,63.23l-1.96,1.81c-3.87,3.58-8.53,6.2-13.59,7.64l-2.35.67c-1.14.33-2.37,0-3.22-.84h0c-1.32-1.32-1.27-3.47.1-4.73l1.88-1.73c2.03-1.88,3.75-4.07,5.08-6.49l1.24-2.26c1.08-1.96,2.94-3.37,5.13-3.87h0c1.9-.43,3.9-.14,5.6.82l.94.54,1.5-.31c2.79-.59,5.69.35,7.61,2.46h0c1.13,1.25,1.85,2.82,2.04,4.49l.34,2.97c.15,1.31.67,2.55,1.5,3.58l.77.95c1.42,1.76,1.67,4.19.65,6.21h0c-.8,1.58-2.41,2.57-4.18,2.57h0l-3.83-9.85c-.31-.79-.9-1.43-1.67-1.78l-1.18-.55c-.42-.2-.79-.48-1.1-.83l-1.28-1.49Z"/><path class="cls-7" d="M169.73,68.31h2.52v8.39h-4.07c-1.89,0-3.42-1.53-3.42-3.42h0c0-2.74,2.23-4.97,4.97-4.97Z" transform="translate(351.67 82.6) rotate(159.87)"/><path class="cls-7" d="M161.43,91.96h0c6.84-3.01,9.94-10.99,6.94-17.82l-6.26-14.24-19.61,8.62,8.53,19.39c1.76,3.99,6.42,5.81,10.41,4.05Z"/><path class="cls-9" d="M148.94,77.35c.35,1.26,1.8,1.96,3.25,1.57,1.45-.4,2.35-1.75,2-3.01"/><path class="cls-9" d="M157.74,74.93c.35,1.26,1.8,1.96,3.25,1.57,1.45-.4,2.35-1.75,2-3.01"/><path class="cls-12" d="M161.54,81.32c-.41,2.74-3.78,4.16-5.77,2.83"/><path class="cls-3" d="M160.33,63.23l-1.96,1.81c-3.87,3.58-8.53,6.2-13.59,7.64l-2.35.67c-1.14.33-2.37,0-3.22-.84h0c-1.32-1.32-1.27-3.47.1-4.73l1.88-1.73c2.03-1.88,3.75-4.07,5.08-6.49l1.24-2.26c1.08-1.96,2.94-3.37,5.13-3.87h0c1.9-.43,3.9-.14,5.6.82l.94.54,1.5-.31c2.79-.59,5.69.35,7.61,2.46h0c1.13,1.25,1.85,2.82,2.04,4.49l.34,2.97c.06.48-.62,1.08-1.49,1.64-1.59,1.02-3.55.86-5.25.05,0,0-.02,0-.02-.01l-1.18-.55c-.42-.2-.79-.48-1.1-.83l-1.28-1.49Z"/><path class="cls-2" d="M122.62,149.01s-4.57-8.08-5.43-10.87c-.86-2.8,0-3.44,0-3.44,0,0-.43-1.85-.17-2.87.26-1.02,1.24-1.58,1.24-1.58,0,0,.53-1.51,1.27-2.8.73-1.3,2.2-1.81,2.2-1.81,0,0,.26-.99,1.25-2.33.99-1.34,2.37-1.89,2.37-1.89l6.46,16.85-9.18,10.76Z"/><path class="cls-6" d="M194.15,143.69s-11.53,12.39-19.17,18.72c-7.64,6.33-11.06,7.97-13.3,8.4-2.25.43-13.76-1.16-26.6-8.98-10.9-6.63-14.04-10.72-14.04-10.72l9.85-12.97,63.27,5.55Z"/><path class="cls-3" d="M196.35,136.92l-62.3,9.72s7.12,18.28,21.6,16.39c14.48-1.89,39.89-14.34,39.89-14.34h0c.58-4.29.91-8.39.81-11.78Z"/><path class="cls-11" d="M126.72,126.34s-1.8.08-2.42,2.48c-.62,2.4,1.21,5.89,1.21,5.89"/><path class="cls-2" d="M191.25,125.71s1.3-3.89,3.17-5.25c1.88-1.36,2.79,1.94,2.79,1.94,0,0,.8-1.72,2.28-1.31,1.48.41,1.48,3.45,1.48,3.45,0,0,.73-1.17,1.77-.39s.78,3.33.78,3.33c0,0,.83-.45,1.52.88.69,1.33,0,3.23,0,3.23,0,0,1.03-.22,1.2.99.17,1.21-.17,2.85-2.07,5.31-1.9,2.46-6.95,5.31-6.95,5.31l-5.96-17.49Z"/><path class="cls-6" d="M144.66,87.55l14.64,49.13,31.96-10.97s3.24,3.37,4.53,9.07c1.3,5.7,1.43,8.42,1.43,8.42,0,0-37.17,19.8-49.39,16.64-16.37-4.23-22.47-38.43-22.47-38.43,0,0-5.47-29.93,19.31-33.86Z"/><path class="cls-11" d="M152.88,115.16l6.41,21.52,31.96-10.97s3.24,3.37,4.53,9.07c1.3,5.7,1.43,8.42,1.43,8.42,0,0-36.19,19.2-48.45,16.85-16.88-3.23-23.41-38.65-23.41-38.65,0,0-5.18-30.41,19.6-33.62"/><path class="cls-1" d="M165.21,170.88c-47.34,1.89-78.67,14.54-103.23,36.6h224.32c8.32,0,15.06-6.74,15.06-15.06v-73.87c-10.75,21.12-84.15,50.25-136.15,52.33Z"/><path class="cls-5" d="M111.78,78.62c-2.52-.42-2.88-.76-3.32-3.14-.44,2.38-.8,2.72-3.32,3.14,2.52.42,2.88.76,3.32,3.14.44-2.38.8-2.72,3.32-3.14Z"/><path class="cls-5" d="M6.64,190.77c-2.52-.42-2.88-.76-3.32-3.14C2.88,190.01,2.52,190.35,0,190.77c2.52.42,2.88.76,3.32,3.14.44-2.38.8-2.72,3.32-3.14Z"/><path class="cls-5" d="M204.69,82.98c-2.52-.42-2.88-.76-3.32-3.14-.44,2.38-.8,2.72-3.32,3.14,2.52.42,2.88.76,3.32,3.14.44-2.38.8-2.72,3.32-3.14Z"/><path class="cls-5" d="M239.23,121.41c-2.52-.42-2.88-.76-3.32-3.14-.44,2.38-.8,2.72-3.32,3.14,2.52.42,2.88.76,3.32,3.14.44-2.38.8-2.72,3.32-3.14Z"/><path class="cls-5" d="M260.8,15.81c-2.52-.42-2.88-.76-3.32-3.14-.44,2.38-.8,2.72-3.32,3.14,2.52.42,2.88.76,3.32,3.14.44-2.38.8-2.72,3.32-3.14Z"/><path class="cls-5" d="M98.5,170.88c-2.52-.42-2.88-.76-3.32-3.14-.44,2.38-.8,2.72-3.32,3.14,2.52.42,2.88.76,3.32,3.14.44-2.38.8-2.72,3.32-3.14Z"/><path class="cls-3" d="M161.65,44.45c0-.41-.33-.74-.74-.74s-.74.33-.74.74.33.74.74.74.74-.33.74-.74Z"/><path class="cls-3" d="M197.41,107.93c0-.41-.33-.74-.74-.74s-.74.33-.74.74.33.74.74.74.74-.33.74-.74Z"/><circle class="cls-3" cx="101.14" cy="120.14" r=".74"/><circle class="cls-3" cx="40.94" cy="186.3" r=".74"/><path class="cls-3" d="M207.75,151.54c0-.41-.33-.74-.74-.74s-.74.33-.74.74.33.74.74.74.74-.33.74-.74Z"/><path class="cls-3" d="M233.32,49.02c0-.41-.33-.74-.74-.74s-.74.33-.74.74.33.74.74.74.74-.33.74-.74Z"/><path class="cls-10" d="M143.23,95.24c.04-.28.07-.56.07-.85,0-2.94-2.38-5.32-5.32-5.32-.97,0-1.87.26-2.66.71-1.14-2.03-3.32-3.4-5.81-3.4-2.7,0-5.02,1.6-6.07,3.91-.68-.35-1.45-.54-2.26-.54-2.75,0-4.99,2.23-4.99,4.99,0,.17,0,.35.03.51h27.01Z"/><path class="cls-8" d="M211.24,166.84c.04-.28.07-.56.07-.85,0-2.94-2.38-5.32-5.32-5.32-.97,0-1.87.26-2.66.71-1.14-2.03-3.32-3.4-5.81-3.4-2.7,0-5.02,1.6-6.07,3.91-.68-.35-1.45-.54-2.26-.54-2.75,0-4.99,2.23-4.99,4.99,0,.17,0,.35.03.51h27.01Z"/></g></svg>